<?xml version="1.0" standalone="no"?>
<!DOCTYPE svg PUBLIC "-//W3C//DTD SVG 1.1//EN" "http://www.w3.org/Graphics/SVG/1.1/DTD/svg11.dtd" >
<svg xmlns="http://www.w3.org/2000/svg" xmlns:xlink="http://www.w3.org/1999/xlink" version="1.1">
<metadata>
Created by FontForge 20170731 at Wed Mar 29 17:36:54 2023
 By Aleksey,,,
2022 (C) Copyright by Mans Greback AB 
</metadata>
<defs>
<font id="SimpleThreadPERSONALUSE-Regular" horiz-adv-x="0" >
  <font-face 
    font-family="Simple Thread PERSONAL USE"
    font-weight="400"
    font-style="italic"
    font-stretch="normal"
    units-per-em="2048"
    panose-1="0 0 0 0 0 0 0 0 0 0"
    ascent="1638"
    descent="-410"
    x-height="1024"
    cap-height="1434"
    bbox="-4425.83 -625 11659 2468"
    underline-thickness="102"
    underline-position="-358"
    slope="-28"
    unicode-range="U+000A-FF5D"
  />
<missing-glyph horiz-adv-x="512" 
 />
    <glyph glyph-name="fi" unicode="fi" horiz-adv-x="1183" 
d="M1290 489q5 5 10 5q13 0 29.5 -14t16.5 -25l-10 -14q-253 -348 -418 -423q-41 -18 -74 -18q-76 0 -123 54.5t-47 138.5q0 90 114 300.5t244 403.5q-188 0 -307 2q6 -18 6 -37q0 -52 -43 -175t-112 -275t-161 -316t-184.5 -299t-189 -222t-168.5 -87q-83 0 -131.5 55
t-48.5 138q0 96 193.5 441.5t469.5 780.5h-12.5h-11h-9.5t-8.5 0.5t-6.5 1.5t-6 3t-4 4.5t-2.5 6t-0.5 7.5q0 31 19 39.5t74 12.5q12 1 18 1q321 490 376 545q12 12 37 12q45 0 99.5 -35t54.5 -67q0 -7 -8 -19q-92 -88 -312 -422q78 5 198.5 13t197.5 13t104 5
q45 0 99.5 -35t54.5 -67q0 -10 -9 -19q-44 -44 -138 -200t-173.5 -321.5t-79.5 -221.5q0 -25 17 -25t57 32.5t90.5 84.5t93 98t83 91.5t42.5 47.5zM-84 -354q0 -23 14 -23q34 0 143 152.5t224.5 351t206 402t90.5 292.5q0 37 -16 53q-250 -388 -456 -763.5t-206 -464.5z
M1221 1182q0 36 52.5 115.5t90.5 119.5q17 17 47 17q48 0 100 -37.5t52 -75.5q0 -16 -15 -31q-12 -14 -63 -77t-89.5 -107.5t-47.5 -44.5q-37 0 -82 39.5t-45 81.5z" />
    <glyph glyph-name="S_i_m_p_l_e_space_T_h_r_e_a_d.liga" unicode="Simple&#x20;Thread" horiz-adv-x="11814" 
d="M682 688q50 0 134 68.5t160 161t131.5 191t55.5 153.5q0 53 -53 53q-63 0 -176.5 -56t-221.5 -135t-188 -174.5t-80 -165.5q0 -47 23 -91t59.5 -79t81 -69t89 -66.5t81 -65.5t59.5 -72.5t23 -80.5q0 -78 -52.5 -149.5t-130.5 -118.5t-163.5 -75t-155.5 -28
q-66 0 -118.5 28.5t-82 71t-44.5 85t-15 76.5q0 45 21 45q4 0 22 -14t43.5 -30.5t76 -30.5t110.5 -14q63 0 129.5 14.5t116 35.5t81 45.5t31.5 44.5q0 17 -38 45.5t-95 60.5t-123 78.5t-123 95t-95 113.5t-38 131q0 112 76.5 234t190 215t250.5 154t253 61q132 0 232 -75.5
t100 -174.5q0 -44 -32.5 -119.5t-89 -159.5t-124 -159t-147 -124t-148.5 -49q-42 0 -78 35.5t-36 63.5q0 16 18 16zM1016 193q0 62 62 195t142 264t149.5 235t90.5 125q12 12 35 12q45 0 99.5 -35t54.5 -67q0 -10 -9 -19q-44 -44 -138 -200t-173.5 -321.5t-79.5 -221.5
q0 -25 17 -25q50 0 333 318q68 116 151.5 249.5t139 217t64.5 92.5q12 12 37 12q45 0 98 -35t53 -67q-102 -140 -231 -351q165 191 302.5 322t188.5 131q66 0 126.5 -51t60.5 -103q0 -44 -97 -206q138 155 253 257.5t159 102.5q66 0 126 -51t60 -103q0 -38 -55.5 -145
t-121.5 -215.5t-121.5 -213.5t-55.5 -140q0 -21 19 -21q15 0 52 30t84.5 78t89.5 93t84 90.5t50 54.5q119 202 217 359t113 172q12 12 37 12q45 0 98 -35t53 -67q0 -5 -16.5 -27t-49 -63.5t-57.5 -77.5q217 268 314 268q90 0 140 -50t50 -141q0 -54 -38 -155t-104 -216.5
t-143.5 -219.5t-167.5 -173t-165 -69q-88 0 -161 42t-104 95q-286 -511 -286 -622q0 -12 -15 -19.5t-37 -7.5q-52 0 -100.5 27.5t-48.5 74.5q0 71 281 564q-152 -152 -250 -152q-77 0 -123.5 51t-46.5 142q0 66 56 182.5t123 219.5t123 191.5t56 104.5q0 6 -4 6
q-36 0 -200.5 -170.5t-329 -377t-197.5 -294.5q-1 -5 -2 -14.5t-2 -13t-3 -9.5t-5 -8t-8.5 -5t-13.5 -4t-19 -1q-51 0 -101.5 28.5t-50.5 71.5q0 47 108.5 231.5t217 360t108.5 199.5q0 6 -4 6q-36 0 -203.5 -173.5t-333 -382.5t-192.5 -292q-6 -34 -13 -41q-10 -10 -42 -10
q-52 0 -101 27.5t-49 74.5q0 14 17 56q-156 -156 -254 -156q-76 0 -123 54.5t-47 138.5zM1563 1182q0 37 52.5 117t90.5 118q17 17 47 17q48 0 100 -37.5t52 -75.5q0 -16 -15 -31q-12 -14 -63 -77t-89.5 -107.5t-47.5 -44.5q-37 0 -82 39.5t-45 81.5zM3092 -467
q-44 -4 -49 23q-6 29 36 58q37 25 95 32q544 69 1412 111t1645 50t1380.5 1.5t734.5 -23.5q65 -8 47 -78q-17 -68 -90 -138q-85 -80 -157 -76q-13 1 -24 5q-185 60 -770.5 99t-1312 47.5t-1540.5 -19.5t-1407 -92zM3219 256q0 -46 18.5 -87.5t51.5 -41.5q55 0 143 90
t166 209t135.5 240.5t57.5 179.5q0 43 -31 43q-21 0 -70 -47t-124.5 -139.5t-125.5 -156t-133 -174t-88 -116.5zM3932 193q0 75 111.5 291t251 439t258 401.5t139.5 199.5q12 12 37 12q45 0 99 -35t54 -67q0 -7 -8 -19q-71 -71 -243 -337t-322 -547t-150 -365q0 -31 23 -31
q17 0 57 32t91 84t93 97t83.5 91.5t42.5 47.5q74 136 173.5 257.5t209.5 200.5t196 79q95 0 157 -59.5t62 -133.5q0 -86 -63.5 -180.5t-154 -166t-192 -118.5t-175.5 -47q-31 0 -52 9q-55 -129 -55 -219q0 -125 117 -125q80 0 191.5 61t206 145.5t162 176t67.5 149.5
q0 43 -21 64q-20 20 -20 32q0 13 20 13q51 0 121 -55t70 -132q0 -61 -48.5 -139t-131.5 -153.5t-182.5 -139.5t-214 -103.5t-214.5 -39.5q-155 0 -245.5 77t-90.5 207q0 53 19 121q-96 -113 -191.5 -190.5t-167.5 -77.5q-76 0 -123 54.5t-47 138.5zM4764 442h10
q74 0 182.5 85.5t186 188t77.5 154.5q0 33 -34 33q-78 0 -202 -140t-220 -321zM5569 1092q0 65 34.5 125t101.5 109.5t177 78.5t248 29q159 0 393 -15q70 104 79 112q13 6 31 5q45 0 99.5 -35t54.5 -67q0 -11 -16 -27q35 -2 96 -2q155 0 184 29q58 0 102 -35.5t44 -71.5
q0 -18 -11 -29q-76 -76 -257 -363.5t-316 -547.5q191 232 400 434.5t274 202.5t124.5 -50.5t59.5 -103.5q0 -38 -55 -145t-121 -216t-121 -213.5t-55 -139.5q0 -21 16 -21q15 0 52.5 29.5t85.5 78t90 92.5t84.5 90.5t50.5 55.5q5 5 51.5 64.5t124.5 166t137 197.5
q-82 0 -128 21.5t-46 77.5q0 54 49.5 125t110.5 119t96 48q60 0 108 -36t48 -80q0 -42 -74 -164q70 4 115 4q76 0 130 -48.5t54 -105.5q0 -41 -53.5 -148t-117.5 -218t-117.5 -234.5t-53.5 -193.5q0 -99 108 -99q23 0 23 -12q0 -15 -34.5 -33t-76.5 -18q-109 0 -172 74
t-63 196q0 66 36 158.5t87.5 180t103 167t87.5 139.5t36 78q0 11 -10 11q-29 0 -85.5 -3.5t-66.5 -3.5q-72 -105 -165.5 -229.5t-151.5 -197.5t-66 -81q-2 -2 -4 -2q-39 -51 -68.5 -88t-87 -101t-104 -105.5t-102.5 -74t-99 -32.5q-78 0 -125 51.5t-47 141.5q0 66 56 182.5
t123.5 219t123.5 191t56 105.5q0 6 -4 6q-28 0 -148 -113t-254 -258t-246 -289.5t-124 -199.5q0 -21 -11 -30t-41 -9q-52 0 -100.5 27.5t-48.5 74.5q0 62 116.5 282t248.5 436.5t262 416.5q-68 0 -236 14q-133 -201 -301.5 -479t-307 -540.5t-138.5 -327.5q0 -21 -39 -21
q-50 0 -106 34t-56 83q0 89 231.5 487t483.5 785q-191 14 -330 14q-170 0 -283.5 -68t-113.5 -151q0 -14 3 -28t5.5 -24t11 -24t12 -20t16.5 -20.5t15 -17t18 -18t17 -16.5l4 -8q0 -12 -29 -12q-20 0 -44.5 6.5t-53 23t-51 40t-38 61.5t-15.5 84zM7838 1036q0 -15 43 -18
q69 116 69 160q0 8 -6 8q-15 0 -60.5 -63.5t-45.5 -86.5zM8243 281q0 76 41.5 176.5t111 197.5t151.5 180.5t173 135t166 51.5q95 0 157 -59t62 -134q0 -85 -63.5 -179.5t-154 -165.5t-191.5 -118t-174 -47q-30 0 -51 9q-15 -49 -15 -92q0 -121 123 -121q51 0 117.5 32
t122 73t119.5 99.5t94.5 90.5t62.5 67q48 97 109 190.5t130.5 175t144 131.5t138.5 50q86 0 154.5 -38t103.5 -89q9 13 20 29t17 25t14 20t12.5 16.5t10 12.5t9.5 10t8.5 6.5t9 4.5t9.5 2t11 1q45 0 99.5 -35t54.5 -67q0 -7 -8 -19q-44 -44 -139 -200.5t-175 -322.5
t-80 -222q0 -23 17 -23q15 0 49 27t81 73.5t84.5 86.5t84 90.5t55.5 60.5q48 98 109 192t130.5 176.5t145 132.5t139.5 50q81 0 148 -35.5t104 -83.5q128 211 252 395t164 224q12 12 35 12q45 0 99.5 -35t54.5 -67q0 -10 -9 -19q-65 -65 -184.5 -236t-241.5 -372
t-211.5 -404t-89.5 -311q0 -110 99 -110q80 0 191.5 61t206 145.5t161.5 176t67 149.5q0 44 -20 64q-21 21 -21 32t21 11q20 0 51 -13t62.5 -35.5t54 -59.5t22.5 -77q0 -61 -48 -139t-130.5 -153.5t-182 -139.5t-214.5 -103.5t-215 -39.5q-130 0 -225 94.5t-95 237.5
q0 51 56 176q-276 -369 -390 -369q-90 0 -140 50.5t-50 142.5q0 20 10 65q-218 -258 -348 -258q-77 0 -124.5 54.5t-47.5 138.5q0 48 41 145q-255 -338 -367 -338q-90 0 -140 50.5t-50 142.5q0 31 16 90q-259 -281 -477 -281q-146 0 -220.5 81t-74.5 198zM8514 442
q6 -2 16 -2q75 0 184 85.5t186.5 188t77.5 154.5q0 33 -34 33q-86 0 -219 -145.5t-211 -313.5zM9220 178q0 -43 33 -43q23 0 80.5 56.5t142 162.5t138 175.5t132.5 174.5q8 10 12 16t10 14t11 14l4 6l6 12q5 5 5 6q0 43 -19.5 83t-50.5 40q-73 0 -196 -145.5t-215.5 -319
t-92.5 -252.5zM10246 178q0 -43 33 -43q27 0 145.5 130t239.5 286t156 225q-2 44 -20.5 81.5t-49.5 37.5q-73 0 -196 -145.5t-215.5 -319t-92.5 -252.5z" />
    <glyph glyph-name="a_numbersign.liga" unicode="a&#x23;" horiz-adv-x="1837" 
d="M1595 332q109 0 175.5 -73.5t66.5 -168.5q0 -32 -16.5 -55t-30.5 -23q-8 0 -8 13q0 96 -162 96q-111 0 -305.5 -45.5t-367.5 -91t-232 -45.5q-85 0 -147 53.5t-62 138.5q0 77 67 227q-273 -358 -383 -358q-90 0 -140 50.5t-50 142.5q0 53 38 154t104 216t143.5 219
t167.5 173t165 69q85 0 154.5 -38.5t104.5 -90.5q63 94 83 112q19 17 41 17q45 0 98.5 -35t53.5 -67q0 -11 -8 -19q-39 -39 -133.5 -185.5t-182.5 -324.5t-88 -260q0 -59 52 -59t161.5 40.5t216.5 88.5t228.5 88.5t195.5 40.5zM221 178q0 -43 33 -43q15 0 45 24.5t75.5 76
t84.5 97t98.5 122.5t89.5 115.5t85.5 113t60.5 80.5q0 2 2 4q0 45 -19 86t-51 41q-73 0 -196 -145.5t-215.5 -319t-92.5 -252.5z" />
    <glyph glyph-name="b_numbersign.liga" unicode="b&#x23;" horiz-adv-x="1548" 
d="M1286 459q119 0 190.5 -68t71.5 -194q0 -32 -16.5 -55t-30.5 -23q-8 0 -8 12q0 133 -332 133q-145 0 -440 -33q-181 -231 -322 -231q-91 0 -162.5 41.5t-103.5 95.5q-12 -27 -20 -58.5t-11.5 -46t-16 -24.5t-38.5 -10q-52 0 -100.5 27.5t-48.5 74.5q0 56 211.5 402.5
t426.5 669.5t244 352q12 12 37 12q45 0 98.5 -35t53.5 -67q0 2 -98 -133t-249 -353.5t-257 -390.5q335 467 460 467q89 0 140 -51t51 -142q0 -62 -50.5 -184t-129.5 -250q336 62 450 62zM221 250q2 -45 21 -83t51 -38q47 0 119 66q-18 -2 -47 -2q-99 0 -144 57zM281 334
q33 -10 79 -10q76 0 181 18q101 135 177.5 286t76.5 220q0 41 -31 41q-72 0 -483 -555z" />
    <glyph glyph-name="c_numbersign.liga" unicode="c&#x23;" horiz-adv-x="1390" 
d="M1149 334q90 0 166 -67t76 -175q0 -40 -13 -58t-28 -18t-15 11q0 77 -137 77q-98 0 -282.5 -40.5t-366 -81.5t-270.5 -41q-119 0 -199 66.5t-80 182.5q0 95 75.5 240t183 275.5t235 224.5t221.5 94q87 0 153 -56t66 -116q0 -63 -46 -148.5t-110.5 -146.5t-111.5 -61
q-27 0 -44.5 14t-17.5 31q0 18 25 18q24 0 65 57.5t72 132t31 117.5q0 37 -27 37q-61 0 -160 -87.5t-188 -206.5t-154 -249.5t-65 -209.5q0 -95 92 -95q65 0 183 43.5t228 96t236.5 96t206.5 43.5z" />
    <glyph glyph-name="d_numbersign.liga" unicode="d&#x23;" horiz-adv-x="1789" 
d="M1444 578q-21 21 -21 32t21 11q20 0 51 -13t62.5 -35.5t54 -59.5t22.5 -77q0 -61 -48 -139t-130.5 -153.5t-182 -139.5t-214.5 -103.5t-215 -39.5q-130 0 -225 94.5t-95 237.5q0 51 56 176q-276 -369 -390 -369q-90 0 -140 50.5t-50 142.5q0 53 38 154t104 216t143.5 219
t167.5 173t165 69q81 0 148 -35.5t104 -83.5q128 211 252 395t164 224q12 12 35 12q45 0 99.5 -35t54.5 -67q0 -10 -9 -19q-65 -65 -184.5 -236t-241.5 -372t-211.5 -404t-89.5 -311q0 -110 99 -110q80 0 191.5 61t206 145.5t161.5 176t67 149.5q0 44 -20 64zM221 178
q0 -43 33 -43q27 0 145.5 130t239.5 286t156 225q-2 44 -20.5 81.5t-49.5 37.5q-73 0 -196 -145.5t-215.5 -319t-92.5 -252.5z" />
    <glyph glyph-name="e_numbersign.liga" unicode="e&#x23;" horiz-adv-x="1191" 
d="M1149 334q96 0 169 -67.5t73 -176.5q0 -40 -13 -57t-28 -17t-15 9q0 75 -137 75q-98 0 -282.5 -39.5t-366 -79.5t-270.5 -40q-127 0 -203 70t-76 179q0 95 76 239.5t183.5 275.5t235 225t220.5 94q95 0 157 -59.5t62 -133.5q0 -85 -63.5 -179.5t-154.5 -166t-192.5 -119
t-175.5 -47.5q-55 0 -84 29q-59 -124 -59 -201q0 -94 90 -94q65 0 183 44t228 96.5t236.5 96.5t206.5 44zM319 451q18 -9 41 -9q57 0 137 52t147 122t115 142.5t48 111.5q0 33 -35 33q-81 0 -216 -139t-237 -313z" />
    <glyph glyph-name="f_f.liga" unicode="ff" horiz-adv-x="1280" 
d="M1399 1524q12 12 37 12q45 0 98 -35t53 -67q0 -11 -8 -19q-119 -119 -444 -633q61 2 128 4t105 3.5t49 1.5q29 0 29 -31q0 -29 -24.5 -62.5t-49.5 -33.5h-209q15 -30 15 -76q0 -93 -46.5 -236t-123 -290t-164.5 -277.5t-182.5 -213.5t-165.5 -83q-84 0 -132.5 55
t-48.5 138t146 357t366 628q-96 2 -286 2q14 -32 14 -80q0 -93 -46 -236t-122.5 -290t-164.5 -277.5t-182.5 -213.5t-166.5 -83q-83 0 -131.5 55t-48.5 138q0 85 146.5 359.5t365.5 629.5q-10 0 -23 -0.5t-20 -0.5h-15.5t-12.5 1.5t-8 4t-5.5 6.5t-1.5 11q0 35 18 42.5
t83 9.5q20 1 32 1q152 244 286 442.5t169 233.5q13 13 36 13q45 0 98.5 -35.5t53.5 -67.5q0 -10 -8 -18q-125 -128 -393 -557q145 5 399 16q169 271 319 493t187 259zM-86 -352q0 -25 16 -25q25 0 107.5 120t170 277t157 321.5t69.5 242.5q0 35 -16 51q-208 -341 -356 -625
t-148 -362zM537 -354q0 -23 16 -23q25 0 107 120t169.5 276.5t156.5 321t69 241.5q0 33 -13 49q-211 -348 -358 -629.5t-147 -355.5z" />
    <glyph glyph-name="f_numbersign.liga" unicode="f&#x23;" horiz-adv-x="1449" 
d="M1188 584q119 0 190.5 -68t71.5 -194q0 -32 -16.5 -55t-30.5 -23q-8 0 -8 12q0 133 -303 133q-65 0 -151.5 -7t-144 -13.5t-158.5 -20t-130 -16.5q-49 -175 -158.5 -370.5t-243 -334.5t-233.5 -139q-83 0 -131.5 55t-48.5 138q0 81 144 354.5t325 566t343 536t202 283.5
q13 13 36 13q45 0 98.5 -35.5t53.5 -67.5q0 -10 -8 -18q-66 -67 -189.5 -245t-263.5 -406q101 -23 101 -191q69 12 219.5 44t258 50.5t175.5 18.5zM-86 -352q0 -25 16 -25q26 0 111.5 114.5t184 281t155.5 298.5q-92 0 -137 23q-330 -575 -330 -692zM307 451q10 -2 31 -2
q5 0 19.5 -0.5t22 -0.5t19.5 2.5t18.5 8t11.5 17t5 28.5q0 57 -49 57l-6 2h-4z" />
    <glyph glyph-name="fl" unicode="fl" horiz-adv-x="1138" 
d="M707 1421q13 13 36 13q45 0 98.5 -35.5t53.5 -67.5q0 -10 -8 -18q-66 -67 -189.5 -245t-263.5 -406q47 -10 74 -52t27 -104q0 -86 -39 -211q111 42 229 160q89 178 247 435.5t276.5 434.5t140.5 199q12 12 36 12q45 0 99.5 -35t54.5 -67q0 -7 -8 -19q-71 -71 -243 -337
t-322 -547t-150 -365q0 -31 23 -31q17 0 57 32.5t90.5 84t93 97t83.5 91.5t42 47q5 5 12 5q13 0 28 -13t15 -24l-10 -14q-252 -348 -417 -423q-41 -18 -74 -18q-76 0 -123 54.5t-47 138.5q0 37 24 102q-95 -78 -196 -109q-67 -166 -167.5 -324.5t-215 -266t-201.5 -107.5
q-83 0 -131.5 55t-48.5 138q0 81 144 354.5t325 566t343 536t202 283.5zM-86 -352q0 -25 16 -25q34 0 157 176.5t224 370.5q-87 8 -125 70q-272 -481 -272 -592zM276 358q0 -81 84 -86q74 165 74 234q0 55 -45 55q-25 0 -69 -82t-44 -121z" />
    <glyph glyph-name="g_numbersign.liga" unicode="g&#x23;" horiz-adv-x="1574" 
d="M1333 453q111 0 176.5 -65t65.5 -157q0 -32 -16.5 -54.5t-30.5 -22.5q-8 0 -8 12q0 90 -131 90q-201 0 -752 -223q-71 -120 -138.5 -211.5t-148 -170.5t-170 -121t-182.5 -42q-95 0 -166.5 54.5t-87.5 123.5q-56 -16 -78 -16q-33 0 -54.5 23t-21.5 46q0 21 19 21
q63 0 203 54.5t258.5 112t339.5 169.5q67 108 165 293q-276 -369 -389 -369q-90 0 -140 50.5t-50 142.5q0 53 38 154t104 216t143.5 219t167.5 173t165 69q83 0 151.5 -36.5t102.5 -86.5q23 35 31.5 47.5t26.5 35.5t32 31.5t29 8.5q45 0 99.5 -36t54.5 -66q0 -11 -8 -19
q-39 -39 -88 -116.5t-85 -145t-102.5 -198.5t-101.5 -197q432 207 577 207zM-164 -301q57 -76 125 -76q141 0 326 264q-321 -140 -451 -188zM217 178q0 -43 33 -43q21 0 70.5 47.5t122.5 137.5t126.5 157.5t132.5 172.5t89 118q0 45 -19 86t-53 41q-55 0 -143 -90
t-166 -208.5t-135.5 -239.5t-57.5 -179z" />
    <glyph glyph-name="g_r.liga" unicode="gr" horiz-adv-x="1771" 
d="M1880 487q5 5 10 5q14 0 29.5 -12.5t15.5 -24.5q0 -5 -4 -9q-6 -6 -46.5 -59t-92.5 -114t-113.5 -125t-127.5 -106t-117 -42q-79 0 -124.5 51t-45.5 142q0 53 39 139t94.5 174.5t111 171.5t94.5 146.5t39 82.5q0 11 -10 11q-14 0 -112 -5q-118 -180 -343 -392t-491 -402
q-60 -108 -115.5 -193.5t-124.5 -170.5t-136.5 -141t-147.5 -91t-162 -35q-95 0 -166.5 53.5t-89.5 124.5q-47 4 -79 30t-43 55.5t-11 58.5q0 43 16 43q6 0 11 -5q38 -38 118 -38q107 0 275.5 65t365.5 178q68 112 178 316q-276 -369 -389 -369q-90 0 -140 50.5t-50 142.5
q0 53 38 154t104 216t143.5 219t167.5 173t165 69q83 0 151.5 -36.5t102.5 -86.5q24 37 32.5 49t26.5 35t32.5 31t29.5 8q45 0 98.5 -35t53.5 -67q0 -11 -8 -19q-29 -29 -59 -70.5t-71.5 -115.5t-62 -112t-77.5 -151.5t-72 -142.5q200 146 365 302.5t263 295.5
q-39 0 -66 1.5t-55.5 7.5t-45 16.5t-27.5 29t-11 44.5q0 54 49 125t110 119t97 48q59 0 107.5 -36t48.5 -80q0 -70 -45 -162q13 0 41 1t43 1q76 0 130 -48.5t54 -105.5q0 -42 -55.5 -149.5t-121.5 -215.5t-121.5 -211.5t-55.5 -137.5q0 -21 18 -21q26 0 108 79t169.5 175
t89.5 98zM-145 -324q53 -53 108 -53q124 0 293 221q-241 -131 -401 -168zM217 178q0 -43 33 -43q21 0 70.5 47.5t122.5 137.5t126.5 157.5t132.5 172.5t89 118q0 45 -19 86t-53 41q-55 0 -143 -90t-166 -208.5t-135.5 -239.5t-57.5 -179zM1415 1036q0 -11 16 -14.5t52 -3.5
q45 88 45 160q0 8 -6 8q-15 0 -61 -63.5t-46 -86.5z" />
    <glyph glyph-name="h_numbersign.liga" unicode="h&#x23;" horiz-adv-x="1597" 
d="M1407 580q-21 21 -21 32t21 11q20 0 51 -13t62.5 -35.5t54 -59.5t22.5 -77q0 -76 -75.5 -177t-188.5 -188.5t-257.5 -148.5t-268.5 -61q-125 0 -208 84t-83 209q0 66 56.5 188t124 231t124 203.5t56.5 112.5q0 6 -5 6q-37 0 -220 -180t-359.5 -391.5t-192.5 -286.5
q-1 -3 -2.5 -9.5t-2.5 -8.5t-3 -6.5t-4 -6t-5.5 -4.5t-8.5 -3.5t-11.5 -1.5t-15.5 -1q-52 0 -100.5 27.5t-48.5 74.5q0 56 211.5 402.5t426.5 669.5t244 352q12 12 37 12q45 0 98.5 -35t53.5 -67q0 -11 -8 -19q-76 -76 -284.5 -379t-369.5 -575q185 217 368.5 390t242.5 173
q65 0 124.5 -50.5t59.5 -103.5q0 -25 -40.5 -98.5t-99 -166.5t-116.5 -191.5t-98.5 -193t-40.5 -150.5q0 -86 94 -86q80 0 191.5 61t206 145.5t161.5 176t67 149.5q0 41 -20 64z" />
    <glyph glyph-name="i_numbersign.liga" unicode="i&#x23;" horiz-adv-x="1290" 
d="M680 1069q-8 -8 -23 -8q-38 0 -82.5 39.5t-44.5 81.5q0 36 52.5 115t91.5 120q17 17 47 17q48 0 99.5 -37.5t51.5 -75.5q0 -17 -14 -31q-9 -10 -89 -110t-89 -111zM-31 131q0 72 60.5 213t140.5 278t154 248.5t104 141.5q12 12 37 12q45 0 98 -35t53 -67q0 -11 -8 -19
q-39 -39 -133 -185.5t-182 -324.5t-88 -260q0 -59 51 -59q52 0 160 40.5t213.5 88.5t225.5 88.5t194 40.5q110 0 175.5 -73t65.5 -169q0 -32 -16.5 -55t-30.5 -23q-8 0 -8 13q0 96 -160 96q-110 0 -302 -45.5t-363.5 -91t-231.5 -45.5q-85 0 -147 53.5t-62 138.5z" />
    <glyph glyph-name="j_numbersign.liga" unicode="j&#x23;" horiz-adv-x="1042" 
d="M662 1069q-8 -8 -23 -8q-36 0 -80.5 39.5t-44.5 81.5q0 37 52.5 117t90.5 118q17 17 45 17q50 0 102 -37.5t52 -75.5q0 -17 -14 -31q-12 -12 -93 -113t-87 -108zM-942 -279q0 21 18 21q48 0 127 25t205 82t214 99.5t257 127.5q75 125 213.5 390.5t228 411.5t136.5 146
q43 0 98 -36t55 -66q0 -11 -8 -19q-39 -39 -88.5 -116.5t-84.5 -144t-102.5 -198.5t-101.5 -196q435 205 576 205q111 0 176 -64.5t65 -157.5q0 -32 -16.5 -54.5t-30.5 -22.5q-8 0 -8 12q0 90 -131 90q-199 0 -747 -221q-72 -120 -140 -211.5t-148.5 -171t-170 -122
t-182.5 -42.5q-95 0 -166.5 55t-87.5 125q-56 -16 -80 -16q-33 0 -54.5 23t-21.5 46zM-696 -301q24 -32 58 -54t69 -22q137 0 325 264q-348 -148 -452 -188z" />
    <glyph glyph-name="j_r.liga" unicode="jr" horiz-adv-x="1300" 
d="M659 1069q-8 -8 -22 -8q-36 0 -80.5 39.5t-44.5 81.5q0 37 52.5 117t90.5 118q17 17 47 17q48 0 100 -37.5t52 -75.5q0 -17 -14 -31q-6 -7 -87 -107.5t-94 -113.5zM-922 -190q0 43 17 43l10 -5q38 -38 121 -38q211 0 629 227q60 97 138.5 243t141.5 267t126 234t113 178
t81 65q45 0 99 -36t54 -66q0 -11 -8 -19q-30 -31 -63 -78.5t-72 -117.5t-68.5 -126t-79.5 -155t-79 -154q227 156 414 322t292 315q-48 0 -80 3.5t-62 13t-44.5 30t-14.5 52.5q0 54 49 125t110 119t97 48q59 0 107.5 -36t48.5 -80q0 -73 -47 -162q13 0 41.5 1t44.5 1
q76 0 130 -49t54 -107q0 -52 -88.5 -208t-177 -308.5t-88.5 -195.5q0 -21 18 -21q20 0 78.5 52t114.5 111t113 122t61 67q5 5 10 5q13 0 29 -13t16 -24q0 -5 -4 -9q-6 -6 -46.5 -59t-92.5 -114t-113.5 -125t-127.5 -106t-117 -42q-79 0 -124.5 51t-45.5 142q0 53 39 139
t94.5 174.5t111 171.5t94.5 146.5t39 82.5q0 11 -10 11q-19 0 -117 -5q-128 -187 -373 -407.5t-532 -415.5q-75 -131 -145 -230t-155 -188t-179 -136.5t-192 -47.5q-95 0 -166.5 53.5t-89.5 124.5q-36 3 -63.5 18t-42 37.5t-21.5 44.5t-7 44zM-678 -324q50 -53 109 -53
q121 0 284 211q-240 -125 -393 -158zM944 1036q0 -18 66 -18q47 86 47 160q0 8 -4 8q-17 0 -63 -63.5t-46 -86.5z" />
    <glyph glyph-name="k_numbersign.liga" unicode="k&#x23;" horiz-adv-x="1376" 
d="M1315 223q0 23 10 23q15 0 33 -34.5t18 -78.5q0 -88 -62.5 -157.5t-183.5 -69.5q-80 0 -193 42t-229 109t-216.5 135.5t-188.5 137.5q-197 -228 -205 -299q0 -33 -51 -33q-52 0 -100.5 27.5t-48.5 74.5q0 56 211.5 402.5t426.5 669.5t244 352q12 12 37 12q45 0 98.5 -35
t53.5 -67q0 3 -106.5 -143.5t-265 -379.5t-263.5 -411h2q185 210 353 367t224 157q71 0 118.5 -55t47.5 -119q0 -81 -94 -198t-225 -205t-228 -93q167 -104 340.5 -164.5t292.5 -60.5q71 0 110.5 24t39.5 70zM463 510q70 7 152 57.5t143 113t102 120.5t41 84q0 12 -12 12
q-29 0 -155.5 -115.5t-270.5 -271.5z" />
    <glyph glyph-name="l_numbersign.liga" unicode="l&#x23;" horiz-adv-x="1087" 
d="M899 578q-20 20 -20 32q0 11 18 11q30 0 72.5 -21t80 -66t37.5 -98q0 -61 -48 -139t-130.5 -153.5t-182 -139.5t-213.5 -103.5t-214 -39.5q-131 0 -225 94.5t-94 237.5q0 72 104 279.5t237.5 426t256 402.5t161.5 223q12 12 37 12q45 0 99.5 -35t54.5 -67q0 -7 -8 -19
q-66 -65 -185.5 -235.5t-241 -371t-211 -403.5t-89.5 -311q0 -112 98 -112q79 0 190 61t206 145.5t162 176t67 149.5q0 42 -19 64z" />
    <glyph glyph-name="m_numbersign.liga" unicode="m&#x23;" horiz-adv-x="2308" 
d="M2066 332q110 0 176 -74t66 -170q0 -32 -16.5 -55t-30.5 -23q-8 0 -8 13q0 96 -162 96q-111 0 -305.5 -45.5t-367.5 -91t-232 -45.5q-64 0 -117 31.5t-76 84.5l-16 66q-1 73 55.5 202.5t124 242.5t124 211t56.5 116q0 6 -4 6q-36 0 -202 -172.5t-331 -381.5t-194 -294
q-4 -7 -6 -18.5t-4 -16.5t-12.5 -9.5t-30.5 -4.5q-52 0 -102 27.5t-50 72.5q0 37 68 161t149.5 252.5t149.5 243t68 134.5q0 6 -5 6q-35 0 -203 -173.5t-334 -383t-192 -293.5q-2 -5 -4 -14.5t-3.5 -13t-4.5 -9t-8 -7.5t-13.5 -3.5t-21.5 -1.5q-52 0 -100.5 27.5t-48.5 74.5
q0 46 127.5 269t256.5 424.5t146 218.5q12 12 37 12q45 0 98 -35t53 -67l-30 -42q-29 -42 -87 -129.5t-114 -179.5q164 191 302.5 322t189.5 131q66 0 126 -51t60 -103q0 -47 -96 -208q139 156 253.5 258t159.5 102q65 0 125 -50.5t60 -103.5q0 -36 -55 -140.5
t-120.5 -213.5t-120.5 -223.5t-55 -167.5q0 -51 50 -51q53 0 162.5 40.5t216.5 89.5t228 89.5t195 40.5z" />
    <glyph glyph-name="n_numbersign.liga" unicode="n&#x23;" horiz-adv-x="1847" 
d="M1606 332q109 0 175 -74t66 -170q0 -32 -16.5 -55t-30.5 -23q-8 0 -8 13q0 96 -164 96q-110 0 -304 -45t-366.5 -90t-232.5 -45q-81 0 -145 49t-64 131q0 73 56.5 202.5t124 243t124 211.5t56.5 115q0 6 -5 6q-28 0 -147 -110.5t-251 -253.5t-244.5 -288t-129.5 -204
q-1 -4 -3 -11.5t-2.5 -10t-3 -7.5t-5.5 -6.5t-8.5 -4t-13 -3t-17.5 -0.5q-52 0 -100.5 27.5t-48.5 74.5q0 46 127.5 269t256.5 424.5t146 218.5q12 12 37 12q45 0 98 -35t53 -67q0 3 -36 -48.5t-104 -156.5t-134 -217q183 210 351.5 367t224.5 157q66 0 126 -51t60 -103
q0 -36 -54.5 -140.5t-120.5 -213.5t-120.5 -223.5t-54.5 -167.5q0 -51 49 -51q53 0 162.5 40.5t216.5 88.5t228.5 88.5t195.5 40.5z" />
    <glyph glyph-name="o_numbersign.liga" unicode="o&#x23;" horiz-adv-x="1716" 
d="M1454 608q119 0 190.5 -68t71.5 -194q0 -32 -16.5 -55t-30.5 -23q-8 0 -8 13q0 133 -334 133q-165 0 -555 -47q-108 -159 -232 -263t-239 -104q-93 0 -171.5 77t-78.5 185q0 88 57 220.5t131.5 244.5t146 193t99.5 81q38 0 82 -28q84 51 146 51q112 0 177.5 -76.5
t65.5 -173.5q0 -94 -106 -285q36 9 125.5 31.5t137.5 33.5t118.5 26t124.5 21.5t98 6.5zM242 166q0 -72 55 -72q44 0 118.5 69.5t159.5 180.5q-16 -2 -43 -2q-155 0 -217 76q-73 -162 -73 -252zM412 522q0 -47 28 -66.5t90 -19.5q46 0 119 13q82 123 134.5 236t52.5 177
q0 66 -56 66q-55 0 -142 -65t-156.5 -163t-69.5 -178z" />
    <glyph glyph-name="p_numbersign.liga" unicode="p&#x23;" horiz-adv-x="1533" 
d="M1272 459q119 0 190.5 -68t71.5 -194q0 -32 -16.5 -55t-30.5 -23q-8 0 -8 12q0 133 -332 133q-145 0 -440 -33q-81 -105 -166 -168t-158 -63q-89 0 -161 41t-103 94q-287 -513 -287 -622q0 -12 -14.5 -19.5t-36.5 -7.5q-52 0 -101 27.5t-49 74.5q0 57 190.5 402.5
t387 670t223.5 351.5q12 12 37 12q45 0 98.5 -35t53.5 -67q0 -5 -16.5 -27t-49 -63.5t-57.5 -77.5q219 270 313 270q89 0 139.5 -51t50.5 -142q0 -61 -50 -183t-128 -251q312 62 449 62zM207 250q0 -44 19 -83.5t50 -39.5q46 0 121 68q-10 0 -26 -1t-21 -1q-99 0 -143 57z
M266 334q24 -8 74 -8q78 0 186 18q100 133 176 283t76 219q0 43 -30 43q-65 0 -482 -555z" />
    <glyph glyph-name="q_numbersign.liga" unicode="q&#x23;" horiz-adv-x="956" 
d="M1022 -47q119 0 190.5 -68t71.5 -194q0 -32 -16.5 -55t-30.5 -23q-8 0 -8 12q0 180 -754 180q-110 -222 -110 -292q0 -12 -15 -19.5t-37 -7.5q-52 0 -100.5 27.5t-48.5 74.5q0 37 88 213q-89 -2 -220 -7t-161 -5q-33 0 -54.5 23.5t-21.5 46.5q0 20 19 20q33 0 497 33
q66 121 226 403q-242 -315 -349 -315q-90 0 -140 50.5t-50 142.5q0 53 38 154t104 216t143.5 219t166.5 173t164 69q90 0 163 -42t104 -95q73 117 85 129q12 8 33 8q45 0 99.5 -35t54.5 -67q0 -11 -8 -19q-74 -74 -264.5 -380.5t-341.5 -592.5q345 23 483 23zM219 176
q0 -41 31 -41q21 0 71 47.5t124 137.5t126.5 157t132.5 173t89 118q0 45 -19.5 86t-52.5 41q-55 0 -143 -90t-166 -209t-135.5 -240.5t-57.5 -179.5z" />
    <glyph glyph-name="r_numbersign.liga" unicode="r&#x23;" horiz-adv-x="1619" 
d="M1378 332q109 0 175.5 -73.5t66.5 -168.5q0 -32 -16.5 -55t-30.5 -23q-8 0 -8 13q0 96 -162 96q-111 0 -305.5 -45.5t-367.5 -91t-232 -45.5q5 0 -1 -2q-16 -3 -24 4q-72 -2 -128 55t-56 135q0 82 59.5 212t131 239.5t131 205.5t59.5 119q0 11 -8 11q-29 0 -85.5 -3.5
t-66.5 -3.5q-74 -107 -160.5 -221.5t-142 -181t-60.5 -66.5q-13 0 -29 14t-16 25q0 -3 49 60t127 170t138 198q-82 0 -128 21.5t-46 77.5q0 54 49.5 125t110.5 119t96 48q60 0 107.5 -36t47.5 -80t-73 -164q70 4 114 4q76 0 130.5 -48.5t54.5 -105.5q0 -39 -55 -144
t-121.5 -213.5t-121.5 -222t-55 -165.5q0 -51 49 -51q53 0 162.5 40.5t216.5 88.5t228.5 88.5t195.5 40.5zM442 1036q0 -15 43 -18q70 117 70 160q0 8 -6 8q-15 0 -61 -63.5t-46 -86.5z" />
    <glyph glyph-name="s_numbersign.liga" unicode="s&#x23;" horiz-adv-x="1458" 
d="M1196 539q119 0 190.5 -68.5t71.5 -194.5q0 -32 -16.5 -54.5t-30.5 -22.5q-8 0 -8 12q0 147 -418 147q-155 0 -305 -12q-67 -346 -295 -346q-67 0 -122.5 41.5t-87.5 101t-54.5 128t-30.5 117.5t-8 75q0 20 17.5 36.5t31.5 16.5h4l445 438q73 70 153 70q48 0 76.5 -26.5
t28.5 -55.5q0 -12 -8 -20.5t-21 -8.5q-42 0 -71 -52.5t-29 -117.5q0 -154 -11 -276q374 72 498 72zM154 438q19 -19 43 -27t71 -8q64 0 201 21q27 164 27 326l2 22v10zM203 315q34 -78 72.5 -131t70.5 -53q57 0 103 195q-124 -13 -175 -13t-71 2z" />
    <glyph glyph-name="s_r.liga" unicode="sr" horiz-adv-x="1533" 
d="M1645 487q5 5 10 5q13 0 28 -13t15 -24q0 -7 -2 -9q-3 -3 -66 -82.5t-128.5 -155t-153 -142t-150.5 -66.5q-79 0 -124.5 51t-45.5 142q0 53 39 139t95 174.5t111.5 171.5t94.5 146.5t39 82.5q0 11 -10 11q-15 0 -113 -5q-64 -122 -145 -248t-173 -243t-188 -196t-170 -89
q-79 -137 -223 -137q-67 0 -122.5 41.5t-87.5 101t-54.5 128t-30.5 117.5t-8 75q0 20 17.5 36.5t31.5 16.5h4l445 438q73 70 153 70q48 0 76.5 -26.5t28.5 -55.5q0 -12 -8 -20.5t-21 -8.5q-42 0 -71 -52.5t-29 -117.5q0 -303 -43 -464q81 39 180 148.5t178.5 230.5
t149.5 251q-46 0 -77.5 3.5t-61 13t-44 30t-14.5 52.5q0 54 49.5 125t110.5 119t96 48q60 0 108 -36t48 -80q0 -45 -52 -162q14 0 45 1t48 1q76 0 130 -48.5t54 -105.5q0 -42 -55.5 -149.5t-121.5 -215.5t-121.5 -211.5t-55.5 -137.5q0 -21 18 -21q26 0 108 79t169.5 175
t89.5 98zM154 438q21 -64 51.5 -131t70 -121.5t70.5 -54.5q42 0 78 106t55 255t19 290zM1178 1036q0 -18 53 -18q59 128 59 160q0 8 -6 8q-15 0 -60.5 -63.5t-45.5 -86.5z" />
    <glyph glyph-name="t_h.liga" unicode="th" horiz-adv-x="1511" 
d="M1851 1253q29 0 29 -32q0 -33 -24 -69t-50 -36q-292 0 -581 -2q-247 -357 -426 -657q188 219 371.5 393t242.5 174q66 0 125 -50.5t59 -103.5q0 -38 -55 -144.5t-121 -214.5t-121 -213.5t-55 -141.5q0 -21 19 -21t77 52t114 112t113.5 123t61.5 67q5 5 10 5
q13 0 29.5 -14t16.5 -25q0 -6 -3 -9t-66.5 -82.5t-129 -155t-153 -142t-150.5 -66.5q-76 0 -123 52t-47 141q0 66 56 182.5t123 219.5t123 191.5t56 104.5q0 6 -4 6q-28 0 -153.5 -118t-263 -267.5t-247.5 -294t-110 -190.5q3 -27 -51 -27q-52 0 -101 27.5t-49 72.5
q0 20 21 66q-162 -166 -264 -166q-76 0 -123 54.5t-47 138.5q0 89 141 347.5t338 567.5q-21 0 -43.5 -0.5t-38 -1t-32 -0.5h-27t-20.5 0.5t-16 2t-11 4.5t-7 7t-2 10v1q0 36 21.5 42.5t151.5 11.5q47 2 75 3q145 224 191.5 286t74.5 62q45 0 99.5 -35t54.5 -67
q0 -5 -23.5 -35t-67 -87.5t-79.5 -111.5q53 3 156 9t145 8q163 244 194 280q33 39 56 39q45 0 99 -35t54 -67q0 -6 -20.5 -32t-62.5 -77.5t-74 -95.5q107 5 247 11.5t211 9.5t86 3zM207 166q0 -31 22 -31q15 0 51.5 28.5t86.5 79.5t87.5 90.5t86 92.5t49.5 55
q183 299 401 631q-100 -2 -291 -2q-185 -284 -339 -570.5t-154 -373.5z" />
    <glyph glyph-name="t_i.liga" unicode="ti" horiz-adv-x="937" 
d="M1217 1315q49 0 49 -43q0 -50 -58.5 -113t-117.5 -63q-22 0 -79.5 4t-153 11.5t-165.5 12.5q-115 -169 -217.5 -349.5t-178 -366t-75.5 -293.5q0 -138 123 -138q23 0 23 -12q0 -14 -35 -31.5t-78 -17.5q-34 0 -66 6.5t-67 25t-61 47.5t-43 78.5t-17 112.5q0 79 78 251.5
t176 342t219 361.5q-19 1 -54 1t-59.5 0.5t-50.5 2.5t-39.5 8t-13.5 16q0 36 25 45.5t119 16.5q26 2 41.5 3t43.5 3.5t54 5.5q120 188 161 240.5t68 52.5q45 0 99.5 -35t54.5 -67q0 -7 -19 -30t-52.5 -62t-55.5 -70q365 43 422 43zM432 193q0 62 62.5 195t142.5 264
t149.5 235t90.5 125q12 12 36 12q45 0 98.5 -35t53.5 -67q0 -11 -8 -19q-44 -44 -138 -200t-173.5 -321.5t-79.5 -221.5q0 -25 16 -25q26 0 108.5 79t170.5 175t90 98q5 5 10 5q14 0 29.5 -12.5t15.5 -24.5q0 1 -11 -14t-30.5 -41t-45.5 -60t-58.5 -72t-67.5 -76t-73 -72.5
t-74.5 -61t-73.5 -42.5t-68 -16q-77 0 -124.5 54.5t-47.5 138.5z" />
    <glyph glyph-name="t_numbersign.liga" unicode="t&#x23;" horiz-adv-x="1290" 
d="M1049 332q112 0 176.5 -72.5t64.5 -169.5q0 -32 -16.5 -55t-30.5 -23q-8 0 -8 13q0 96 -162 96q-111 0 -305.5 -45.5t-367.5 -91t-232 -45.5q-85 0 -147 53.5t-62 138.5q0 99 145.5 375t346.5 600q-21 0 -58.5 -1t-55.5 -0.5t-39.5 2t-30.5 7.5t-9 16q0 15 3.5 24.5
t13.5 15.5t21 9t34 4.5t45 2.5t60 3t73 5q131 206 182 274t80 68q45 0 99.5 -35t54.5 -67q0 -5 -20.5 -31.5t-62 -81.5t-77.5 -107q237 19 270 19q29 0 29 -33q0 -31 -24 -66.5t-50 -35.5l-301 4q-192 -291 -341.5 -572.5t-149.5 -396.5q0 -59 49 -59q52 0 161.5 40.5
t217 88.5t229 88.5t195.5 40.5z" />
    <glyph glyph-name="t_t.liga" unicode="tt" horiz-adv-x="911" 
d="M1518 1233q28 0 28 -33q0 -32 -24 -68t-49 -36l-314 4q-114 -172 -211.5 -346t-170 -354t-72.5 -285q0 -138 122 -138q25 0 25 -12q0 -15 -34.5 -32t-78.5 -17q-34 0 -66.5 6.5t-68 25t-61.5 47.5t-43 78.5t-17 112.5q0 20 11 66q-217 -252 -344 -252q-76 0 -123 54.5
t-47 138.5q0 89 140.5 347.5t336.5 565.5q-26 0 -69 -1q-74 -1 -100 3t-26 22q0 26 10 35.5t40.5 13t110.5 6.5q17 0 27 0.5t27 1t33 1.5q136 213 187 280.5t79 67.5q45 0 99.5 -35t54.5 -67q0 -4 -23.5 -34.5t-67 -88.5t-79.5 -111q76 2 241 10q131 205 177 265.5t73 60.5
q45 0 99.5 -35t54.5 -67q0 -7 -24.5 -36.5t-66.5 -81t-71 -95.5q212 12 275 12zM207 166q0 -31 22 -31q47 0 324 306q3 3 4.5 5t4.5 5t5 5.5t4 4.5q111 244 361 641q-40 0 -119 1t-117 1q-184 -284 -336.5 -567.5t-152.5 -370.5z" />
    <glyph glyph-name="u_numbersign.liga" unicode="u&#x23;" horiz-adv-x="1822" 
d="M1581 332q109 0 175.5 -73.5t66.5 -168.5q0 -32 -16.5 -55t-30.5 -23q-9 0 -9 13q0 96 -161 96q-111 0 -305.5 -45.5t-368 -91t-232.5 -45.5q-85 0 -146.5 53.5t-61.5 138.5q0 68 53 193q-264 -324 -385 -324q-76 0 -123 54.5t-47 138.5q0 62 62 195t142 264t149.5 235
t90.5 125q12 12 35 12q45 0 99.5 -35t54.5 -67q0 -10 -9 -19q-44 -44 -138 -200t-173.5 -321.5t-79.5 -221.5q0 -25 17 -25q89 0 579 694q91 137 112 160q30 35 56 35q45 0 98.5 -35t53.5 -67q0 -10 -9 -19q-27 -27 -91.5 -125t-134 -217.5t-122.5 -242.5t-53 -185
q0 -59 49 -59q52 0 161.5 40.5t217 88.5t229 88.5t195.5 40.5z" />
    <glyph glyph-name="v_numbersign.liga" unicode="v&#x23;" horiz-adv-x="925" 
d="M2540 877q-62 -21 -201.5 -37t-335.5 -23t-455.5 14t-505.5 72q7 -21 7 -39q0 -47 -58 -150t-153.5 -223t-204 -231t-224 -184.5t-198.5 -73.5q-92 0 -151.5 51.5t-59.5 141.5q0 82 85 263.5t185 341.5t154 214q12 12 35 12q43 0 98 -36t55 -66q0 5 -38.5 -52.5
t-93.5 -150t-110 -193.5t-93.5 -197.5t-38.5 -146.5q0 -47 36 -47q64 0 202.5 169t256.5 375.5t133 309.5q-6 22 0 38t21 13q286 -56 538.5 -71t441.5 9.5t328.5 72.5t233.5 118q32 24 75.5 -48t54.5 -147.5t-19 -98.5z" />
    <glyph glyph-name="w_numbersign.liga" unicode="w&#x23;" horiz-adv-x="1454" 
d="M3058 897q-62 -21 -201 -37t-334.5 -23t-453.5 14t-504 71q12 -27 12 -60q0 -39 -42 -118.5t-110 -175t-157.5 -196.5t-180.5 -183.5t-184.5 -135.5t-163.5 -53q-92 0 -151.5 52t-59.5 141q0 60 41 163q-280 -356 -409 -356q-76 0 -123 54.5t-47 138.5q0 81 102.5 276.5
t207 354.5t134.5 188q12 12 35 12q45 0 99.5 -35t54.5 -67q0 -10 -9 -19q-44 -44 -138 -200t-173.5 -321.5t-79.5 -221.5q0 -25 17 -25q92 0 569 682q8 12 23 35q32 49 48 72t38 51t38.5 38.5t32.5 10.5q45 0 98.5 -35t53.5 -67q0 -11 -8 -19q-43 -43 -130 -184.5t-162 -303
t-75 -233.5q0 -47 37 -47q63 0 201 168.5t256.5 374.5t134.5 309q-10 18 -12.5 37t3.5 30.5t19 8.5q286 -56 538.5 -71t441.5 9.5t328.5 72.5t233.5 118q32 24 75.5 -48t54.5 -148t-19 -99z" />
    <glyph glyph-name="x_numbersign.liga" unicode="x&#x23;" horiz-adv-x="921" 
d="M1401 1384q67 0 113.5 -39t46.5 -71q0 -21 -23 -21q-38 0 -191.5 -115t-370 -315t-392.5 -399q0 -139 11.5 -214t43.5 -75t96.5 52.5t120 111.5t113 123.5t59.5 66.5q5 5 10 5q12 0 27.5 -13.5t15.5 -25.5q0 1 -10.5 -14t-30 -41t-45.5 -60t-58.5 -72t-67 -76
t-72.5 -72.5t-74 -61t-73 -42.5t-68 -16q-145 0 -191 197q-184 -228 -306 -413t-128 -237q-3 -16 -20 -16q-23 0 -45 16.5t-19 42.5q6 53 149 265.5t351 466.5q-6 58 -6 122q0 113 16 289q-236 -313 -252 -313q-13 0 -29 14t-16 25q0 -2 45.5 55t118.5 151.5t143 186.5
q4 58 4 76q0 41 54 68.5t110 27.5q53 0 53 -27q0 -25 -4 -89t-10.5 -158t-9.5 -168q154 169 262.5 285t236.5 248t207 200.5t105 68.5z" />
    <glyph glyph-name="y_numbersign.liga" unicode="y&#x23;" horiz-adv-x="1554" 
d="M1313 453q111 0 176 -64.5t65 -157.5q0 -32 -16.5 -54.5t-30.5 -22.5q-8 0 -8 12q0 90 -131 90q-197 0 -745 -221q-72 -120 -140 -211.5t-148.5 -171t-170 -122t-182.5 -42.5q-95 0 -166.5 55t-87.5 125q-59 -16 -82 -16q-33 0 -54.5 23t-21.5 46q0 21 18 21
q33 0 78.5 11t119 40.5t124.5 50.5t158.5 73t153.5 75t173 86q77 129 146 258q-270 -338 -396 -338q-76 0 -123 54t-47 138q0 62 62.5 196t142 265t150 235t90.5 124q12 12 35 12q45 0 99 -35t54 -67q0 -11 -8 -19q-44 -44 -138 -200t-173.5 -321.5t-79.5 -221.5
q0 -25 16 -25q20 0 59 33t93.5 97t106 129t120 158t111.5 153t102 143q29 48 43 69.5t36.5 52.5t40 43.5t34.5 12.5q45 0 99 -35t54 -67q0 -11 -8 -19q-39 -39 -88 -116t-85 -144.5t-102.5 -197t-101.5 -195.5q427 203 574 203zM-182 -299q24 -34 57.5 -56t69.5 -22
q137 0 327 266q-329 -142 -454 -188z" />
    <glyph glyph-name="y_r.liga" unicode="yr" horiz-adv-x="1771" 
d="M1880 487q5 5 10 5q14 0 29.5 -12.5t15.5 -24.5q0 -5 -4 -9q-6 -6 -46.5 -59t-92.5 -114t-113.5 -125t-127.5 -106t-117 -42q-79 0 -124.5 51t-45.5 142q0 53 39 139t94.5 174.5t111 171.5t94.5 146.5t39 82.5q0 11 -10 11q-14 0 -112 -5q-117 -178 -340.5 -388.5
t-487.5 -401.5q-60 -108 -115.5 -194.5t-125 -171.5t-137.5 -142t-149 -92t-163 -35q-95 0 -165 53.5t-89 124.5q-70 4 -103.5 50t-33.5 96q0 41 16 41q6 0 11 -5q38 -38 118 -38q108 0 278.5 66t368.5 181q67 111 158 279q-270 -338 -395 -338q-76 0 -123 54t-47 138
q0 80 102.5 275.5t206.5 354.5t135 190q12 12 35 12q45 0 99.5 -35t54.5 -67q0 -11 -8 -19q-44 -44 -138.5 -200t-174 -321.5t-79.5 -221.5q0 -25 17 -25q20 0 59 33t93.5 97t106 129t120 158t111.5 153t102 143q28 46 42 68.5t36 53t40 43.5t35 13q45 0 99.5 -35t54.5 -67
q0 -11 -8 -19q-29 -29 -59 -70t-71.5 -114.5t-62 -111.5t-77.5 -150.5t-72 -141.5q200 146 364.5 300.5t259.5 293.5q-39 0 -66 1.5t-55.5 7.5t-45 16.5t-27.5 29t-11 44.5q0 54 49 125t110 119t97 48q59 0 107.5 -36t48.5 -80q0 -70 -45 -162q13 0 41 1t43 1
q76 0 130 -48.5t54 -105.5q0 -42 -55.5 -149.5t-121.5 -215.5t-121.5 -211.5t-55.5 -137.5q0 -21 18 -21q26 0 108 79t169.5 175t89.5 98zM-143 -322q51 -55 108 -55q126 0 297 223q-240 -131 -405 -168zM1415 1036q0 -11 16 -14.5t52 -3.5q45 88 45 160q0 8 -6 8
q-15 0 -61 -63.5t-46 -86.5z" />
    <glyph glyph-name="z_numbersign.liga" unicode="z&#x23;" horiz-adv-x="952" 
d="M944 -27q138 0 227 -86.5t89 -216.5q0 -32 -17 -55t-31 -23q-8 0 -8 13q0 46 -29 77.5t-85 48.5t-124.5 24t-160.5 7q-117 0 -277 -10q-209 -264 -465 -264q-108 0 -183 68t-75 145q0 21 2 31q-124 10 -206 48t-82 101q0 35 16 35q6 0 12 -6q68 -68 265 -68q161 0 575 66
q90 132 217 368q-121 -88 -192 -88q-56 0 -107 50.5t-51 105.5q0 35 48.5 92t121.5 116.5t158.5 123.5t158.5 115.5t121.5 90.5t48.5 50q0 6 -10 6q-22 0 -103.5 -22t-192 -54.5t-156.5 -44.5q-303 -399 -318 -399q-12 0 -28.5 13.5t-16.5 23.5q0 1 38.5 49.5t109.5 139
t131 169.5q-21 13 -33.5 48t-12.5 73t13.5 64t38.5 26h651q31 0 60.5 -29.5t29.5 -58.5q0 -39 -71.5 -111t-173 -149.5t-203 -151t-173 -128t-71.5 -66.5q0 -4 8 -4q20 0 141 56t146 56q42 0 95.5 -54t53.5 -99q0 -19 -10 -29q-20 -20 -44.5 -56t-43 -68.5t-51.5 -90.5
t-53 -92q178 24 282 24zM-117 -274q21 -40 61.5 -71.5t82.5 -31.5q103 0 217 111q-157 -10 -271 -10q-61 0 -90 2z" />
    <glyph glyph-name="z_r.liga" unicode="zr" horiz-adv-x="1765" 
d="M1874 487q5 5 10 5q13 0 29 -13t16 -24q0 -7 -2 -9q-6 -6 -47 -59t-93 -114t-114 -125t-128.5 -106t-117.5 -42q-79 0 -124.5 51t-45.5 142q0 53 39 139t95.5 174.5t112.5 171.5t95 146.5t39 82.5q0 11 -10 11q-18 0 -106 -5q-105 -169 -304 -368t-438 -383
q-19 -32 -54 -93.5t-61.5 -108.5t-68.5 -110.5t-80 -110.5t-90.5 -97t-105.5 -81.5t-120 -52t-139 -20.5q-95 0 -166.5 53.5t-89.5 124.5q-47 4 -79 29.5t-43 55t-11 59.5q0 43 17 43l10 -5q38 -38 117 -38q114 0 294.5 76.5t389.5 207.5l102 182q-40 -28 -64 -43.5
t-60.5 -30t-67.5 -14.5q-57 0 -108.5 50t-51.5 106q0 42 67.5 113.5t164 145.5t193.5 144t164.5 121.5t67.5 63.5q0 6 -8 6q-22 0 -103.5 -22t-192.5 -54.5t-157 -44.5q-303 -399 -317 -399q-13 0 -29 14t-16 25q0 1 38.5 49.5t109.5 139.5t130 167q-21 13 -34 49t-13 74
t13.5 63t38.5 25h651q32 0 62 -29t30 -59q0 -39 -71.5 -111t-173 -149.5t-203 -151t-173 -128t-71.5 -66.5q0 -4 8 -4q19 0 139.5 56t147.5 56q31 0 70.5 -31.5t62.5 -70.5q183 142 332.5 291t238.5 282q-40 0 -67 1.5t-56.5 7.5t-46.5 16.5t-28 29t-11 44.5q0 54 49.5 125
t110.5 119t96 48q59 0 107.5 -36t48.5 -80q0 -72 -41 -162q12 0 38.5 1t41.5 1q76 0 130 -48.5t54 -105.5q0 -42 -55.5 -149.5t-121.5 -215.5t-121.5 -211.5t-55.5 -137.5q0 -21 18 -21q26 0 108 79t169.5 175t89.5 98zM-84 -324q50 -53 109 -53q152 0 335 250
q-272 -159 -444 -197zM1409 1036q0 -18 70 -18q43 85 43 160q0 8 -6 8q-15 0 -61 -63.5t-46 -86.5z" />
    <glyph glyph-name="underscore_underscore.liga" unicode="__" 
d="M1130 -205q32 -17 33.5 -61t-20.5 -90t-55 -88.5t-71.5 -58t-68.5 2.5q-113 78 -320 135.5t-478 81.5t-566.5 15.5t-613.5 -66.5t-590 -160q-33 -13 -39 13q-6 31 33 67q22 21 53 35q247 107 589 175t671.5 88t635.5 15t520.5 -34.5t286.5 -69.5z" />
    <glyph glyph-name="underscore_underscore_underscore.liga" unicode="___" 
d="M-1665 -188q100 17 286 32t464 23t576.5 3.5t649 -32t656.5 -78.5q54 -9 48 -48q-5 -34 -41 -56q-22 -13 -42 -10q-424 56 -830.5 71t-743.5 -9.5t-613.5 -72.5t-495.5 -118q-68 -22 -79 38t34 142q48 89 114 111q9 3 17 4z" />
    <glyph glyph-name="underscore_underscore_underscore_underscore.liga" unicode="____" 
d="M-2075 -188q124 21 531 38t931.5 22t1122.5 -23t1010 -91q50 -7 49 -42q-2 -32 -37 -56q-24 -17 -47 -14q-459 56 -1025.5 70.5t-1068 -8.5t-922.5 -73.5t-630 -117.5q-68 -22 -79 38t34 142q48 89 114 111q9 3 17 4z" />
    <glyph glyph-name="underscore_underscore_underscore_underscore_underscore.liga" unicode="_____" 
d="M-2689 -188q121 20 787 37.5t1495 22.5t1684.5 -23t1266.5 -91q50 -7 49 -42q-2 -32 -37 -56q-24 -17 -47 -14q-457 56 -1282 70t-1630 -8t-1486.5 -74t-885.5 -117q-68 -22 -79 38t34 142q48 89 114 111q9 3 17 4z" />
    <glyph glyph-name="uni005F005F005F005F005F005F" unicode="______" 
d="M911 -188q55 -11 35 -91q-20 -77 -84 -147q-72 -78 -127 -59l-6 2q-155 70 -387.5 118t-547 72.5t-734.5 9.5t-895 -71q-34 -4 -38 24q-5 32 33 61q29 23 73 29q353 51 728.5 78.5t678 32t573 -3.5t442 -23t256.5 -32z" />
    <glyph glyph-name="uni005F005F005F005F005F005F005F" unicode="_______" 
d="M2640 -188q69 -10 51 -81q-18 -68 -96 -138q-91 -83 -171 -81q-18 0 -34 5q-199 66 -834 117.5t-1423.5 74t-1673.5 8t-1529 -70.5q-47 -4 -52 24q-6 29 37 57q42 26 107 33q480 50 1196 78t1418.5 32t1356.5 -3.5t1096 -23t551 -31.5z" />
    <glyph glyph-name="uni005F005F005F005F005F005F005F005F" unicode="________" 
d="M3916 -188q82 -8 78 -59q-4 -55 -95 -126q-108 -85 -229 -109q-64 -13 -115 -1q-288 66 -1206.5 117.5t-2060.5 74t-2423.5 8t-2214.5 -70.5q-67 -4 -75 23q-7 26 45 53q61 31 165 38q694 50 1730.5 78t2053 32t1963.5 -3.5t1586.5 -23t797.5 -31.5z" />
    <glyph glyph-name="uni338E338E338E338E338E338E338E338E338E338E.liga" unicode="&#x30;&#x30;&#x30;&#x30;&#x30;&#x30;&#x30;&#x30;&#x30;&#x30;" horiz-adv-x="4741" 
d="M2408 1174q-78 0 -90 75q-4 23 -4 64q0 8 -0.5 39.5t0 46t2.5 37t6 37.5q11 59 82 63q81 0 99 -51q6 -16 9 -38t3 -39t-1 -44t-1 -37q0 -59 -6 -82q-14 -71 -99 -71zM264 -23l6 443h72l53 -279l51 279h76l2 -443h-63l-6 183l-31 -183h-53l-37 181l-4 -181h-66zM582 -23
v443h55l76 -213v213h69v-443h-53l-78 216v-216h-69zM834 -23v80h75v-80h-75zM936 133l70 2q0 -53 16 -78q13 -21 29 -14q18 6 18 37q0 20 -10 38t-33.5 43.5t-26.5 28.5q-5 6 -15 15t-16.5 16.5t-9.5 14.5q-27 50 -16 102q1 49 46 74.5t91 3.5q58 -28 58 -142l-68 -4
q-1 6 -3 32.5t-7.5 39t-18.5 14.5q-23 1 -30.5 -21.5t0.5 -33.5q4 -12 10 -20.5t18.5 -19.5t14.5 -13l34 -41q61 -61 52 -146q-2 -31 -22.5 -56t-55.5 -34q-33 -5 -63.5 9.5t-43.5 44.5q-18 49 -18 108zM1174 199q0 11 -1 40t-0.5 50t3.5 39q11 71 63 92q60 15 100 -10
q22 -13 33 -39.5t12.5 -45.5t1.5 -51v-10h-71q0 55 -4.5 70.5t-18.5 21.5q-41 5 -41 -59v-162q0 -3 -1 -17t-0.5 -23.5t2.5 -21.5t8 -20t16 -10q16 -6 26.5 1t14 27.5t4 31.5t0.5 31v7h-45v66h115v-230h-58l-4 15q-20 -20 -52.5 -21t-55.5 15q-36 16 -45 90q-3 19 -3.5 39
t0.5 46.5t1 37.5zM1368 -375q0 27 16 43t46 10q17 0 25.5 -10t9.5 -19.5t1 -29.5h-22q0 28 -2 33q-6 12 -20 12.5t-21 -8.5q-3 -5 -5 -15t-2 -18t0.5 -20.5t0.5 -14.5l-1 -12q0 -12 0.5 -19t2.5 -16.5t6 -15.5q6 -9 19.5 -7.5t19.5 13.5q2 5 2 33h22q0 -68 -43 -68
q-16 0 -27.5 7t-17 15.5t-8.5 25t-3 26.5t0.5 30t0.5 25zM1405 -80l119 557h69l-125 -557h-63zM1487 -408q0 19 0.5 29t3 24.5t7.5 20.5t15 10t25 2q15 0 25 -5.5t15 -12t8 -20t3 -21.5v-24v-7v-7q0 -19 -1 -29.5t-5 -26t-15.5 -22.5t-29.5 -7q-12 0 -21.5 3t-14.5 10
t-8.5 12.5t-5 17.5t-2 17t0 19.5t0.5 16.5zM1491 1178v356h76q68 0 88 -39q19 -31 14.5 -72.5t-33.5 -62.5q-6 -6 -14 -10t-14 -6.5t-18.5 -3.5t-17 -1h-18.5h-16v-161h-47zM1493 903v221h45v-239q0 -70 31 -86q36 -11 51.5 15t15.5 65v114v131h50v-161q0 -8 1 -34
t0.5 -40.5t-3 -37.5t-9 -37.5t-19 -28t-30.5 -19.5q-32 -16 -71 -1.5t-52 50.5q-10 25 -10 88zM1509 -395q0 -1 -0.5 -14t0 -21.5t1.5 -20t4.5 -19t9.5 -9.5q7 -4 13 -5t10 1t7 5t4.5 9.5t2.5 11t1.5 13t0.5 12v11.5v3q0 71 -15 76q-17 8 -28 -1t-11 -26v-26zM1538 1376
q40 0 55 4q29 7 29 54q0 55 -29 61q-10 3 -19.5 3.5t-20.5 -0.5t-15 -1v-121zM1554 -272v182h72v-19h-43v-63h35v-16h-35v-84h-29zM1610 131l69 2q0 -51 15 -78q4 -22 26 -16q17 4 17 37q0 17 -8.5 35t-15 26.5t-25.5 27.5l-21 21q-6 10 -19.5 24.5t-15.5 20.5
q-30 37 -22 105q3 49 48.5 74t90.5 4q59 -26 59 -142l-71 -4v5q0 75 -27 81q-21 1 -27.5 -21t0.5 -36q7 -21 37 -51l37 -39q61 -68 53 -148q-2 -32 -22.5 -57.5t-54.5 -34.5q-33 -3 -64 11t-45 45q-14 33 -14 108zM1614 -502v180h26l37 -143l27 143h25l4 -180h-19v133
l-28 -133h-21l-31 133v-133h-20zM1640 -176q0 17 0.5 26.5t3.5 23.5t9 21.5t17.5 13t27.5 5.5q16 -3 26 -12t14 -24.5t4.5 -25.5t0.5 -29v-7q0 -20 -1 -31t-5 -26.5t-15 -23t-28 -7.5q-16 0 -27.5 7t-16.5 14t-7.5 24.5t-2.5 23.5v27zM1667 -172q0 -1 -1 -17.5t-1 -27.5
t5 -23.5t16 -15.5q12 -3 19 2t9.5 18.5t3 21.5t0.5 24q0 2 0.5 13.5t0.5 20t-1 19t-4.5 17.5t-9.5 9q-13 9 -25 -2t-12 -30v-29zM1704 1178v356h135v-37h-86v-121h72v-37h-72v-131h90v-30h-139zM1724 864l52 15q5 -55 14 -64q12 -12 28 -14t27 10q16 11 16 33t-12 37
q-2 2 -9 12.5t-14 17.5t-16 11q-1 1 -30 26t-39 41q-22 33 -11 77.5t52 57.5q43 10 86 -14q33 -24 33 -76l-41 -16q-4 58 -37 63q-18 7 -30.5 -1t-14.5 -23q-6 -8 -3 -18.5t4.5 -16t9.5 -14.5t13 -13.5t15 -13t14 -12.5q2 -2 16 -13t17.5 -14.5l13.5 -13.5t14 -17t8 -18
t5 -23q8 -43 -15.5 -75.5t-66.5 -32.5t-69.5 29t-29.5 73zM1763 -502v180h27l33 -143l28 143h23l8 -180h-18l-4 133l-29 -133h-21l-24 133l-4 -133h-19zM1769 -272v182q4 0 16 0.5t18.5 0.5t16.5 -2t17 -5q21 -11 22 -45t-22 -43l27 -88h-27l-27 84h-20v-84h-21zM1786 492
v188q4 0 16 0.5t19.5 0.5t17.5 -2t17 -7t12 -13q12 -46 -4 -69q-15 -12 -54 -12v-86h-24zM1790 -172q23 0 35 6.5t12 26.5t-11 25t-36 5v-63zM1810 594q21 0 27 4q12 8 12 37q0 23 -8 28t-31 5v-74zM1849 -27v445h76v-445h-76zM1882 1178v356q6 0 34.5 0.5t40 0t31 -4
t33.5 -10.5q40 -22 41 -86.5t-41 -79.5l43 -176h-43l-49 163h-37v-163h-53zM1901 492v188h16v-168h51v-20h-67zM1911 -502v180h71v-16h-43v-57h35v-19h-35v-71h43v-17h-71zM1925 -109v19h92v-19h-35v-163h-26v163h-31zM1935 1376q34 0 52 4q33 14 26 66q0 38 -26 47
q-8 4 -16.5 5t-21.5 0t-14 -1v-121zM1950 766v358h135v-43h-88v-112h71v-37h-71v-133h88v-33h-135zM1964 -27l8 445h70l51 -279l51 279h78l4 -445h-67l-2 185l-37 -185h-52l-34 183v-183h-70zM1987 492v188h67v-12h-45v-70h39v-20h-39v-66h45v-20h-67zM2001 -502v180
q9 0 25 1.5t26.5 1t18.5 -4.5q19 -14 19 -46.5t-22 -41.5l27 -90h-24l-21 88h-20v-88h-29zM2030 -395q15 0 21 0.5t11.5 6.5t5.5 19q0 19 -9.5 25t-28.5 6v-57zM2030 -272v182h22v-82h49v82h25v-182h-25v84h-49v-84h-22zM2064 492l39 188h31l35 -188h-27l-8 51h-39l-6 -51
h-25zM2095 557h39l-18 92zM2095 1276l49 12q3 -42 21 -63q14 -12 31.5 -13t29.5 9q13 12 12 31.5t-12 35.5q-23 28 -41 41q-5 5 -21 18.5t-28 24.5t-20 21q-25 41 -14 84.5t55 52.5q20 8 45.5 5t42.5 -15q25 -16 30 -72l-37 -14q-2 5 -5.5 18.5t-6.5 21t-10 16t-16 11.5
q-18 0 -34 -8.5t-20 -22.5q-7 -45 64 -94q2 -2 16.5 -16t19 -19t14 -16.5t14 -21.5t7.5 -21q8 -44 -15 -76t-66 -32q-48 0 -75 28.5t-30 73.5zM2116 -375q0 27 15.5 43t45.5 10q22 0 28.5 -15.5t6.5 -43.5h-25q0 2 1.5 9t1 13.5t-4.5 10.5q-1 12 -16.5 12.5t-22.5 -8.5
q-5 -6 -6.5 -18t-0.5 -31l1 -19q0 -2 -0.5 -12t-1 -18t1.5 -17.5t6 -15.5q7 -9 22.5 -7.5t16.5 13.5q4 4 4.5 10t-1 13t-1.5 10h25q0 -19 -2 -31.5t-13 -24.5t-32 -12q-19 0 -30.5 8t-15.5 25t-5 29.5t0.5 36t1.5 30.5zM2152 -272v182h74v-19h-43v-63h35v-16h-35v-70h43v-14
h-74zM2183 543l27 10q0 -35 12 -41q29 0 29 20q0 11 -7 22t-19 22.5t-15 15.5q-21 15 -26 38t16 42q22 18 49 6q24 -12 24 -47l-22 -4q-9 39 -27 38q-12 -1 -14 -16q-6 -25 20 -51q2 -1 6 -4t6.5 -4.5t6.5 -4t6 -4.5l5 -5t5 -5.5t4 -5.5t3 -6t1 -6q8 -25 -4.5 -43t-38.5 -18
q-19 0 -32 15.5t-15 35.5zM2222 911q0 13 -0.5 38.5t-0.5 41t1 37t4 37.5q20 59 86 59q76 0 92 -51q9 -19 11 -43.5t0 -62t-2 -45.5q0 -9 0.5 -23.5t0.5 -22.5t-1 -19.5t-5 -20.5q-3 -36 -26.5 -55t-59.5 -19q-40 0 -66.5 19.5t-29.5 56.5q-4 25 -4 73zM2241 -502v180h24
v-180h-24zM2263 -27v445h109q39 0 68.5 -40.5t29.5 -109.5q0 -129 -82 -149q-16 -6 -53 -6v-140h-72zM2273 879v-6q0 -59 21 -70q26 -7 43 0q26 17 30 47q1 5 1 12.5t-0.5 15.5t-0.5 11v129q0 43 -14 55l-6 3l-6 3t-5.5 2.5t-5.5 2t-5 1t-5.5 0.5t-5 -1t-4.5 -3
q-25 0 -37 -26q-3 -16 -3 -35.5t1.5 -43t1.5 -34.5v-63zM2284 -502l38 180h25l41 -180h-23l-10 47h-37l-8 -47h-26zM2294 492v188h73v-12h-45v-70h33v-20h-33v-66h48v-20h-76zM2304 -272v182h68v-19h-50v-63h33v-16h-33v-84h-18zM2322 -442h31l-16 90zM2335 180h39
q13 5 19 48t-1.5 84.5t-28.5 41.5h-28v-174zM2367 1284v-4q0 -55 25 -66q9 -4 22.5 -4t20.5 4q27 11 27 48v163q0 45 -19 60q-12 20 -39 12q-26 -3 -34 -37q-6 -12 -7 -31t1.5 -45t2.5 -36v-64zM2388 -229v41v98h20v-82q0 -3 -1 -17t-0.5 -23.5t2.5 -21.5t8 -18t16 -6
q7 0 12.5 3.5t8.5 10t5 13t2.5 16.5t0.5 16v15.5v11.5v82h22v-84v-11.5v-13t-0.5 -12.5t-1.5 -13.5t-2 -11.5t-4 -11.5t-6 -10t-8 -9t-11 -5.5q-57 -12 -63 43zM2404 -502v180h27v-163h49v-17h-76zM2431 680h29l24 -137l29 137h22l-38 -188h-25zM2468 766v358h35l100 -239
v239h43v-358h-35l-104 244v-244h-39zM2509 -27v445h76v-369h92v-76h-168zM2513 -272v182h27v-168h40v-14h-67zM2542 -322h20l27 -133l30 133h21l-41 -180h-19zM2554 492v188h26v-188h-26zM2562 1178v356h29l102 -242v242h45v-356h-35l-100 239v-239h-41zM2599 -272v182h24
v-168h46v-14h-70zM2603 543l25 10q0 -32 18 -41q23 0 23 20q1 6 -0.5 12t-4 10.5t-8 11t-8.5 9t-10.5 9.5t-9.5 8q-18 17 -23.5 38.5t14.5 41.5q30 17 47 6q23 -12 27 -47l-24 -4q-2 24 -9.5 32.5t-16 4.5t-13.5 -15q-1 -8 -1.5 -13t3.5 -11.5t7 -10t8 -9t7 -7.5
q37 -25 39 -45q7 -25 -5.5 -43t-35.5 -18q-41 0 -49 51zM2660 -502v180h76v-16h-49v-57h39v-19h-39v-71h49v-17h-76zM2703 766v358h50v-325h83v-33h-133zM2716 -27v445h172v-76h-101v-96h82v-80h-82v-117h101v-76h-172zM2716 492v188h30v-188h-30zM2736 -272l33 182h29
l38 -182h-26l-6 45h-35l-12 -45h-21zM2755 -502v180q7 0 22.5 1.5t26.5 1t20 -4.5q21 -13 19.5 -47t-25.5 -41l27 -90h-25l-22 88h-19v-88h-24zM2761 668v12h84v-12h-29v-176h-20v176h-35zM2769 -211h29l-15 84zM2773 1178l78 356h47l78 -356h-49l-17 84h-74l-18 -84h-45z
M2779 -395q16 0 22 0.5t11.5 6.5t5.5 19q0 19 -9 25t-30 6v-57zM2845 1298h57l-27 162zM2855 -272v182h16l49 -121v121h25v-182h-18l-48 122v-122h-24zM2855 1124h43l53 -172l55 172h50q-5 -20 -50 -151l-24 -70q-3 -8 -3.5 -17t0.5 -20t1 -14v-86h-53v74v53q-10 49 -25 70z
M2865 -449l25 5q0 -30 12 -35q13 -6 23 0.5t10 17.5q0 16 -45 53q-20 18 -23.5 42t15.5 36q12 10 26 12t21 -4q22 -9 22 -40l-16 -11q-2 4 -4.5 13.5t-5.5 14.5t-7 7q-15 8 -26 -10q-2 -4 -2.5 -8t1 -8t2.5 -6.5t5 -6.5l6 -6t7 -6t7 -6q3 -5 12.5 -13.5t15 -17.5t5.5 -20
q9 -22 -1 -40t-34 -18q-25 0 -38 15t-13 40zM2925 156v75h94v-75h-94zM2976 -272v182q1 0 12.5 0.5t17.5 0t16 -1.5t18.5 -4.5t15.5 -8.5q6 -5 9 -15.5t3 -19.5t-1 -24.5t-1 -20.5t0.5 -17t0.5 -19t-1.5 -16t-6 -15.5t-12.5 -10.5q-5 -4 -12.5 -6.5t-16 -3t-15 -1t-16 0
t-11.5 0.5zM2980 -502v180h22v-180h-22zM3000 -258q13 0 19 1t13 7.5t11 20.5v90q-1 15 -7.5 21.5t-13 7.5t-22.5 1v-149zM3011 1178v356h53v-326h88v-30h-141zM3013 342v76h200v-76h-61v-369h-78v369h-61zM3029 -408q0 19 0.5 29t3.5 24.5t8.5 20.5t16.5 10t28 2
q8 0 15 -1.5t11.5 -5.5t8 -7.5t5.5 -10.5t3 -11.5t1.5 -13t0.5 -13v-14.5v-13q0 -22 -0.5 -31.5t-4.5 -27t-15 -25.5t-29 -8q-15 0 -26 6.5t-16 14t-8 22t-3 22.5v24v7zM3062 -395q0 -3 -3 -26t-1.5 -38.5t10.5 -19.5q7 -4 13.5 -5t10.5 1.5t7 6t5 10t3 12t1.5 13.5t0.5 12
v11q0 1 0.5 13.5t0 20t-1.5 18t-3.5 16.5t-7.5 8q-35 14 -35 -27v-26zM3082 766v49h49v-49h-49zM3082 1124h49l-18 -282h-16zM3158 -502v180h14l58 -120v120h20v-180h-18l-60 127v-127h-14zM3250 -27v445h78v-178h68v178h69v-445h-69v187h-68v-187h-78zM3504 -27v445h129
q29 0 54.5 -30.5t25.5 -86.5q0 -86 -53 -121l49 -207h-74l-39 193h-20v-193h-72zM3576 229h41q12 6 16.5 37t-4.5 59.5t-29 28.5h-24v-125zM3752 -27v445h172v-76h-100v-96h82v-80h-82v-117h100v-76h-172zM3932 -27l82 445h70l75 -445h-73l-15 107h-47l-16 -107h-76z
M4035 143h24l-12 88zM4168 -27v445h71q66 0 95.5 -34t29.5 -105v-166q0 -72 -27 -106t-87 -34h-82zM4239 43h25q22 11 22 25q3 30 3 65v119q0 36 -3 63q0 8 -7 17.5t-15 9.5h-25v-299z" />
    <glyph glyph-name=".notdef" horiz-adv-x="512" 
 />
    <glyph glyph-name=".null" 
 />
    <glyph glyph-name="uni000D" unicode="&#xd;" horiz-adv-x="512" 
 />
    <glyph glyph-name="uni000A" unicode="&#xa;" 
 />
    <glyph glyph-name="space" unicode=" " horiz-adv-x="512" 
 />
    <glyph glyph-name="exclam" unicode="!" horiz-adv-x="581" 
d="M748 1421q13 13 36 13q45 0 98.5 -35.5t53.5 -67.5q0 -10 -8 -18q-78 -78 -345.5 -470t-267.5 -437q0 -25 -20 -25q-19 0 -37 20t-18 48q0 49 234 490.5t274 481.5zM-20 131q0 54 37.5 92.5t91.5 38.5t92.5 -38.5t38.5 -92.5t-38.5 -91.5t-92.5 -37.5t-91.5 37.5
t-37.5 91.5z" />
    <glyph glyph-name="quotedbl" unicode="&#x22;" horiz-adv-x="561" 
d="M117 1407q27 27 65 27q45 0 87 -33.5t42 -69.5q0 -21 -14 -35l-252 -235q-6 -6 -16 -6q-12 0 -20.5 9t-8.5 26q0 67 38 172.5t79 144.5zM250 1090q0 67 38 172.5t79 144.5q27 27 65 27q45 0 87 -33.5t42 -69.5q0 -21 -14 -35q-12 -12 -126 -118.5t-124 -116.5
q-6 -6 -18 -6t-20.5 9t-8.5 26z" />
    <glyph glyph-name="numbersign" unicode="#" horiz-adv-x="976" 
d="M1083 1335q15 15 35 15q27 0 51.5 -19t24.5 -41l-20 -31q-20 -31 -69 -113t-106 -185q35 0 76 1t45 1q29 0 29 -31t-23.5 -64.5t-50.5 -33.5q-75 0 -145 2q-78 -144 -180 -336q55 2 116 2q29 0 29 -31t-23.5 -64.5t-50.5 -33.5q-6 0 -53.5 1t-87.5 1q-166 -305 -201 -353
q-20 -26 -28 -26q-23 0 -48.5 21.5t-25.5 45.5q0 7 -3 9q-1 2 8 16q56 94 161 287q-37 1 -113.5 2t-114.5 2q-115 -213 -165 -298t-66 -85q-23 0 -48.5 21.5t-25.5 45.5q0 7 -3 9q-2 1 9 20q60 101 162 287q-18 0 -42.5 -0.5t-39 -1t-32 0t-27.5 2.5t-19.5 6.5t-13.5 11.5
t-4 18q0 59 29.5 71t134.5 10q49 -1 78 -1l190 344q-24 0 -57.5 -2t-51 -2t-36 2.5t-26 11t-7.5 24.5q0 18 1.5 29.5t5 21.5t10 15t16 9t23 5t31.5 2t41 0t51.5 -0.5t62.5 0.5q164 292 194 336q39 57 62 58q26 0 50.5 -19t24.5 -41q-65 -98 -196 -334q38 1 116.5 2.5
t116.5 2.5q191 343 219 374zM381 498q157 0 229 2l187 336q-76 2 -232 2q-183 -338 -184 -340z" />
    <glyph glyph-name="dollar" unicode="$" horiz-adv-x="1220" 
d="M680 573q-43 0 -84 41l-12 -24l-27 -47l-12 -25q112 -83 148 -119q69 -70 69 -139q0 -78 -52.5 -149.5t-130.5 -118.5t-163.5 -75t-155.5 -28q-7 0 -37 5q-22 -49 -38.5 -95t-23.5 -70t-14.5 -44t-15.5 -26.5t-22 -6.5q-29 0 -55.5 18t-26.5 45q0 41 84 224
q-54 39 -82.5 101t-28.5 110q0 45 20 45q4 0 23.5 -16t60 -36.5t93.5 -29.5q55 109 168 323q-111 77 -178.5 159t-67.5 175q0 113 76.5 235t190 215t250.5 153.5t253 60.5q25 0 37 -2q107 181 129 211.5t44 28.5q8 -1 13 -1q30 0 55 -13.5t25 -31.5q0 -2 -13 -21t-50.5 -76
t-81.5 -128q78 -35 126 -93t48 -124q0 -44 -32.5 -119.5t-89 -159.5t-124 -159t-147 -124t-148.5 -49zM330 111q113 10 207 54t94 81q0 5 -2.5 10t-8 11t-11.5 12t-17 13.5t-19.5 13.5t-23.5 15.5t-25.5 16t-28.5 17.5t-30 18q-19 -36 -135 -262zM346 784q0 -96 105 -190
q244 443 372 659q-109 -54 -217 -134.5t-184 -173t-76 -161.5zM647 709q78 41 177.5 148.5t170 224.5t70.5 180q0 32 -17.5 42.5t-52.5 10.5q-165 -279 -348 -606z" />
    <glyph glyph-name="percent" unicode="%" horiz-adv-x="1138" 
d="M528 1174q-54 0 -91.5 38.5t-37.5 92.5t37.5 91.5t91.5 37.5t91.5 -37.5t37.5 -91.5t-37.5 -92.5t-91.5 -38.5zM-25 -6q0 61 159.5 287.5t363 475.5t364 439t189.5 221q10 10 30 10q21 0 39.5 -11.5t18.5 -26.5q0 -10 -9 -19q-44 -44 -210.5 -239.5t-362.5 -435.5
t-349 -458t-153 -278q0 -27 -24 -27q-20 0 -38 18t-18 44zM399 129q0 54 37.5 92.5t91.5 38.5t91.5 -38.5t37.5 -92.5t-37.5 -91.5t-91.5 -37.5t-91.5 37.5t-37.5 91.5z" />
    <glyph glyph-name="ampersand" unicode="&#x26;" horiz-adv-x="1136" 
d="M1044 729q6 6 15 6q25 0 51.5 -42.5t26.5 -82.5q0 -55 -326 -305q80 -180 164 -180q20 0 20 -14q0 -30 -57 -70.5t-119 -40.5q-104 0 -182 182q-275 -182 -404 -182q-95 0 -164 68.5t-69 146.5q0 32 16 69t38 70.5t64.5 78t76.5 77t95.5 83t99 80t106.5 83.5
q-23 192 -23 288q0 76 33.5 148.5t86.5 125t120.5 84.5t134.5 32q117 0 201 -72.5t84 -161.5q0 -52 -34.5 -116.5t-99.5 -137.5t-135 -139.5t-164 -147.5q15 -69 43 -165q261 195 301 235zM147 147q0 -16 19 -16q68 0 405 238q-21 73 -36 153q-236 -194 -298 -253
q-90 -86 -90 -122zM649 1042q0 -56 13 -155q155 125 241 223t86 176q0 31 -19.5 48.5t-51.5 17.5q-39 0 -84.5 -22t-87 -60t-69.5 -98.5t-28 -129.5z" />
    <glyph glyph-name="quotesingle" unicode="'" horiz-adv-x="4" 
d="M365 1657q26 26 65 26q49 0 109.5 -34t60.5 -68q0 -21 -14 -35q-12 -11 -173 -200t-173 -199q-6 -6 -17 -6q-28 0 -28 35q0 68 65 255t105 226z" />
    <glyph glyph-name="parenleft" unicode="(" horiz-adv-x="618" 
d="M1096 1434q26 0 40.5 -13.5t14.5 -29.5q0 -19 -16 -19q-79 0 -187.5 -82.5t-215.5 -211.5t-214 -288t-188.5 -310t-132 -280t-50.5 -196q0 -28 11.5 -43t25.5 -17t25.5 -6t11.5 -12q0 -13 -18.5 -25t-44.5 -12q-158 0 -158 181q0 101 49.5 243.5t132 292.5t195 299.5
t231 266t248.5 189.5t240 73z" />
    <glyph glyph-name="parenright" unicode=")" horiz-adv-x="741" 
d="M-354 -111q-27 0 -41.5 12.5t-14.5 28.5q0 8 5 13.5t12 5.5q79 0 187.5 82.5t215.5 211.5t214 288.5t188 310.5t131.5 280.5t50.5 196.5q0 28 -12 43t-26 17t-26 6t-12 12q0 13 20 25t46 12q157 0 157 -181q0 -100 -50 -242.5t-132 -292.5t-194.5 -299.5t-231 -266.5
t-248 -190t-239.5 -73z" />
    <glyph glyph-name="asterisk" unicode="*" horiz-adv-x="264" 
d="M524 1223q27 0 27 -31q0 -30 -24 -64t-50 -34q-6 0 -24 1t-31 1q10 -10 25.5 -25t23 -22.5t16 -17t12 -16t3.5 -11.5q0 -20 -29 -36t-59 -16q-9 0 -16.5 2t-16 7t-14.5 9t-16 14t-15.5 16t-18 19.5t-18.5 20.5q-2 -7 -11 -37.5t-13.5 -44t-12.5 -34.5t-15.5 -30t-15.5 -9
q-24 0 -52.5 21t-28.5 42q0 11 7 34t19 59t19 59q-33 0 -93 1t-82 1q-20 0 -20 35q0 13 2 23.5t3.5 18.5t7.5 14t9 10t13 7t13.5 4.5t17.5 2t18.5 0.5h22h22.5q-8 9 -31.5 31.5t-37 37.5t-13.5 21q0 18 29.5 38.5t54.5 20.5q9 0 24 -12.5t45 -42.5t46 -45q5 16 11 38.5
t9.5 36.5t8.5 30.5t9 26.5t9 19t10.5 13t11.5 4q25 0 54.5 -31t29.5 -60q0 -16 -39 -122q40 0 96 1t68 1z" />
    <glyph glyph-name="plus" unicode="+" horiz-adv-x="550" 
d="M524 575q27 0 27 -30t-24 -63t-50 -33q-95 0 -158 2q-5 -15 -15.5 -49.5t-18.5 -58t-18 -49.5t-19 -40t-17 -14q-23 0 -52 20t-29 41q0 11 7 34t19 59t19 59q-63 2 -175 2q-20 0 -20 34q0 28 8 45t20 25.5t36 11.5t44.5 2t57.5 -2t65 0q7 24 18 64t17.5 61t15 45
t16.5 34.5t17 10.5q25 0 54.5 -30.5t29.5 -59.5q0 -17 -39 -123q70 2 164 2z" />
    <glyph glyph-name="comma" unicode="," horiz-adv-x="311" 
d="M117 233q25 25 63 25q47 0 89 -33t42 -69q0 -21 -14 -35q-200 -184 -252 -236q-6 -6 -16 -6q-11 0 -20 9t-9 26q0 68 38 173t79 146z" />
    <glyph glyph-name="hyphen" unicode="-" horiz-adv-x="550" 
d="M524 575q27 0 27 -30t-24 -63t-50 -33q-41 0 -214.5 3t-242.5 3q-20 0 -20 34q0 27 12.5 53.5t30.5 26.5q48 0 242.5 3t238.5 3z" />
    <glyph glyph-name="period" unicode="." horiz-adv-x="260" 
d="M129 260q54 0 92.5 -38.5t38.5 -92.5t-38.5 -91.5t-92.5 -37.5t-91.5 37.5t-37.5 91.5t37.5 92.5t91.5 38.5z" />
    <glyph glyph-name="slash" unicode="/" horiz-adv-x="778" 
d="M1087 1417q17 17 50 17q29 0 53 -13.5t24 -31.5q0 -11 -8 -19q-59 -59 -229 -242t-392.5 -430.5t-389 -463t-166.5 -275.5q0 -27 -37 -27q-29 0 -55.5 18t-26.5 44q0 50 118 211.5t282 352.5t342 388.5t293.5 321t141.5 149.5z" />
    <glyph glyph-name="uni0030" unicode="0" horiz-adv-x="4741" 
d="M2408 1174q-78 0 -90 75q-4 23 -4 64q0 8 -0.5 39.5t0 46t2.5 37t6 37.5q11 59 82 63q81 0 99 -51q6 -16 9 -38t3 -39t-1 -44t-1 -37q0 -59 -6 -82q-14 -71 -99 -71zM264 -23l6 443h72l53 -279l51 279h76l2 -443h-63l-6 183l-31 -183h-53l-37 181l-4 -181h-66zM582 -23
v443h55l76 -213v213h69v-443h-53l-78 216v-216h-69zM834 -23v80h75v-80h-75zM936 133l70 2q0 -53 16 -78q13 -21 29 -14q18 6 18 37q0 20 -10 38t-33.5 43.5t-26.5 28.5q-5 6 -15 15t-16.5 16.5t-9.5 14.5q-27 50 -16 102q1 49 46 74.5t91 3.5q58 -28 58 -142l-68 -4
q-1 6 -3 32.5t-7.5 39t-18.5 14.5q-23 1 -30.5 -21.5t0.5 -33.5q4 -12 10 -20.5t18.5 -19.5t14.5 -13l34 -41q61 -61 52 -146q-2 -31 -22.5 -56t-55.5 -34q-33 -5 -63.5 9.5t-43.5 44.5q-18 49 -18 108zM1174 199q0 11 -1 40t-0.5 50t3.5 39q11 71 63 92q60 15 100 -10
q22 -13 33 -39.5t12.5 -45.5t1.5 -51v-10h-71q0 55 -4.5 70.5t-18.5 21.5q-41 5 -41 -59v-162q0 -3 -1 -17t-0.5 -23.5t2.5 -21.5t8 -20t16 -10q16 -6 26.5 1t14 27.5t4 31.5t0.5 31v7h-45v66h115v-230h-58l-4 15q-20 -20 -52.5 -21t-55.5 15q-36 16 -45 90q-3 19 -3.5 39
t0.5 46.5t1 37.5zM1368 -375q0 27 16 43t46 10q17 0 25.5 -10t9.5 -19.5t1 -29.5h-22q0 28 -2 33q-6 12 -20 12.5t-21 -8.5q-3 -5 -5 -15t-2 -18t0.5 -20.5t0.5 -14.5l-1 -12q0 -12 0.5 -19t2.5 -16.5t6 -15.5q6 -9 19.5 -7.5t19.5 13.5q2 5 2 33h22q0 -68 -43 -68
q-16 0 -27.5 7t-17 15.5t-8.5 25t-3 26.5t0.5 30t0.5 25zM1405 -80l119 557h69l-125 -557h-63zM1487 -408q0 19 0.5 29t3 24.5t7.5 20.5t15 10t25 2q15 0 25 -5.5t15 -12t8 -20t3 -21.5v-24v-7v-7q0 -19 -1 -29.5t-5 -26t-15.5 -22.5t-29.5 -7q-12 0 -21.5 3t-14.5 10
t-8.5 12.5t-5 17.5t-2 17t0 19.5t0.5 16.5zM1491 1178v356h76q68 0 88 -39q19 -31 14.5 -72.5t-33.5 -62.5q-6 -6 -14 -10t-14 -6.5t-18.5 -3.5t-17 -1h-18.5h-16v-161h-47zM1493 903v221h45v-239q0 -70 31 -86q36 -11 51.5 15t15.5 65v114v131h50v-161q0 -8 1 -34
t0.5 -40.5t-3 -37.5t-9 -37.5t-19 -28t-30.5 -19.5q-32 -16 -71 -1.5t-52 50.5q-10 25 -10 88zM1509 -395q0 -1 -0.5 -14t0 -21.5t1.5 -20t4.5 -19t9.5 -9.5q7 -4 13 -5t10 1t7 5t4.5 9.5t2.5 11t1.5 13t0.5 12v11.5v3q0 71 -15 76q-17 8 -28 -1t-11 -26v-26zM1538 1376
q40 0 55 4q29 7 29 54q0 55 -29 61q-10 3 -19.5 3.5t-20.5 -0.5t-15 -1v-121zM1554 -272v182h72v-19h-43v-63h35v-16h-35v-84h-29zM1610 131l69 2q0 -51 15 -78q4 -22 26 -16q17 4 17 37q0 17 -8.5 35t-15 26.5t-25.5 27.5l-21 21q-6 10 -19.5 24.5t-15.5 20.5
q-30 37 -22 105q3 49 48.5 74t90.5 4q59 -26 59 -142l-71 -4v5q0 75 -27 81q-21 1 -27.5 -21t0.5 -36q7 -21 37 -51l37 -39q61 -68 53 -148q-2 -32 -22.5 -57.5t-54.5 -34.5q-33 -3 -64 11t-45 45q-14 33 -14 108zM1614 -502v180h26l37 -143l27 143h25l4 -180h-19v133
l-28 -133h-21l-31 133v-133h-20zM1640 -176q0 17 0.5 26.5t3.5 23.5t9 21.5t17.5 13t27.5 5.5q16 -3 26 -12t14 -24.5t4.5 -25.5t0.5 -29v-7q0 -20 -1 -31t-5 -26.5t-15 -23t-28 -7.5q-16 0 -27.5 7t-16.5 14t-7.5 24.5t-2.5 23.5v27zM1667 -172q0 -1 -1 -17.5t-1 -27.5
t5 -23.5t16 -15.5q12 -3 19 2t9.5 18.5t3 21.5t0.5 24q0 2 0.5 13.5t0.5 20t-1 19t-4.5 17.5t-9.5 9q-13 9 -25 -2t-12 -30v-29zM1704 1178v356h135v-37h-86v-121h72v-37h-72v-131h90v-30h-139zM1724 864l52 15q5 -55 14 -64q12 -12 28 -14t27 10q16 11 16 33t-12 37
q-2 2 -9 12.5t-14 17.5t-16 11q-1 1 -30 26t-39 41q-22 33 -11 77.5t52 57.5q43 10 86 -14q33 -24 33 -76l-41 -16q-4 58 -37 63q-18 7 -30.5 -1t-14.5 -23q-6 -8 -3 -18.5t4.5 -16t9.5 -14.5t13 -13.5t15 -13t14 -12.5q2 -2 16 -13t17.5 -14.5l13.5 -13.5t14 -17t8 -18
t5 -23q8 -43 -15.5 -75.5t-66.5 -32.5t-69.5 29t-29.5 73zM1763 -502v180h27l33 -143l28 143h23l8 -180h-18l-4 133l-29 -133h-21l-24 133l-4 -133h-19zM1769 -272v182q4 0 16 0.5t18.5 0.5t16.5 -2t17 -5q21 -11 22 -45t-22 -43l27 -88h-27l-27 84h-20v-84h-21zM1786 492
v188q4 0 16 0.5t19.5 0.5t17.5 -2t17 -7t12 -13q12 -46 -4 -69q-15 -12 -54 -12v-86h-24zM1790 -172q23 0 35 6.5t12 26.5t-11 25t-36 5v-63zM1810 594q21 0 27 4q12 8 12 37q0 23 -8 28t-31 5v-74zM1849 -27v445h76v-445h-76zM1882 1178v356q6 0 34.5 0.5t40 0t31 -4
t33.5 -10.5q40 -22 41 -86.5t-41 -79.5l43 -176h-43l-49 163h-37v-163h-53zM1901 492v188h16v-168h51v-20h-67zM1911 -502v180h71v-16h-43v-57h35v-19h-35v-71h43v-17h-71zM1925 -109v19h92v-19h-35v-163h-26v163h-31zM1935 1376q34 0 52 4q33 14 26 66q0 38 -26 47
q-8 4 -16.5 5t-21.5 0t-14 -1v-121zM1950 766v358h135v-43h-88v-112h71v-37h-71v-133h88v-33h-135zM1964 -27l8 445h70l51 -279l51 279h78l4 -445h-67l-2 185l-37 -185h-52l-34 183v-183h-70zM1987 492v188h67v-12h-45v-70h39v-20h-39v-66h45v-20h-67zM2001 -502v180
q9 0 25 1.5t26.5 1t18.5 -4.5q19 -14 19 -46.5t-22 -41.5l27 -90h-24l-21 88h-20v-88h-29zM2030 -395q15 0 21 0.5t11.5 6.5t5.5 19q0 19 -9.5 25t-28.5 6v-57zM2030 -272v182h22v-82h49v82h25v-182h-25v84h-49v-84h-22zM2064 492l39 188h31l35 -188h-27l-8 51h-39l-6 -51
h-25zM2095 557h39l-18 92zM2095 1276l49 12q3 -42 21 -63q14 -12 31.5 -13t29.5 9q13 12 12 31.5t-12 35.5q-23 28 -41 41q-5 5 -21 18.5t-28 24.5t-20 21q-25 41 -14 84.5t55 52.5q20 8 45.5 5t42.5 -15q25 -16 30 -72l-37 -14q-2 5 -5.5 18.5t-6.5 21t-10 16t-16 11.5
q-18 0 -34 -8.5t-20 -22.5q-7 -45 64 -94q2 -2 16.5 -16t19 -19t14 -16.5t14 -21.5t7.5 -21q8 -44 -15 -76t-66 -32q-48 0 -75 28.5t-30 73.5zM2116 -375q0 27 15.5 43t45.5 10q22 0 28.5 -15.5t6.5 -43.5h-25q0 2 1.5 9t1 13.5t-4.5 10.5q-1 12 -16.5 12.5t-22.5 -8.5
q-5 -6 -6.5 -18t-0.5 -31l1 -19q0 -2 -0.5 -12t-1 -18t1.5 -17.5t6 -15.5q7 -9 22.5 -7.5t16.5 13.5q4 4 4.5 10t-1 13t-1.5 10h25q0 -19 -2 -31.5t-13 -24.5t-32 -12q-19 0 -30.5 8t-15.5 25t-5 29.5t0.5 36t1.5 30.5zM2152 -272v182h74v-19h-43v-63h35v-16h-35v-70h43v-14
h-74zM2183 543l27 10q0 -35 12 -41q29 0 29 20q0 11 -7 22t-19 22.5t-15 15.5q-21 15 -26 38t16 42q22 18 49 6q24 -12 24 -47l-22 -4q-9 39 -27 38q-12 -1 -14 -16q-6 -25 20 -51q2 -1 6 -4t6.5 -4.5t6.5 -4t6 -4.5l5 -5t5 -5.5t4 -5.5t3 -6t1 -6q8 -25 -4.5 -43t-38.5 -18
q-19 0 -32 15.5t-15 35.5zM2222 911q0 13 -0.5 38.5t-0.5 41t1 37t4 37.5q20 59 86 59q76 0 92 -51q9 -19 11 -43.5t0 -62t-2 -45.5q0 -9 0.5 -23.5t0.5 -22.5t-1 -19.5t-5 -20.5q-3 -36 -26.5 -55t-59.5 -19q-40 0 -66.5 19.5t-29.5 56.5q-4 25 -4 73zM2241 -502v180h24
v-180h-24zM2263 -27v445h109q39 0 68.5 -40.5t29.5 -109.5q0 -129 -82 -149q-16 -6 -53 -6v-140h-72zM2273 879v-6q0 -59 21 -70q26 -7 43 0q26 17 30 47q1 5 1 12.5t-0.5 15.5t-0.5 11v129q0 43 -14 55l-6 3l-6 3t-5.5 2.5t-5.5 2t-5 1t-5.5 0.5t-5 -1t-4.5 -3
q-25 0 -37 -26q-3 -16 -3 -35.5t1.5 -43t1.5 -34.5v-63zM2284 -502l38 180h25l41 -180h-23l-10 47h-37l-8 -47h-26zM2294 492v188h73v-12h-45v-70h33v-20h-33v-66h48v-20h-76zM2304 -272v182h68v-19h-50v-63h33v-16h-33v-84h-18zM2322 -442h31l-16 90zM2335 180h39
q13 5 19 48t-1.5 84.5t-28.5 41.5h-28v-174zM2367 1284v-4q0 -55 25 -66q9 -4 22.5 -4t20.5 4q27 11 27 48v163q0 45 -19 60q-12 20 -39 12q-26 -3 -34 -37q-6 -12 -7 -31t1.5 -45t2.5 -36v-64zM2388 -229v41v98h20v-82q0 -3 -1 -17t-0.5 -23.5t2.5 -21.5t8 -18t16 -6
q7 0 12.5 3.5t8.5 10t5 13t2.5 16.5t0.5 16v15.5v11.5v82h22v-84v-11.5v-13t-0.5 -12.5t-1.5 -13.5t-2 -11.5t-4 -11.5t-6 -10t-8 -9t-11 -5.5q-57 -12 -63 43zM2404 -502v180h27v-163h49v-17h-76zM2431 680h29l24 -137l29 137h22l-38 -188h-25zM2468 766v358h35l100 -239
v239h43v-358h-35l-104 244v-244h-39zM2509 -27v445h76v-369h92v-76h-168zM2513 -272v182h27v-168h40v-14h-67zM2542 -322h20l27 -133l30 133h21l-41 -180h-19zM2554 492v188h26v-188h-26zM2562 1178v356h29l102 -242v242h45v-356h-35l-100 239v-239h-41zM2599 -272v182h24
v-168h46v-14h-70zM2603 543l25 10q0 -32 18 -41q23 0 23 20q1 6 -0.5 12t-4 10.5t-8 11t-8.5 9t-10.5 9.5t-9.5 8q-18 17 -23.5 38.5t14.5 41.5q30 17 47 6q23 -12 27 -47l-24 -4q-2 24 -9.5 32.5t-16 4.5t-13.5 -15q-1 -8 -1.5 -13t3.5 -11.5t7 -10t8 -9t7 -7.5
q37 -25 39 -45q7 -25 -5.5 -43t-35.5 -18q-41 0 -49 51zM2660 -502v180h76v-16h-49v-57h39v-19h-39v-71h49v-17h-76zM2703 766v358h50v-325h83v-33h-133zM2716 -27v445h172v-76h-101v-96h82v-80h-82v-117h101v-76h-172zM2716 492v188h30v-188h-30zM2736 -272l33 182h29
l38 -182h-26l-6 45h-35l-12 -45h-21zM2755 -502v180q7 0 22.5 1.5t26.5 1t20 -4.5q21 -13 19.5 -47t-25.5 -41l27 -90h-25l-22 88h-19v-88h-24zM2761 668v12h84v-12h-29v-176h-20v176h-35zM2769 -211h29l-15 84zM2773 1178l78 356h47l78 -356h-49l-17 84h-74l-18 -84h-45z
M2779 -395q16 0 22 0.5t11.5 6.5t5.5 19q0 19 -9 25t-30 6v-57zM2845 1298h57l-27 162zM2855 -272v182h16l49 -121v121h25v-182h-18l-48 122v-122h-24zM2855 1124h43l53 -172l55 172h50q-5 -20 -50 -151l-24 -70q-3 -8 -3.5 -17t0.5 -20t1 -14v-86h-53v74v53q-10 49 -25 70z
M2865 -449l25 5q0 -30 12 -35q13 -6 23 0.5t10 17.5q0 16 -45 53q-20 18 -23.5 42t15.5 36q12 10 26 12t21 -4q22 -9 22 -40l-16 -11q-2 4 -4.5 13.5t-5.5 14.5t-7 7q-15 8 -26 -10q-2 -4 -2.5 -8t1 -8t2.5 -6.5t5 -6.5l6 -6t7 -6t7 -6q3 -5 12.5 -13.5t15 -17.5t5.5 -20
q9 -22 -1 -40t-34 -18q-25 0 -38 15t-13 40zM2925 156v75h94v-75h-94zM2976 -272v182q1 0 12.5 0.5t17.5 0t16 -1.5t18.5 -4.5t15.5 -8.5q6 -5 9 -15.5t3 -19.5t-1 -24.5t-1 -20.5t0.5 -17t0.5 -19t-1.5 -16t-6 -15.5t-12.5 -10.5q-5 -4 -12.5 -6.5t-16 -3t-15 -1t-16 0
t-11.5 0.5zM2980 -502v180h22v-180h-22zM3000 -258q13 0 19 1t13 7.5t11 20.5v90q-1 15 -7.5 21.5t-13 7.5t-22.5 1v-149zM3011 1178v356h53v-326h88v-30h-141zM3013 342v76h200v-76h-61v-369h-78v369h-61zM3029 -408q0 19 0.5 29t3.5 24.5t8.5 20.5t16.5 10t28 2
q8 0 15 -1.5t11.5 -5.5t8 -7.5t5.5 -10.5t3 -11.5t1.5 -13t0.5 -13v-14.5v-13q0 -22 -0.5 -31.5t-4.5 -27t-15 -25.5t-29 -8q-15 0 -26 6.5t-16 14t-8 22t-3 22.5v24v7zM3062 -395q0 -3 -3 -26t-1.5 -38.5t10.5 -19.5q7 -4 13.5 -5t10.5 1.5t7 6t5 10t3 12t1.5 13.5t0.5 12
v11q0 1 0.5 13.5t0 20t-1.5 18t-3.5 16.5t-7.5 8q-35 14 -35 -27v-26zM3082 766v49h49v-49h-49zM3082 1124h49l-18 -282h-16zM3158 -502v180h14l58 -120v120h20v-180h-18l-60 127v-127h-14zM3250 -27v445h78v-178h68v178h69v-445h-69v187h-68v-187h-78zM3504 -27v445h129
q29 0 54.5 -30.5t25.5 -86.5q0 -86 -53 -121l49 -207h-74l-39 193h-20v-193h-72zM3576 229h41q12 6 16.5 37t-4.5 59.5t-29 28.5h-24v-125zM3752 -27v445h172v-76h-100v-96h82v-80h-82v-117h100v-76h-172zM3932 -27l82 445h70l75 -445h-73l-15 107h-47l-16 -107h-76z
M4035 143h24l-12 88zM4168 -27v445h71q66 0 95.5 -34t29.5 -105v-166q0 -72 -27 -106t-87 -34h-82zM4239 43h25q22 11 22 25q3 30 3 65v119q0 36 -3 63q0 8 -7 17.5t-15 9.5h-25v-299z" />
    <glyph glyph-name="uni0030" unicode="9" horiz-adv-x="4741" 
d="M2408 1174q-78 0 -90 75q-4 23 -4 64q0 8 -0.5 39.5t0 46t2.5 37t6 37.5q11 59 82 63q81 0 99 -51q6 -16 9 -38t3 -39t-1 -44t-1 -37q0 -59 -6 -82q-14 -71 -99 -71zM264 -23l6 443h72l53 -279l51 279h76l2 -443h-63l-6 183l-31 -183h-53l-37 181l-4 -181h-66zM582 -23
v443h55l76 -213v213h69v-443h-53l-78 216v-216h-69zM834 -23v80h75v-80h-75zM936 133l70 2q0 -53 16 -78q13 -21 29 -14q18 6 18 37q0 20 -10 38t-33.5 43.5t-26.5 28.5q-5 6 -15 15t-16.5 16.5t-9.5 14.5q-27 50 -16 102q1 49 46 74.5t91 3.5q58 -28 58 -142l-68 -4
q-1 6 -3 32.5t-7.5 39t-18.5 14.5q-23 1 -30.5 -21.5t0.5 -33.5q4 -12 10 -20.5t18.5 -19.5t14.5 -13l34 -41q61 -61 52 -146q-2 -31 -22.5 -56t-55.5 -34q-33 -5 -63.5 9.5t-43.5 44.5q-18 49 -18 108zM1174 199q0 11 -1 40t-0.5 50t3.5 39q11 71 63 92q60 15 100 -10
q22 -13 33 -39.5t12.5 -45.5t1.5 -51v-10h-71q0 55 -4.5 70.5t-18.5 21.5q-41 5 -41 -59v-162q0 -3 -1 -17t-0.5 -23.5t2.5 -21.5t8 -20t16 -10q16 -6 26.5 1t14 27.5t4 31.5t0.5 31v7h-45v66h115v-230h-58l-4 15q-20 -20 -52.5 -21t-55.5 15q-36 16 -45 90q-3 19 -3.5 39
t0.5 46.5t1 37.5zM1368 -375q0 27 16 43t46 10q17 0 25.5 -10t9.5 -19.5t1 -29.5h-22q0 28 -2 33q-6 12 -20 12.5t-21 -8.5q-3 -5 -5 -15t-2 -18t0.5 -20.5t0.5 -14.5l-1 -12q0 -12 0.5 -19t2.5 -16.5t6 -15.5q6 -9 19.5 -7.5t19.5 13.5q2 5 2 33h22q0 -68 -43 -68
q-16 0 -27.5 7t-17 15.5t-8.5 25t-3 26.5t0.5 30t0.5 25zM1405 -80l119 557h69l-125 -557h-63zM1487 -408q0 19 0.5 29t3 24.5t7.5 20.5t15 10t25 2q15 0 25 -5.5t15 -12t8 -20t3 -21.5v-24v-7v-7q0 -19 -1 -29.5t-5 -26t-15.5 -22.5t-29.5 -7q-12 0 -21.5 3t-14.5 10
t-8.5 12.5t-5 17.5t-2 17t0 19.5t0.5 16.5zM1491 1178v356h76q68 0 88 -39q19 -31 14.5 -72.5t-33.5 -62.5q-6 -6 -14 -10t-14 -6.5t-18.5 -3.5t-17 -1h-18.5h-16v-161h-47zM1493 903v221h45v-239q0 -70 31 -86q36 -11 51.5 15t15.5 65v114v131h50v-161q0 -8 1 -34
t0.5 -40.5t-3 -37.5t-9 -37.5t-19 -28t-30.5 -19.5q-32 -16 -71 -1.5t-52 50.5q-10 25 -10 88zM1509 -395q0 -1 -0.5 -14t0 -21.5t1.5 -20t4.5 -19t9.5 -9.5q7 -4 13 -5t10 1t7 5t4.5 9.5t2.5 11t1.5 13t0.5 12v11.5v3q0 71 -15 76q-17 8 -28 -1t-11 -26v-26zM1538 1376
q40 0 55 4q29 7 29 54q0 55 -29 61q-10 3 -19.5 3.5t-20.5 -0.5t-15 -1v-121zM1554 -272v182h72v-19h-43v-63h35v-16h-35v-84h-29zM1610 131l69 2q0 -51 15 -78q4 -22 26 -16q17 4 17 37q0 17 -8.5 35t-15 26.5t-25.5 27.5l-21 21q-6 10 -19.5 24.5t-15.5 20.5
q-30 37 -22 105q3 49 48.5 74t90.5 4q59 -26 59 -142l-71 -4v5q0 75 -27 81q-21 1 -27.5 -21t0.5 -36q7 -21 37 -51l37 -39q61 -68 53 -148q-2 -32 -22.5 -57.5t-54.5 -34.5q-33 -3 -64 11t-45 45q-14 33 -14 108zM1614 -502v180h26l37 -143l27 143h25l4 -180h-19v133
l-28 -133h-21l-31 133v-133h-20zM1640 -176q0 17 0.5 26.5t3.5 23.5t9 21.5t17.5 13t27.5 5.5q16 -3 26 -12t14 -24.5t4.5 -25.5t0.5 -29v-7q0 -20 -1 -31t-5 -26.5t-15 -23t-28 -7.5q-16 0 -27.5 7t-16.5 14t-7.5 24.5t-2.5 23.5v27zM1667 -172q0 -1 -1 -17.5t-1 -27.5
t5 -23.5t16 -15.5q12 -3 19 2t9.5 18.5t3 21.5t0.5 24q0 2 0.5 13.5t0.5 20t-1 19t-4.5 17.5t-9.5 9q-13 9 -25 -2t-12 -30v-29zM1704 1178v356h135v-37h-86v-121h72v-37h-72v-131h90v-30h-139zM1724 864l52 15q5 -55 14 -64q12 -12 28 -14t27 10q16 11 16 33t-12 37
q-2 2 -9 12.5t-14 17.5t-16 11q-1 1 -30 26t-39 41q-22 33 -11 77.5t52 57.5q43 10 86 -14q33 -24 33 -76l-41 -16q-4 58 -37 63q-18 7 -30.5 -1t-14.5 -23q-6 -8 -3 -18.5t4.5 -16t9.5 -14.5t13 -13.5t15 -13t14 -12.5q2 -2 16 -13t17.5 -14.5l13.5 -13.5t14 -17t8 -18
t5 -23q8 -43 -15.5 -75.5t-66.5 -32.5t-69.5 29t-29.5 73zM1763 -502v180h27l33 -143l28 143h23l8 -180h-18l-4 133l-29 -133h-21l-24 133l-4 -133h-19zM1769 -272v182q4 0 16 0.5t18.5 0.5t16.5 -2t17 -5q21 -11 22 -45t-22 -43l27 -88h-27l-27 84h-20v-84h-21zM1786 492
v188q4 0 16 0.5t19.5 0.5t17.5 -2t17 -7t12 -13q12 -46 -4 -69q-15 -12 -54 -12v-86h-24zM1790 -172q23 0 35 6.5t12 26.5t-11 25t-36 5v-63zM1810 594q21 0 27 4q12 8 12 37q0 23 -8 28t-31 5v-74zM1849 -27v445h76v-445h-76zM1882 1178v356q6 0 34.5 0.5t40 0t31 -4
t33.5 -10.5q40 -22 41 -86.5t-41 -79.5l43 -176h-43l-49 163h-37v-163h-53zM1901 492v188h16v-168h51v-20h-67zM1911 -502v180h71v-16h-43v-57h35v-19h-35v-71h43v-17h-71zM1925 -109v19h92v-19h-35v-163h-26v163h-31zM1935 1376q34 0 52 4q33 14 26 66q0 38 -26 47
q-8 4 -16.5 5t-21.5 0t-14 -1v-121zM1950 766v358h135v-43h-88v-112h71v-37h-71v-133h88v-33h-135zM1964 -27l8 445h70l51 -279l51 279h78l4 -445h-67l-2 185l-37 -185h-52l-34 183v-183h-70zM1987 492v188h67v-12h-45v-70h39v-20h-39v-66h45v-20h-67zM2001 -502v180
q9 0 25 1.5t26.5 1t18.5 -4.5q19 -14 19 -46.5t-22 -41.5l27 -90h-24l-21 88h-20v-88h-29zM2030 -395q15 0 21 0.5t11.5 6.5t5.5 19q0 19 -9.5 25t-28.5 6v-57zM2030 -272v182h22v-82h49v82h25v-182h-25v84h-49v-84h-22zM2064 492l39 188h31l35 -188h-27l-8 51h-39l-6 -51
h-25zM2095 557h39l-18 92zM2095 1276l49 12q3 -42 21 -63q14 -12 31.5 -13t29.5 9q13 12 12 31.5t-12 35.5q-23 28 -41 41q-5 5 -21 18.5t-28 24.5t-20 21q-25 41 -14 84.5t55 52.5q20 8 45.5 5t42.5 -15q25 -16 30 -72l-37 -14q-2 5 -5.5 18.5t-6.5 21t-10 16t-16 11.5
q-18 0 -34 -8.5t-20 -22.5q-7 -45 64 -94q2 -2 16.5 -16t19 -19t14 -16.5t14 -21.5t7.5 -21q8 -44 -15 -76t-66 -32q-48 0 -75 28.5t-30 73.5zM2116 -375q0 27 15.5 43t45.5 10q22 0 28.5 -15.5t6.5 -43.5h-25q0 2 1.5 9t1 13.5t-4.5 10.5q-1 12 -16.5 12.5t-22.5 -8.5
q-5 -6 -6.5 -18t-0.5 -31l1 -19q0 -2 -0.5 -12t-1 -18t1.5 -17.5t6 -15.5q7 -9 22.5 -7.5t16.5 13.5q4 4 4.5 10t-1 13t-1.5 10h25q0 -19 -2 -31.5t-13 -24.5t-32 -12q-19 0 -30.5 8t-15.5 25t-5 29.5t0.5 36t1.5 30.5zM2152 -272v182h74v-19h-43v-63h35v-16h-35v-70h43v-14
h-74zM2183 543l27 10q0 -35 12 -41q29 0 29 20q0 11 -7 22t-19 22.5t-15 15.5q-21 15 -26 38t16 42q22 18 49 6q24 -12 24 -47l-22 -4q-9 39 -27 38q-12 -1 -14 -16q-6 -25 20 -51q2 -1 6 -4t6.5 -4.5t6.5 -4t6 -4.5l5 -5t5 -5.5t4 -5.5t3 -6t1 -6q8 -25 -4.5 -43t-38.5 -18
q-19 0 -32 15.5t-15 35.5zM2222 911q0 13 -0.5 38.5t-0.5 41t1 37t4 37.5q20 59 86 59q76 0 92 -51q9 -19 11 -43.5t0 -62t-2 -45.5q0 -9 0.5 -23.5t0.5 -22.5t-1 -19.5t-5 -20.5q-3 -36 -26.5 -55t-59.5 -19q-40 0 -66.5 19.5t-29.5 56.5q-4 25 -4 73zM2241 -502v180h24
v-180h-24zM2263 -27v445h109q39 0 68.5 -40.5t29.5 -109.5q0 -129 -82 -149q-16 -6 -53 -6v-140h-72zM2273 879v-6q0 -59 21 -70q26 -7 43 0q26 17 30 47q1 5 1 12.5t-0.5 15.5t-0.5 11v129q0 43 -14 55l-6 3l-6 3t-5.5 2.5t-5.5 2t-5 1t-5.5 0.5t-5 -1t-4.5 -3
q-25 0 -37 -26q-3 -16 -3 -35.5t1.5 -43t1.5 -34.5v-63zM2284 -502l38 180h25l41 -180h-23l-10 47h-37l-8 -47h-26zM2294 492v188h73v-12h-45v-70h33v-20h-33v-66h48v-20h-76zM2304 -272v182h68v-19h-50v-63h33v-16h-33v-84h-18zM2322 -442h31l-16 90zM2335 180h39
q13 5 19 48t-1.5 84.5t-28.5 41.5h-28v-174zM2367 1284v-4q0 -55 25 -66q9 -4 22.5 -4t20.5 4q27 11 27 48v163q0 45 -19 60q-12 20 -39 12q-26 -3 -34 -37q-6 -12 -7 -31t1.5 -45t2.5 -36v-64zM2388 -229v41v98h20v-82q0 -3 -1 -17t-0.5 -23.5t2.5 -21.5t8 -18t16 -6
q7 0 12.5 3.5t8.5 10t5 13t2.5 16.5t0.5 16v15.5v11.5v82h22v-84v-11.5v-13t-0.5 -12.5t-1.5 -13.5t-2 -11.5t-4 -11.5t-6 -10t-8 -9t-11 -5.5q-57 -12 -63 43zM2404 -502v180h27v-163h49v-17h-76zM2431 680h29l24 -137l29 137h22l-38 -188h-25zM2468 766v358h35l100 -239
v239h43v-358h-35l-104 244v-244h-39zM2509 -27v445h76v-369h92v-76h-168zM2513 -272v182h27v-168h40v-14h-67zM2542 -322h20l27 -133l30 133h21l-41 -180h-19zM2554 492v188h26v-188h-26zM2562 1178v356h29l102 -242v242h45v-356h-35l-100 239v-239h-41zM2599 -272v182h24
v-168h46v-14h-70zM2603 543l25 10q0 -32 18 -41q23 0 23 20q1 6 -0.5 12t-4 10.5t-8 11t-8.5 9t-10.5 9.5t-9.5 8q-18 17 -23.5 38.5t14.5 41.5q30 17 47 6q23 -12 27 -47l-24 -4q-2 24 -9.5 32.5t-16 4.5t-13.5 -15q-1 -8 -1.5 -13t3.5 -11.5t7 -10t8 -9t7 -7.5
q37 -25 39 -45q7 -25 -5.5 -43t-35.5 -18q-41 0 -49 51zM2660 -502v180h76v-16h-49v-57h39v-19h-39v-71h49v-17h-76zM2703 766v358h50v-325h83v-33h-133zM2716 -27v445h172v-76h-101v-96h82v-80h-82v-117h101v-76h-172zM2716 492v188h30v-188h-30zM2736 -272l33 182h29
l38 -182h-26l-6 45h-35l-12 -45h-21zM2755 -502v180q7 0 22.5 1.5t26.5 1t20 -4.5q21 -13 19.5 -47t-25.5 -41l27 -90h-25l-22 88h-19v-88h-24zM2761 668v12h84v-12h-29v-176h-20v176h-35zM2769 -211h29l-15 84zM2773 1178l78 356h47l78 -356h-49l-17 84h-74l-18 -84h-45z
M2779 -395q16 0 22 0.5t11.5 6.5t5.5 19q0 19 -9 25t-30 6v-57zM2845 1298h57l-27 162zM2855 -272v182h16l49 -121v121h25v-182h-18l-48 122v-122h-24zM2855 1124h43l53 -172l55 172h50q-5 -20 -50 -151l-24 -70q-3 -8 -3.5 -17t0.5 -20t1 -14v-86h-53v74v53q-10 49 -25 70z
M2865 -449l25 5q0 -30 12 -35q13 -6 23 0.5t10 17.5q0 16 -45 53q-20 18 -23.5 42t15.5 36q12 10 26 12t21 -4q22 -9 22 -40l-16 -11q-2 4 -4.5 13.5t-5.5 14.5t-7 7q-15 8 -26 -10q-2 -4 -2.5 -8t1 -8t2.5 -6.5t5 -6.5l6 -6t7 -6t7 -6q3 -5 12.5 -13.5t15 -17.5t5.5 -20
q9 -22 -1 -40t-34 -18q-25 0 -38 15t-13 40zM2925 156v75h94v-75h-94zM2976 -272v182q1 0 12.5 0.5t17.5 0t16 -1.5t18.5 -4.5t15.5 -8.5q6 -5 9 -15.5t3 -19.5t-1 -24.5t-1 -20.5t0.5 -17t0.5 -19t-1.5 -16t-6 -15.5t-12.5 -10.5q-5 -4 -12.5 -6.5t-16 -3t-15 -1t-16 0
t-11.5 0.5zM2980 -502v180h22v-180h-22zM3000 -258q13 0 19 1t13 7.5t11 20.5v90q-1 15 -7.5 21.5t-13 7.5t-22.5 1v-149zM3011 1178v356h53v-326h88v-30h-141zM3013 342v76h200v-76h-61v-369h-78v369h-61zM3029 -408q0 19 0.5 29t3.5 24.5t8.5 20.5t16.5 10t28 2
q8 0 15 -1.5t11.5 -5.5t8 -7.5t5.5 -10.5t3 -11.5t1.5 -13t0.5 -13v-14.5v-13q0 -22 -0.5 -31.5t-4.5 -27t-15 -25.5t-29 -8q-15 0 -26 6.5t-16 14t-8 22t-3 22.5v24v7zM3062 -395q0 -3 -3 -26t-1.5 -38.5t10.5 -19.5q7 -4 13.5 -5t10.5 1.5t7 6t5 10t3 12t1.5 13.5t0.5 12
v11q0 1 0.5 13.5t0 20t-1.5 18t-3.5 16.5t-7.5 8q-35 14 -35 -27v-26zM3082 766v49h49v-49h-49zM3082 1124h49l-18 -282h-16zM3158 -502v180h14l58 -120v120h20v-180h-18l-60 127v-127h-14zM3250 -27v445h78v-178h68v178h69v-445h-69v187h-68v-187h-78zM3504 -27v445h129
q29 0 54.5 -30.5t25.5 -86.5q0 -86 -53 -121l49 -207h-74l-39 193h-20v-193h-72zM3576 229h41q12 6 16.5 37t-4.5 59.5t-29 28.5h-24v-125zM3752 -27v445h172v-76h-100v-96h82v-80h-82v-117h100v-76h-172zM3932 -27l82 445h70l75 -445h-73l-15 107h-47l-16 -107h-76z
M4035 143h24l-12 88zM4168 -27v445h71q66 0 95.5 -34t29.5 -105v-166q0 -72 -27 -106t-87 -34h-82zM4239 43h25q22 11 22 25q3 30 3 65v119q0 36 -3 63q0 8 -7 17.5t-15 9.5h-25v-299z" />
    <glyph glyph-name="uni0030" unicode="8" horiz-adv-x="4741" 
d="M2408 1174q-78 0 -90 75q-4 23 -4 64q0 8 -0.5 39.5t0 46t2.5 37t6 37.5q11 59 82 63q81 0 99 -51q6 -16 9 -38t3 -39t-1 -44t-1 -37q0 -59 -6 -82q-14 -71 -99 -71zM264 -23l6 443h72l53 -279l51 279h76l2 -443h-63l-6 183l-31 -183h-53l-37 181l-4 -181h-66zM582 -23
v443h55l76 -213v213h69v-443h-53l-78 216v-216h-69zM834 -23v80h75v-80h-75zM936 133l70 2q0 -53 16 -78q13 -21 29 -14q18 6 18 37q0 20 -10 38t-33.5 43.5t-26.5 28.5q-5 6 -15 15t-16.5 16.5t-9.5 14.5q-27 50 -16 102q1 49 46 74.5t91 3.5q58 -28 58 -142l-68 -4
q-1 6 -3 32.5t-7.5 39t-18.5 14.5q-23 1 -30.5 -21.5t0.5 -33.5q4 -12 10 -20.5t18.5 -19.5t14.5 -13l34 -41q61 -61 52 -146q-2 -31 -22.5 -56t-55.5 -34q-33 -5 -63.5 9.5t-43.5 44.5q-18 49 -18 108zM1174 199q0 11 -1 40t-0.5 50t3.5 39q11 71 63 92q60 15 100 -10
q22 -13 33 -39.5t12.5 -45.5t1.5 -51v-10h-71q0 55 -4.5 70.5t-18.5 21.5q-41 5 -41 -59v-162q0 -3 -1 -17t-0.5 -23.5t2.5 -21.5t8 -20t16 -10q16 -6 26.5 1t14 27.5t4 31.5t0.5 31v7h-45v66h115v-230h-58l-4 15q-20 -20 -52.5 -21t-55.5 15q-36 16 -45 90q-3 19 -3.5 39
t0.5 46.5t1 37.5zM1368 -375q0 27 16 43t46 10q17 0 25.5 -10t9.5 -19.5t1 -29.5h-22q0 28 -2 33q-6 12 -20 12.5t-21 -8.5q-3 -5 -5 -15t-2 -18t0.5 -20.5t0.5 -14.5l-1 -12q0 -12 0.5 -19t2.5 -16.5t6 -15.5q6 -9 19.5 -7.5t19.5 13.5q2 5 2 33h22q0 -68 -43 -68
q-16 0 -27.5 7t-17 15.5t-8.5 25t-3 26.5t0.5 30t0.5 25zM1405 -80l119 557h69l-125 -557h-63zM1487 -408q0 19 0.5 29t3 24.5t7.5 20.5t15 10t25 2q15 0 25 -5.5t15 -12t8 -20t3 -21.5v-24v-7v-7q0 -19 -1 -29.5t-5 -26t-15.5 -22.5t-29.5 -7q-12 0 -21.5 3t-14.5 10
t-8.5 12.5t-5 17.5t-2 17t0 19.5t0.5 16.5zM1491 1178v356h76q68 0 88 -39q19 -31 14.5 -72.5t-33.5 -62.5q-6 -6 -14 -10t-14 -6.5t-18.5 -3.5t-17 -1h-18.5h-16v-161h-47zM1493 903v221h45v-239q0 -70 31 -86q36 -11 51.5 15t15.5 65v114v131h50v-161q0 -8 1 -34
t0.5 -40.5t-3 -37.5t-9 -37.5t-19 -28t-30.5 -19.5q-32 -16 -71 -1.5t-52 50.5q-10 25 -10 88zM1509 -395q0 -1 -0.5 -14t0 -21.5t1.5 -20t4.5 -19t9.5 -9.5q7 -4 13 -5t10 1t7 5t4.5 9.5t2.5 11t1.5 13t0.5 12v11.5v3q0 71 -15 76q-17 8 -28 -1t-11 -26v-26zM1538 1376
q40 0 55 4q29 7 29 54q0 55 -29 61q-10 3 -19.5 3.5t-20.5 -0.5t-15 -1v-121zM1554 -272v182h72v-19h-43v-63h35v-16h-35v-84h-29zM1610 131l69 2q0 -51 15 -78q4 -22 26 -16q17 4 17 37q0 17 -8.5 35t-15 26.5t-25.5 27.5l-21 21q-6 10 -19.5 24.5t-15.5 20.5
q-30 37 -22 105q3 49 48.5 74t90.5 4q59 -26 59 -142l-71 -4v5q0 75 -27 81q-21 1 -27.5 -21t0.5 -36q7 -21 37 -51l37 -39q61 -68 53 -148q-2 -32 -22.5 -57.5t-54.5 -34.5q-33 -3 -64 11t-45 45q-14 33 -14 108zM1614 -502v180h26l37 -143l27 143h25l4 -180h-19v133
l-28 -133h-21l-31 133v-133h-20zM1640 -176q0 17 0.5 26.5t3.5 23.5t9 21.5t17.5 13t27.5 5.5q16 -3 26 -12t14 -24.5t4.5 -25.5t0.5 -29v-7q0 -20 -1 -31t-5 -26.5t-15 -23t-28 -7.5q-16 0 -27.5 7t-16.5 14t-7.5 24.5t-2.5 23.5v27zM1667 -172q0 -1 -1 -17.5t-1 -27.5
t5 -23.5t16 -15.5q12 -3 19 2t9.5 18.5t3 21.5t0.5 24q0 2 0.5 13.5t0.5 20t-1 19t-4.5 17.5t-9.5 9q-13 9 -25 -2t-12 -30v-29zM1704 1178v356h135v-37h-86v-121h72v-37h-72v-131h90v-30h-139zM1724 864l52 15q5 -55 14 -64q12 -12 28 -14t27 10q16 11 16 33t-12 37
q-2 2 -9 12.5t-14 17.5t-16 11q-1 1 -30 26t-39 41q-22 33 -11 77.5t52 57.5q43 10 86 -14q33 -24 33 -76l-41 -16q-4 58 -37 63q-18 7 -30.5 -1t-14.5 -23q-6 -8 -3 -18.5t4.5 -16t9.5 -14.5t13 -13.5t15 -13t14 -12.5q2 -2 16 -13t17.5 -14.5l13.5 -13.5t14 -17t8 -18
t5 -23q8 -43 -15.5 -75.5t-66.5 -32.5t-69.5 29t-29.5 73zM1763 -502v180h27l33 -143l28 143h23l8 -180h-18l-4 133l-29 -133h-21l-24 133l-4 -133h-19zM1769 -272v182q4 0 16 0.5t18.5 0.5t16.5 -2t17 -5q21 -11 22 -45t-22 -43l27 -88h-27l-27 84h-20v-84h-21zM1786 492
v188q4 0 16 0.5t19.5 0.5t17.5 -2t17 -7t12 -13q12 -46 -4 -69q-15 -12 -54 -12v-86h-24zM1790 -172q23 0 35 6.5t12 26.5t-11 25t-36 5v-63zM1810 594q21 0 27 4q12 8 12 37q0 23 -8 28t-31 5v-74zM1849 -27v445h76v-445h-76zM1882 1178v356q6 0 34.5 0.5t40 0t31 -4
t33.5 -10.5q40 -22 41 -86.5t-41 -79.5l43 -176h-43l-49 163h-37v-163h-53zM1901 492v188h16v-168h51v-20h-67zM1911 -502v180h71v-16h-43v-57h35v-19h-35v-71h43v-17h-71zM1925 -109v19h92v-19h-35v-163h-26v163h-31zM1935 1376q34 0 52 4q33 14 26 66q0 38 -26 47
q-8 4 -16.5 5t-21.5 0t-14 -1v-121zM1950 766v358h135v-43h-88v-112h71v-37h-71v-133h88v-33h-135zM1964 -27l8 445h70l51 -279l51 279h78l4 -445h-67l-2 185l-37 -185h-52l-34 183v-183h-70zM1987 492v188h67v-12h-45v-70h39v-20h-39v-66h45v-20h-67zM2001 -502v180
q9 0 25 1.5t26.5 1t18.5 -4.5q19 -14 19 -46.5t-22 -41.5l27 -90h-24l-21 88h-20v-88h-29zM2030 -395q15 0 21 0.5t11.5 6.5t5.5 19q0 19 -9.5 25t-28.5 6v-57zM2030 -272v182h22v-82h49v82h25v-182h-25v84h-49v-84h-22zM2064 492l39 188h31l35 -188h-27l-8 51h-39l-6 -51
h-25zM2095 557h39l-18 92zM2095 1276l49 12q3 -42 21 -63q14 -12 31.5 -13t29.5 9q13 12 12 31.5t-12 35.5q-23 28 -41 41q-5 5 -21 18.5t-28 24.5t-20 21q-25 41 -14 84.5t55 52.5q20 8 45.5 5t42.5 -15q25 -16 30 -72l-37 -14q-2 5 -5.5 18.5t-6.5 21t-10 16t-16 11.5
q-18 0 -34 -8.5t-20 -22.5q-7 -45 64 -94q2 -2 16.5 -16t19 -19t14 -16.5t14 -21.5t7.5 -21q8 -44 -15 -76t-66 -32q-48 0 -75 28.5t-30 73.5zM2116 -375q0 27 15.5 43t45.5 10q22 0 28.5 -15.5t6.5 -43.5h-25q0 2 1.5 9t1 13.5t-4.5 10.5q-1 12 -16.5 12.5t-22.5 -8.5
q-5 -6 -6.5 -18t-0.5 -31l1 -19q0 -2 -0.5 -12t-1 -18t1.5 -17.5t6 -15.5q7 -9 22.5 -7.5t16.5 13.5q4 4 4.5 10t-1 13t-1.5 10h25q0 -19 -2 -31.5t-13 -24.5t-32 -12q-19 0 -30.5 8t-15.5 25t-5 29.5t0.5 36t1.5 30.5zM2152 -272v182h74v-19h-43v-63h35v-16h-35v-70h43v-14
h-74zM2183 543l27 10q0 -35 12 -41q29 0 29 20q0 11 -7 22t-19 22.5t-15 15.5q-21 15 -26 38t16 42q22 18 49 6q24 -12 24 -47l-22 -4q-9 39 -27 38q-12 -1 -14 -16q-6 -25 20 -51q2 -1 6 -4t6.5 -4.5t6.5 -4t6 -4.5l5 -5t5 -5.5t4 -5.5t3 -6t1 -6q8 -25 -4.5 -43t-38.5 -18
q-19 0 -32 15.5t-15 35.5zM2222 911q0 13 -0.5 38.5t-0.5 41t1 37t4 37.5q20 59 86 59q76 0 92 -51q9 -19 11 -43.5t0 -62t-2 -45.5q0 -9 0.5 -23.5t0.5 -22.5t-1 -19.5t-5 -20.5q-3 -36 -26.5 -55t-59.5 -19q-40 0 -66.5 19.5t-29.5 56.5q-4 25 -4 73zM2241 -502v180h24
v-180h-24zM2263 -27v445h109q39 0 68.5 -40.5t29.5 -109.5q0 -129 -82 -149q-16 -6 -53 -6v-140h-72zM2273 879v-6q0 -59 21 -70q26 -7 43 0q26 17 30 47q1 5 1 12.5t-0.5 15.5t-0.5 11v129q0 43 -14 55l-6 3l-6 3t-5.5 2.5t-5.5 2t-5 1t-5.5 0.5t-5 -1t-4.5 -3
q-25 0 -37 -26q-3 -16 -3 -35.5t1.5 -43t1.5 -34.5v-63zM2284 -502l38 180h25l41 -180h-23l-10 47h-37l-8 -47h-26zM2294 492v188h73v-12h-45v-70h33v-20h-33v-66h48v-20h-76zM2304 -272v182h68v-19h-50v-63h33v-16h-33v-84h-18zM2322 -442h31l-16 90zM2335 180h39
q13 5 19 48t-1.5 84.5t-28.5 41.5h-28v-174zM2367 1284v-4q0 -55 25 -66q9 -4 22.5 -4t20.5 4q27 11 27 48v163q0 45 -19 60q-12 20 -39 12q-26 -3 -34 -37q-6 -12 -7 -31t1.5 -45t2.5 -36v-64zM2388 -229v41v98h20v-82q0 -3 -1 -17t-0.5 -23.5t2.5 -21.5t8 -18t16 -6
q7 0 12.5 3.5t8.5 10t5 13t2.5 16.5t0.5 16v15.5v11.5v82h22v-84v-11.5v-13t-0.5 -12.5t-1.5 -13.5t-2 -11.5t-4 -11.5t-6 -10t-8 -9t-11 -5.5q-57 -12 -63 43zM2404 -502v180h27v-163h49v-17h-76zM2431 680h29l24 -137l29 137h22l-38 -188h-25zM2468 766v358h35l100 -239
v239h43v-358h-35l-104 244v-244h-39zM2509 -27v445h76v-369h92v-76h-168zM2513 -272v182h27v-168h40v-14h-67zM2542 -322h20l27 -133l30 133h21l-41 -180h-19zM2554 492v188h26v-188h-26zM2562 1178v356h29l102 -242v242h45v-356h-35l-100 239v-239h-41zM2599 -272v182h24
v-168h46v-14h-70zM2603 543l25 10q0 -32 18 -41q23 0 23 20q1 6 -0.5 12t-4 10.5t-8 11t-8.5 9t-10.5 9.5t-9.5 8q-18 17 -23.5 38.5t14.5 41.5q30 17 47 6q23 -12 27 -47l-24 -4q-2 24 -9.5 32.5t-16 4.5t-13.5 -15q-1 -8 -1.5 -13t3.5 -11.5t7 -10t8 -9t7 -7.5
q37 -25 39 -45q7 -25 -5.5 -43t-35.5 -18q-41 0 -49 51zM2660 -502v180h76v-16h-49v-57h39v-19h-39v-71h49v-17h-76zM2703 766v358h50v-325h83v-33h-133zM2716 -27v445h172v-76h-101v-96h82v-80h-82v-117h101v-76h-172zM2716 492v188h30v-188h-30zM2736 -272l33 182h29
l38 -182h-26l-6 45h-35l-12 -45h-21zM2755 -502v180q7 0 22.5 1.5t26.5 1t20 -4.5q21 -13 19.5 -47t-25.5 -41l27 -90h-25l-22 88h-19v-88h-24zM2761 668v12h84v-12h-29v-176h-20v176h-35zM2769 -211h29l-15 84zM2773 1178l78 356h47l78 -356h-49l-17 84h-74l-18 -84h-45z
M2779 -395q16 0 22 0.5t11.5 6.5t5.5 19q0 19 -9 25t-30 6v-57zM2845 1298h57l-27 162zM2855 -272v182h16l49 -121v121h25v-182h-18l-48 122v-122h-24zM2855 1124h43l53 -172l55 172h50q-5 -20 -50 -151l-24 -70q-3 -8 -3.5 -17t0.5 -20t1 -14v-86h-53v74v53q-10 49 -25 70z
M2865 -449l25 5q0 -30 12 -35q13 -6 23 0.5t10 17.5q0 16 -45 53q-20 18 -23.5 42t15.5 36q12 10 26 12t21 -4q22 -9 22 -40l-16 -11q-2 4 -4.5 13.5t-5.5 14.5t-7 7q-15 8 -26 -10q-2 -4 -2.5 -8t1 -8t2.5 -6.5t5 -6.5l6 -6t7 -6t7 -6q3 -5 12.5 -13.5t15 -17.5t5.5 -20
q9 -22 -1 -40t-34 -18q-25 0 -38 15t-13 40zM2925 156v75h94v-75h-94zM2976 -272v182q1 0 12.5 0.5t17.5 0t16 -1.5t18.5 -4.5t15.5 -8.5q6 -5 9 -15.5t3 -19.5t-1 -24.5t-1 -20.5t0.5 -17t0.5 -19t-1.5 -16t-6 -15.5t-12.5 -10.5q-5 -4 -12.5 -6.5t-16 -3t-15 -1t-16 0
t-11.5 0.5zM2980 -502v180h22v-180h-22zM3000 -258q13 0 19 1t13 7.5t11 20.5v90q-1 15 -7.5 21.5t-13 7.5t-22.5 1v-149zM3011 1178v356h53v-326h88v-30h-141zM3013 342v76h200v-76h-61v-369h-78v369h-61zM3029 -408q0 19 0.5 29t3.5 24.5t8.5 20.5t16.5 10t28 2
q8 0 15 -1.5t11.5 -5.5t8 -7.5t5.5 -10.5t3 -11.5t1.5 -13t0.5 -13v-14.5v-13q0 -22 -0.5 -31.5t-4.5 -27t-15 -25.5t-29 -8q-15 0 -26 6.5t-16 14t-8 22t-3 22.5v24v7zM3062 -395q0 -3 -3 -26t-1.5 -38.5t10.5 -19.5q7 -4 13.5 -5t10.5 1.5t7 6t5 10t3 12t1.5 13.5t0.5 12
v11q0 1 0.5 13.5t0 20t-1.5 18t-3.5 16.5t-7.5 8q-35 14 -35 -27v-26zM3082 766v49h49v-49h-49zM3082 1124h49l-18 -282h-16zM3158 -502v180h14l58 -120v120h20v-180h-18l-60 127v-127h-14zM3250 -27v445h78v-178h68v178h69v-445h-69v187h-68v-187h-78zM3504 -27v445h129
q29 0 54.5 -30.5t25.5 -86.5q0 -86 -53 -121l49 -207h-74l-39 193h-20v-193h-72zM3576 229h41q12 6 16.5 37t-4.5 59.5t-29 28.5h-24v-125zM3752 -27v445h172v-76h-100v-96h82v-80h-82v-117h100v-76h-172zM3932 -27l82 445h70l75 -445h-73l-15 107h-47l-16 -107h-76z
M4035 143h24l-12 88zM4168 -27v445h71q66 0 95.5 -34t29.5 -105v-166q0 -72 -27 -106t-87 -34h-82zM4239 43h25q22 11 22 25q3 30 3 65v119q0 36 -3 63q0 8 -7 17.5t-15 9.5h-25v-299z" />
    <glyph glyph-name="uni0030" unicode="7" horiz-adv-x="4741" 
d="M2408 1174q-78 0 -90 75q-4 23 -4 64q0 8 -0.5 39.5t0 46t2.5 37t6 37.5q11 59 82 63q81 0 99 -51q6 -16 9 -38t3 -39t-1 -44t-1 -37q0 -59 -6 -82q-14 -71 -99 -71zM264 -23l6 443h72l53 -279l51 279h76l2 -443h-63l-6 183l-31 -183h-53l-37 181l-4 -181h-66zM582 -23
v443h55l76 -213v213h69v-443h-53l-78 216v-216h-69zM834 -23v80h75v-80h-75zM936 133l70 2q0 -53 16 -78q13 -21 29 -14q18 6 18 37q0 20 -10 38t-33.5 43.5t-26.5 28.5q-5 6 -15 15t-16.5 16.5t-9.5 14.5q-27 50 -16 102q1 49 46 74.5t91 3.5q58 -28 58 -142l-68 -4
q-1 6 -3 32.5t-7.5 39t-18.5 14.5q-23 1 -30.5 -21.5t0.5 -33.5q4 -12 10 -20.5t18.5 -19.5t14.5 -13l34 -41q61 -61 52 -146q-2 -31 -22.5 -56t-55.5 -34q-33 -5 -63.5 9.5t-43.5 44.5q-18 49 -18 108zM1174 199q0 11 -1 40t-0.5 50t3.5 39q11 71 63 92q60 15 100 -10
q22 -13 33 -39.5t12.5 -45.5t1.5 -51v-10h-71q0 55 -4.5 70.5t-18.5 21.5q-41 5 -41 -59v-162q0 -3 -1 -17t-0.5 -23.5t2.5 -21.5t8 -20t16 -10q16 -6 26.5 1t14 27.5t4 31.5t0.5 31v7h-45v66h115v-230h-58l-4 15q-20 -20 -52.5 -21t-55.5 15q-36 16 -45 90q-3 19 -3.5 39
t0.5 46.5t1 37.5zM1368 -375q0 27 16 43t46 10q17 0 25.5 -10t9.5 -19.5t1 -29.5h-22q0 28 -2 33q-6 12 -20 12.5t-21 -8.5q-3 -5 -5 -15t-2 -18t0.5 -20.5t0.5 -14.5l-1 -12q0 -12 0.5 -19t2.5 -16.5t6 -15.5q6 -9 19.5 -7.5t19.5 13.5q2 5 2 33h22q0 -68 -43 -68
q-16 0 -27.5 7t-17 15.5t-8.5 25t-3 26.5t0.5 30t0.5 25zM1405 -80l119 557h69l-125 -557h-63zM1487 -408q0 19 0.5 29t3 24.5t7.5 20.5t15 10t25 2q15 0 25 -5.5t15 -12t8 -20t3 -21.5v-24v-7v-7q0 -19 -1 -29.5t-5 -26t-15.5 -22.5t-29.5 -7q-12 0 -21.5 3t-14.5 10
t-8.5 12.5t-5 17.5t-2 17t0 19.5t0.5 16.5zM1491 1178v356h76q68 0 88 -39q19 -31 14.5 -72.5t-33.5 -62.5q-6 -6 -14 -10t-14 -6.5t-18.5 -3.5t-17 -1h-18.5h-16v-161h-47zM1493 903v221h45v-239q0 -70 31 -86q36 -11 51.5 15t15.5 65v114v131h50v-161q0 -8 1 -34
t0.5 -40.5t-3 -37.5t-9 -37.5t-19 -28t-30.5 -19.5q-32 -16 -71 -1.5t-52 50.5q-10 25 -10 88zM1509 -395q0 -1 -0.5 -14t0 -21.5t1.5 -20t4.5 -19t9.5 -9.5q7 -4 13 -5t10 1t7 5t4.5 9.5t2.5 11t1.5 13t0.5 12v11.5v3q0 71 -15 76q-17 8 -28 -1t-11 -26v-26zM1538 1376
q40 0 55 4q29 7 29 54q0 55 -29 61q-10 3 -19.5 3.5t-20.5 -0.5t-15 -1v-121zM1554 -272v182h72v-19h-43v-63h35v-16h-35v-84h-29zM1610 131l69 2q0 -51 15 -78q4 -22 26 -16q17 4 17 37q0 17 -8.5 35t-15 26.5t-25.5 27.5l-21 21q-6 10 -19.5 24.5t-15.5 20.5
q-30 37 -22 105q3 49 48.5 74t90.5 4q59 -26 59 -142l-71 -4v5q0 75 -27 81q-21 1 -27.5 -21t0.5 -36q7 -21 37 -51l37 -39q61 -68 53 -148q-2 -32 -22.5 -57.5t-54.5 -34.5q-33 -3 -64 11t-45 45q-14 33 -14 108zM1614 -502v180h26l37 -143l27 143h25l4 -180h-19v133
l-28 -133h-21l-31 133v-133h-20zM1640 -176q0 17 0.5 26.5t3.5 23.5t9 21.5t17.5 13t27.5 5.5q16 -3 26 -12t14 -24.5t4.5 -25.5t0.5 -29v-7q0 -20 -1 -31t-5 -26.5t-15 -23t-28 -7.5q-16 0 -27.5 7t-16.5 14t-7.5 24.5t-2.5 23.5v27zM1667 -172q0 -1 -1 -17.5t-1 -27.5
t5 -23.5t16 -15.5q12 -3 19 2t9.5 18.5t3 21.5t0.5 24q0 2 0.5 13.5t0.5 20t-1 19t-4.5 17.5t-9.5 9q-13 9 -25 -2t-12 -30v-29zM1704 1178v356h135v-37h-86v-121h72v-37h-72v-131h90v-30h-139zM1724 864l52 15q5 -55 14 -64q12 -12 28 -14t27 10q16 11 16 33t-12 37
q-2 2 -9 12.5t-14 17.5t-16 11q-1 1 -30 26t-39 41q-22 33 -11 77.5t52 57.5q43 10 86 -14q33 -24 33 -76l-41 -16q-4 58 -37 63q-18 7 -30.5 -1t-14.5 -23q-6 -8 -3 -18.5t4.5 -16t9.5 -14.5t13 -13.5t15 -13t14 -12.5q2 -2 16 -13t17.5 -14.5l13.5 -13.5t14 -17t8 -18
t5 -23q8 -43 -15.5 -75.5t-66.5 -32.5t-69.5 29t-29.5 73zM1763 -502v180h27l33 -143l28 143h23l8 -180h-18l-4 133l-29 -133h-21l-24 133l-4 -133h-19zM1769 -272v182q4 0 16 0.5t18.5 0.5t16.5 -2t17 -5q21 -11 22 -45t-22 -43l27 -88h-27l-27 84h-20v-84h-21zM1786 492
v188q4 0 16 0.5t19.5 0.5t17.5 -2t17 -7t12 -13q12 -46 -4 -69q-15 -12 -54 -12v-86h-24zM1790 -172q23 0 35 6.5t12 26.5t-11 25t-36 5v-63zM1810 594q21 0 27 4q12 8 12 37q0 23 -8 28t-31 5v-74zM1849 -27v445h76v-445h-76zM1882 1178v356q6 0 34.5 0.5t40 0t31 -4
t33.5 -10.5q40 -22 41 -86.5t-41 -79.5l43 -176h-43l-49 163h-37v-163h-53zM1901 492v188h16v-168h51v-20h-67zM1911 -502v180h71v-16h-43v-57h35v-19h-35v-71h43v-17h-71zM1925 -109v19h92v-19h-35v-163h-26v163h-31zM1935 1376q34 0 52 4q33 14 26 66q0 38 -26 47
q-8 4 -16.5 5t-21.5 0t-14 -1v-121zM1950 766v358h135v-43h-88v-112h71v-37h-71v-133h88v-33h-135zM1964 -27l8 445h70l51 -279l51 279h78l4 -445h-67l-2 185l-37 -185h-52l-34 183v-183h-70zM1987 492v188h67v-12h-45v-70h39v-20h-39v-66h45v-20h-67zM2001 -502v180
q9 0 25 1.5t26.5 1t18.5 -4.5q19 -14 19 -46.5t-22 -41.5l27 -90h-24l-21 88h-20v-88h-29zM2030 -395q15 0 21 0.5t11.5 6.5t5.5 19q0 19 -9.5 25t-28.5 6v-57zM2030 -272v182h22v-82h49v82h25v-182h-25v84h-49v-84h-22zM2064 492l39 188h31l35 -188h-27l-8 51h-39l-6 -51
h-25zM2095 557h39l-18 92zM2095 1276l49 12q3 -42 21 -63q14 -12 31.5 -13t29.5 9q13 12 12 31.5t-12 35.5q-23 28 -41 41q-5 5 -21 18.5t-28 24.5t-20 21q-25 41 -14 84.5t55 52.5q20 8 45.5 5t42.5 -15q25 -16 30 -72l-37 -14q-2 5 -5.5 18.5t-6.5 21t-10 16t-16 11.5
q-18 0 -34 -8.5t-20 -22.5q-7 -45 64 -94q2 -2 16.5 -16t19 -19t14 -16.5t14 -21.5t7.5 -21q8 -44 -15 -76t-66 -32q-48 0 -75 28.5t-30 73.5zM2116 -375q0 27 15.5 43t45.5 10q22 0 28.5 -15.5t6.5 -43.5h-25q0 2 1.5 9t1 13.5t-4.5 10.5q-1 12 -16.5 12.5t-22.5 -8.5
q-5 -6 -6.5 -18t-0.5 -31l1 -19q0 -2 -0.5 -12t-1 -18t1.5 -17.5t6 -15.5q7 -9 22.5 -7.5t16.5 13.5q4 4 4.5 10t-1 13t-1.5 10h25q0 -19 -2 -31.5t-13 -24.5t-32 -12q-19 0 -30.5 8t-15.5 25t-5 29.5t0.5 36t1.5 30.5zM2152 -272v182h74v-19h-43v-63h35v-16h-35v-70h43v-14
h-74zM2183 543l27 10q0 -35 12 -41q29 0 29 20q0 11 -7 22t-19 22.5t-15 15.5q-21 15 -26 38t16 42q22 18 49 6q24 -12 24 -47l-22 -4q-9 39 -27 38q-12 -1 -14 -16q-6 -25 20 -51q2 -1 6 -4t6.5 -4.5t6.5 -4t6 -4.5l5 -5t5 -5.5t4 -5.5t3 -6t1 -6q8 -25 -4.5 -43t-38.5 -18
q-19 0 -32 15.5t-15 35.5zM2222 911q0 13 -0.5 38.5t-0.5 41t1 37t4 37.5q20 59 86 59q76 0 92 -51q9 -19 11 -43.5t0 -62t-2 -45.5q0 -9 0.5 -23.5t0.5 -22.5t-1 -19.5t-5 -20.5q-3 -36 -26.5 -55t-59.5 -19q-40 0 -66.5 19.5t-29.5 56.5q-4 25 -4 73zM2241 -502v180h24
v-180h-24zM2263 -27v445h109q39 0 68.5 -40.5t29.5 -109.5q0 -129 -82 -149q-16 -6 -53 -6v-140h-72zM2273 879v-6q0 -59 21 -70q26 -7 43 0q26 17 30 47q1 5 1 12.5t-0.5 15.5t-0.5 11v129q0 43 -14 55l-6 3l-6 3t-5.5 2.5t-5.5 2t-5 1t-5.5 0.5t-5 -1t-4.5 -3
q-25 0 -37 -26q-3 -16 -3 -35.5t1.5 -43t1.5 -34.5v-63zM2284 -502l38 180h25l41 -180h-23l-10 47h-37l-8 -47h-26zM2294 492v188h73v-12h-45v-70h33v-20h-33v-66h48v-20h-76zM2304 -272v182h68v-19h-50v-63h33v-16h-33v-84h-18zM2322 -442h31l-16 90zM2335 180h39
q13 5 19 48t-1.5 84.5t-28.5 41.5h-28v-174zM2367 1284v-4q0 -55 25 -66q9 -4 22.5 -4t20.5 4q27 11 27 48v163q0 45 -19 60q-12 20 -39 12q-26 -3 -34 -37q-6 -12 -7 -31t1.5 -45t2.5 -36v-64zM2388 -229v41v98h20v-82q0 -3 -1 -17t-0.5 -23.5t2.5 -21.5t8 -18t16 -6
q7 0 12.5 3.5t8.5 10t5 13t2.5 16.5t0.5 16v15.5v11.5v82h22v-84v-11.5v-13t-0.5 -12.5t-1.5 -13.5t-2 -11.5t-4 -11.5t-6 -10t-8 -9t-11 -5.5q-57 -12 -63 43zM2404 -502v180h27v-163h49v-17h-76zM2431 680h29l24 -137l29 137h22l-38 -188h-25zM2468 766v358h35l100 -239
v239h43v-358h-35l-104 244v-244h-39zM2509 -27v445h76v-369h92v-76h-168zM2513 -272v182h27v-168h40v-14h-67zM2542 -322h20l27 -133l30 133h21l-41 -180h-19zM2554 492v188h26v-188h-26zM2562 1178v356h29l102 -242v242h45v-356h-35l-100 239v-239h-41zM2599 -272v182h24
v-168h46v-14h-70zM2603 543l25 10q0 -32 18 -41q23 0 23 20q1 6 -0.5 12t-4 10.5t-8 11t-8.5 9t-10.5 9.5t-9.5 8q-18 17 -23.5 38.5t14.5 41.5q30 17 47 6q23 -12 27 -47l-24 -4q-2 24 -9.5 32.5t-16 4.5t-13.5 -15q-1 -8 -1.5 -13t3.5 -11.5t7 -10t8 -9t7 -7.5
q37 -25 39 -45q7 -25 -5.5 -43t-35.5 -18q-41 0 -49 51zM2660 -502v180h76v-16h-49v-57h39v-19h-39v-71h49v-17h-76zM2703 766v358h50v-325h83v-33h-133zM2716 -27v445h172v-76h-101v-96h82v-80h-82v-117h101v-76h-172zM2716 492v188h30v-188h-30zM2736 -272l33 182h29
l38 -182h-26l-6 45h-35l-12 -45h-21zM2755 -502v180q7 0 22.5 1.5t26.5 1t20 -4.5q21 -13 19.5 -47t-25.5 -41l27 -90h-25l-22 88h-19v-88h-24zM2761 668v12h84v-12h-29v-176h-20v176h-35zM2769 -211h29l-15 84zM2773 1178l78 356h47l78 -356h-49l-17 84h-74l-18 -84h-45z
M2779 -395q16 0 22 0.5t11.5 6.5t5.5 19q0 19 -9 25t-30 6v-57zM2845 1298h57l-27 162zM2855 -272v182h16l49 -121v121h25v-182h-18l-48 122v-122h-24zM2855 1124h43l53 -172l55 172h50q-5 -20 -50 -151l-24 -70q-3 -8 -3.5 -17t0.5 -20t1 -14v-86h-53v74v53q-10 49 -25 70z
M2865 -449l25 5q0 -30 12 -35q13 -6 23 0.5t10 17.5q0 16 -45 53q-20 18 -23.5 42t15.5 36q12 10 26 12t21 -4q22 -9 22 -40l-16 -11q-2 4 -4.5 13.5t-5.5 14.5t-7 7q-15 8 -26 -10q-2 -4 -2.5 -8t1 -8t2.5 -6.5t5 -6.5l6 -6t7 -6t7 -6q3 -5 12.5 -13.5t15 -17.5t5.5 -20
q9 -22 -1 -40t-34 -18q-25 0 -38 15t-13 40zM2925 156v75h94v-75h-94zM2976 -272v182q1 0 12.5 0.5t17.5 0t16 -1.5t18.5 -4.5t15.5 -8.5q6 -5 9 -15.5t3 -19.5t-1 -24.5t-1 -20.5t0.5 -17t0.5 -19t-1.5 -16t-6 -15.5t-12.5 -10.5q-5 -4 -12.5 -6.5t-16 -3t-15 -1t-16 0
t-11.5 0.5zM2980 -502v180h22v-180h-22zM3000 -258q13 0 19 1t13 7.5t11 20.5v90q-1 15 -7.5 21.5t-13 7.5t-22.5 1v-149zM3011 1178v356h53v-326h88v-30h-141zM3013 342v76h200v-76h-61v-369h-78v369h-61zM3029 -408q0 19 0.5 29t3.5 24.5t8.5 20.5t16.5 10t28 2
q8 0 15 -1.5t11.5 -5.5t8 -7.5t5.5 -10.5t3 -11.5t1.5 -13t0.5 -13v-14.5v-13q0 -22 -0.5 -31.5t-4.5 -27t-15 -25.5t-29 -8q-15 0 -26 6.5t-16 14t-8 22t-3 22.5v24v7zM3062 -395q0 -3 -3 -26t-1.5 -38.5t10.5 -19.5q7 -4 13.5 -5t10.5 1.5t7 6t5 10t3 12t1.5 13.5t0.5 12
v11q0 1 0.5 13.5t0 20t-1.5 18t-3.5 16.5t-7.5 8q-35 14 -35 -27v-26zM3082 766v49h49v-49h-49zM3082 1124h49l-18 -282h-16zM3158 -502v180h14l58 -120v120h20v-180h-18l-60 127v-127h-14zM3250 -27v445h78v-178h68v178h69v-445h-69v187h-68v-187h-78zM3504 -27v445h129
q29 0 54.5 -30.5t25.5 -86.5q0 -86 -53 -121l49 -207h-74l-39 193h-20v-193h-72zM3576 229h41q12 6 16.5 37t-4.5 59.5t-29 28.5h-24v-125zM3752 -27v445h172v-76h-100v-96h82v-80h-82v-117h100v-76h-172zM3932 -27l82 445h70l75 -445h-73l-15 107h-47l-16 -107h-76z
M4035 143h24l-12 88zM4168 -27v445h71q66 0 95.5 -34t29.5 -105v-166q0 -72 -27 -106t-87 -34h-82zM4239 43h25q22 11 22 25q3 30 3 65v119q0 36 -3 63q0 8 -7 17.5t-15 9.5h-25v-299z" />
    <glyph glyph-name="uni0030" unicode="6" horiz-adv-x="4741" 
d="M2408 1174q-78 0 -90 75q-4 23 -4 64q0 8 -0.5 39.5t0 46t2.5 37t6 37.5q11 59 82 63q81 0 99 -51q6 -16 9 -38t3 -39t-1 -44t-1 -37q0 -59 -6 -82q-14 -71 -99 -71zM264 -23l6 443h72l53 -279l51 279h76l2 -443h-63l-6 183l-31 -183h-53l-37 181l-4 -181h-66zM582 -23
v443h55l76 -213v213h69v-443h-53l-78 216v-216h-69zM834 -23v80h75v-80h-75zM936 133l70 2q0 -53 16 -78q13 -21 29 -14q18 6 18 37q0 20 -10 38t-33.5 43.5t-26.5 28.5q-5 6 -15 15t-16.5 16.5t-9.5 14.5q-27 50 -16 102q1 49 46 74.5t91 3.5q58 -28 58 -142l-68 -4
q-1 6 -3 32.5t-7.5 39t-18.5 14.5q-23 1 -30.5 -21.5t0.5 -33.5q4 -12 10 -20.5t18.5 -19.5t14.5 -13l34 -41q61 -61 52 -146q-2 -31 -22.5 -56t-55.5 -34q-33 -5 -63.5 9.5t-43.5 44.5q-18 49 -18 108zM1174 199q0 11 -1 40t-0.5 50t3.5 39q11 71 63 92q60 15 100 -10
q22 -13 33 -39.5t12.5 -45.5t1.5 -51v-10h-71q0 55 -4.5 70.5t-18.5 21.5q-41 5 -41 -59v-162q0 -3 -1 -17t-0.5 -23.5t2.5 -21.5t8 -20t16 -10q16 -6 26.5 1t14 27.5t4 31.5t0.5 31v7h-45v66h115v-230h-58l-4 15q-20 -20 -52.5 -21t-55.5 15q-36 16 -45 90q-3 19 -3.5 39
t0.5 46.5t1 37.5zM1368 -375q0 27 16 43t46 10q17 0 25.5 -10t9.5 -19.5t1 -29.5h-22q0 28 -2 33q-6 12 -20 12.5t-21 -8.5q-3 -5 -5 -15t-2 -18t0.5 -20.5t0.5 -14.5l-1 -12q0 -12 0.5 -19t2.5 -16.5t6 -15.5q6 -9 19.5 -7.5t19.5 13.5q2 5 2 33h22q0 -68 -43 -68
q-16 0 -27.5 7t-17 15.5t-8.5 25t-3 26.5t0.5 30t0.5 25zM1405 -80l119 557h69l-125 -557h-63zM1487 -408q0 19 0.5 29t3 24.5t7.5 20.5t15 10t25 2q15 0 25 -5.5t15 -12t8 -20t3 -21.5v-24v-7v-7q0 -19 -1 -29.5t-5 -26t-15.5 -22.5t-29.5 -7q-12 0 -21.5 3t-14.5 10
t-8.5 12.5t-5 17.5t-2 17t0 19.5t0.5 16.5zM1491 1178v356h76q68 0 88 -39q19 -31 14.5 -72.5t-33.5 -62.5q-6 -6 -14 -10t-14 -6.5t-18.5 -3.5t-17 -1h-18.5h-16v-161h-47zM1493 903v221h45v-239q0 -70 31 -86q36 -11 51.5 15t15.5 65v114v131h50v-161q0 -8 1 -34
t0.5 -40.5t-3 -37.5t-9 -37.5t-19 -28t-30.5 -19.5q-32 -16 -71 -1.5t-52 50.5q-10 25 -10 88zM1509 -395q0 -1 -0.5 -14t0 -21.5t1.5 -20t4.5 -19t9.5 -9.5q7 -4 13 -5t10 1t7 5t4.5 9.5t2.5 11t1.5 13t0.5 12v11.5v3q0 71 -15 76q-17 8 -28 -1t-11 -26v-26zM1538 1376
q40 0 55 4q29 7 29 54q0 55 -29 61q-10 3 -19.5 3.5t-20.5 -0.5t-15 -1v-121zM1554 -272v182h72v-19h-43v-63h35v-16h-35v-84h-29zM1610 131l69 2q0 -51 15 -78q4 -22 26 -16q17 4 17 37q0 17 -8.5 35t-15 26.5t-25.5 27.5l-21 21q-6 10 -19.5 24.5t-15.5 20.5
q-30 37 -22 105q3 49 48.5 74t90.5 4q59 -26 59 -142l-71 -4v5q0 75 -27 81q-21 1 -27.5 -21t0.5 -36q7 -21 37 -51l37 -39q61 -68 53 -148q-2 -32 -22.5 -57.5t-54.5 -34.5q-33 -3 -64 11t-45 45q-14 33 -14 108zM1614 -502v180h26l37 -143l27 143h25l4 -180h-19v133
l-28 -133h-21l-31 133v-133h-20zM1640 -176q0 17 0.5 26.5t3.5 23.5t9 21.5t17.5 13t27.5 5.5q16 -3 26 -12t14 -24.5t4.5 -25.5t0.5 -29v-7q0 -20 -1 -31t-5 -26.5t-15 -23t-28 -7.5q-16 0 -27.5 7t-16.5 14t-7.5 24.5t-2.5 23.5v27zM1667 -172q0 -1 -1 -17.5t-1 -27.5
t5 -23.5t16 -15.5q12 -3 19 2t9.5 18.5t3 21.5t0.5 24q0 2 0.5 13.5t0.5 20t-1 19t-4.5 17.5t-9.5 9q-13 9 -25 -2t-12 -30v-29zM1704 1178v356h135v-37h-86v-121h72v-37h-72v-131h90v-30h-139zM1724 864l52 15q5 -55 14 -64q12 -12 28 -14t27 10q16 11 16 33t-12 37
q-2 2 -9 12.5t-14 17.5t-16 11q-1 1 -30 26t-39 41q-22 33 -11 77.5t52 57.5q43 10 86 -14q33 -24 33 -76l-41 -16q-4 58 -37 63q-18 7 -30.5 -1t-14.5 -23q-6 -8 -3 -18.5t4.5 -16t9.5 -14.5t13 -13.5t15 -13t14 -12.5q2 -2 16 -13t17.5 -14.5l13.5 -13.5t14 -17t8 -18
t5 -23q8 -43 -15.5 -75.5t-66.5 -32.5t-69.5 29t-29.5 73zM1763 -502v180h27l33 -143l28 143h23l8 -180h-18l-4 133l-29 -133h-21l-24 133l-4 -133h-19zM1769 -272v182q4 0 16 0.5t18.5 0.5t16.5 -2t17 -5q21 -11 22 -45t-22 -43l27 -88h-27l-27 84h-20v-84h-21zM1786 492
v188q4 0 16 0.5t19.5 0.5t17.5 -2t17 -7t12 -13q12 -46 -4 -69q-15 -12 -54 -12v-86h-24zM1790 -172q23 0 35 6.5t12 26.5t-11 25t-36 5v-63zM1810 594q21 0 27 4q12 8 12 37q0 23 -8 28t-31 5v-74zM1849 -27v445h76v-445h-76zM1882 1178v356q6 0 34.5 0.5t40 0t31 -4
t33.5 -10.5q40 -22 41 -86.5t-41 -79.5l43 -176h-43l-49 163h-37v-163h-53zM1901 492v188h16v-168h51v-20h-67zM1911 -502v180h71v-16h-43v-57h35v-19h-35v-71h43v-17h-71zM1925 -109v19h92v-19h-35v-163h-26v163h-31zM1935 1376q34 0 52 4q33 14 26 66q0 38 -26 47
q-8 4 -16.5 5t-21.5 0t-14 -1v-121zM1950 766v358h135v-43h-88v-112h71v-37h-71v-133h88v-33h-135zM1964 -27l8 445h70l51 -279l51 279h78l4 -445h-67l-2 185l-37 -185h-52l-34 183v-183h-70zM1987 492v188h67v-12h-45v-70h39v-20h-39v-66h45v-20h-67zM2001 -502v180
q9 0 25 1.5t26.5 1t18.5 -4.5q19 -14 19 -46.5t-22 -41.5l27 -90h-24l-21 88h-20v-88h-29zM2030 -395q15 0 21 0.5t11.5 6.5t5.5 19q0 19 -9.5 25t-28.5 6v-57zM2030 -272v182h22v-82h49v82h25v-182h-25v84h-49v-84h-22zM2064 492l39 188h31l35 -188h-27l-8 51h-39l-6 -51
h-25zM2095 557h39l-18 92zM2095 1276l49 12q3 -42 21 -63q14 -12 31.5 -13t29.5 9q13 12 12 31.5t-12 35.5q-23 28 -41 41q-5 5 -21 18.5t-28 24.5t-20 21q-25 41 -14 84.5t55 52.5q20 8 45.5 5t42.5 -15q25 -16 30 -72l-37 -14q-2 5 -5.5 18.5t-6.5 21t-10 16t-16 11.5
q-18 0 -34 -8.5t-20 -22.5q-7 -45 64 -94q2 -2 16.5 -16t19 -19t14 -16.5t14 -21.5t7.5 -21q8 -44 -15 -76t-66 -32q-48 0 -75 28.5t-30 73.5zM2116 -375q0 27 15.5 43t45.5 10q22 0 28.5 -15.5t6.5 -43.5h-25q0 2 1.5 9t1 13.5t-4.5 10.5q-1 12 -16.5 12.5t-22.5 -8.5
q-5 -6 -6.5 -18t-0.5 -31l1 -19q0 -2 -0.5 -12t-1 -18t1.5 -17.5t6 -15.5q7 -9 22.5 -7.5t16.5 13.5q4 4 4.5 10t-1 13t-1.5 10h25q0 -19 -2 -31.5t-13 -24.5t-32 -12q-19 0 -30.5 8t-15.5 25t-5 29.5t0.5 36t1.5 30.5zM2152 -272v182h74v-19h-43v-63h35v-16h-35v-70h43v-14
h-74zM2183 543l27 10q0 -35 12 -41q29 0 29 20q0 11 -7 22t-19 22.5t-15 15.5q-21 15 -26 38t16 42q22 18 49 6q24 -12 24 -47l-22 -4q-9 39 -27 38q-12 -1 -14 -16q-6 -25 20 -51q2 -1 6 -4t6.5 -4.5t6.5 -4t6 -4.5l5 -5t5 -5.5t4 -5.5t3 -6t1 -6q8 -25 -4.5 -43t-38.5 -18
q-19 0 -32 15.5t-15 35.5zM2222 911q0 13 -0.5 38.5t-0.5 41t1 37t4 37.5q20 59 86 59q76 0 92 -51q9 -19 11 -43.5t0 -62t-2 -45.5q0 -9 0.5 -23.5t0.5 -22.5t-1 -19.5t-5 -20.5q-3 -36 -26.5 -55t-59.5 -19q-40 0 -66.5 19.5t-29.5 56.5q-4 25 -4 73zM2241 -502v180h24
v-180h-24zM2263 -27v445h109q39 0 68.5 -40.5t29.5 -109.5q0 -129 -82 -149q-16 -6 -53 -6v-140h-72zM2273 879v-6q0 -59 21 -70q26 -7 43 0q26 17 30 47q1 5 1 12.5t-0.5 15.5t-0.5 11v129q0 43 -14 55l-6 3l-6 3t-5.5 2.5t-5.5 2t-5 1t-5.5 0.5t-5 -1t-4.5 -3
q-25 0 -37 -26q-3 -16 -3 -35.5t1.5 -43t1.5 -34.5v-63zM2284 -502l38 180h25l41 -180h-23l-10 47h-37l-8 -47h-26zM2294 492v188h73v-12h-45v-70h33v-20h-33v-66h48v-20h-76zM2304 -272v182h68v-19h-50v-63h33v-16h-33v-84h-18zM2322 -442h31l-16 90zM2335 180h39
q13 5 19 48t-1.5 84.5t-28.5 41.5h-28v-174zM2367 1284v-4q0 -55 25 -66q9 -4 22.5 -4t20.5 4q27 11 27 48v163q0 45 -19 60q-12 20 -39 12q-26 -3 -34 -37q-6 -12 -7 -31t1.5 -45t2.5 -36v-64zM2388 -229v41v98h20v-82q0 -3 -1 -17t-0.5 -23.5t2.5 -21.5t8 -18t16 -6
q7 0 12.5 3.5t8.5 10t5 13t2.5 16.5t0.5 16v15.5v11.5v82h22v-84v-11.5v-13t-0.5 -12.5t-1.5 -13.5t-2 -11.5t-4 -11.5t-6 -10t-8 -9t-11 -5.5q-57 -12 -63 43zM2404 -502v180h27v-163h49v-17h-76zM2431 680h29l24 -137l29 137h22l-38 -188h-25zM2468 766v358h35l100 -239
v239h43v-358h-35l-104 244v-244h-39zM2509 -27v445h76v-369h92v-76h-168zM2513 -272v182h27v-168h40v-14h-67zM2542 -322h20l27 -133l30 133h21l-41 -180h-19zM2554 492v188h26v-188h-26zM2562 1178v356h29l102 -242v242h45v-356h-35l-100 239v-239h-41zM2599 -272v182h24
v-168h46v-14h-70zM2603 543l25 10q0 -32 18 -41q23 0 23 20q1 6 -0.5 12t-4 10.5t-8 11t-8.5 9t-10.5 9.5t-9.5 8q-18 17 -23.5 38.5t14.5 41.5q30 17 47 6q23 -12 27 -47l-24 -4q-2 24 -9.5 32.5t-16 4.5t-13.5 -15q-1 -8 -1.5 -13t3.5 -11.5t7 -10t8 -9t7 -7.5
q37 -25 39 -45q7 -25 -5.5 -43t-35.5 -18q-41 0 -49 51zM2660 -502v180h76v-16h-49v-57h39v-19h-39v-71h49v-17h-76zM2703 766v358h50v-325h83v-33h-133zM2716 -27v445h172v-76h-101v-96h82v-80h-82v-117h101v-76h-172zM2716 492v188h30v-188h-30zM2736 -272l33 182h29
l38 -182h-26l-6 45h-35l-12 -45h-21zM2755 -502v180q7 0 22.5 1.5t26.5 1t20 -4.5q21 -13 19.5 -47t-25.5 -41l27 -90h-25l-22 88h-19v-88h-24zM2761 668v12h84v-12h-29v-176h-20v176h-35zM2769 -211h29l-15 84zM2773 1178l78 356h47l78 -356h-49l-17 84h-74l-18 -84h-45z
M2779 -395q16 0 22 0.5t11.5 6.5t5.5 19q0 19 -9 25t-30 6v-57zM2845 1298h57l-27 162zM2855 -272v182h16l49 -121v121h25v-182h-18l-48 122v-122h-24zM2855 1124h43l53 -172l55 172h50q-5 -20 -50 -151l-24 -70q-3 -8 -3.5 -17t0.5 -20t1 -14v-86h-53v74v53q-10 49 -25 70z
M2865 -449l25 5q0 -30 12 -35q13 -6 23 0.5t10 17.5q0 16 -45 53q-20 18 -23.5 42t15.5 36q12 10 26 12t21 -4q22 -9 22 -40l-16 -11q-2 4 -4.5 13.5t-5.5 14.5t-7 7q-15 8 -26 -10q-2 -4 -2.5 -8t1 -8t2.5 -6.5t5 -6.5l6 -6t7 -6t7 -6q3 -5 12.5 -13.5t15 -17.5t5.5 -20
q9 -22 -1 -40t-34 -18q-25 0 -38 15t-13 40zM2925 156v75h94v-75h-94zM2976 -272v182q1 0 12.5 0.5t17.5 0t16 -1.5t18.5 -4.5t15.5 -8.5q6 -5 9 -15.5t3 -19.5t-1 -24.5t-1 -20.5t0.5 -17t0.5 -19t-1.5 -16t-6 -15.5t-12.5 -10.5q-5 -4 -12.5 -6.5t-16 -3t-15 -1t-16 0
t-11.5 0.5zM2980 -502v180h22v-180h-22zM3000 -258q13 0 19 1t13 7.5t11 20.5v90q-1 15 -7.5 21.5t-13 7.5t-22.5 1v-149zM3011 1178v356h53v-326h88v-30h-141zM3013 342v76h200v-76h-61v-369h-78v369h-61zM3029 -408q0 19 0.5 29t3.5 24.5t8.5 20.5t16.5 10t28 2
q8 0 15 -1.5t11.5 -5.5t8 -7.5t5.5 -10.5t3 -11.5t1.5 -13t0.5 -13v-14.5v-13q0 -22 -0.5 -31.5t-4.5 -27t-15 -25.5t-29 -8q-15 0 -26 6.5t-16 14t-8 22t-3 22.5v24v7zM3062 -395q0 -3 -3 -26t-1.5 -38.5t10.5 -19.5q7 -4 13.5 -5t10.5 1.5t7 6t5 10t3 12t1.5 13.5t0.5 12
v11q0 1 0.5 13.5t0 20t-1.5 18t-3.5 16.5t-7.5 8q-35 14 -35 -27v-26zM3082 766v49h49v-49h-49zM3082 1124h49l-18 -282h-16zM3158 -502v180h14l58 -120v120h20v-180h-18l-60 127v-127h-14zM3250 -27v445h78v-178h68v178h69v-445h-69v187h-68v-187h-78zM3504 -27v445h129
q29 0 54.5 -30.5t25.5 -86.5q0 -86 -53 -121l49 -207h-74l-39 193h-20v-193h-72zM3576 229h41q12 6 16.5 37t-4.5 59.5t-29 28.5h-24v-125zM3752 -27v445h172v-76h-100v-96h82v-80h-82v-117h100v-76h-172zM3932 -27l82 445h70l75 -445h-73l-15 107h-47l-16 -107h-76z
M4035 143h24l-12 88zM4168 -27v445h71q66 0 95.5 -34t29.5 -105v-166q0 -72 -27 -106t-87 -34h-82zM4239 43h25q22 11 22 25q3 30 3 65v119q0 36 -3 63q0 8 -7 17.5t-15 9.5h-25v-299z" />
    <glyph glyph-name="uni0030" unicode="5" horiz-adv-x="4741" 
d="M2408 1174q-78 0 -90 75q-4 23 -4 64q0 8 -0.5 39.5t0 46t2.5 37t6 37.5q11 59 82 63q81 0 99 -51q6 -16 9 -38t3 -39t-1 -44t-1 -37q0 -59 -6 -82q-14 -71 -99 -71zM264 -23l6 443h72l53 -279l51 279h76l2 -443h-63l-6 183l-31 -183h-53l-37 181l-4 -181h-66zM582 -23
v443h55l76 -213v213h69v-443h-53l-78 216v-216h-69zM834 -23v80h75v-80h-75zM936 133l70 2q0 -53 16 -78q13 -21 29 -14q18 6 18 37q0 20 -10 38t-33.5 43.5t-26.5 28.5q-5 6 -15 15t-16.5 16.5t-9.5 14.5q-27 50 -16 102q1 49 46 74.5t91 3.5q58 -28 58 -142l-68 -4
q-1 6 -3 32.5t-7.5 39t-18.5 14.5q-23 1 -30.5 -21.5t0.5 -33.5q4 -12 10 -20.5t18.5 -19.5t14.5 -13l34 -41q61 -61 52 -146q-2 -31 -22.5 -56t-55.5 -34q-33 -5 -63.5 9.5t-43.5 44.5q-18 49 -18 108zM1174 199q0 11 -1 40t-0.5 50t3.5 39q11 71 63 92q60 15 100 -10
q22 -13 33 -39.5t12.5 -45.5t1.5 -51v-10h-71q0 55 -4.5 70.5t-18.5 21.5q-41 5 -41 -59v-162q0 -3 -1 -17t-0.5 -23.5t2.5 -21.5t8 -20t16 -10q16 -6 26.5 1t14 27.5t4 31.5t0.5 31v7h-45v66h115v-230h-58l-4 15q-20 -20 -52.5 -21t-55.5 15q-36 16 -45 90q-3 19 -3.5 39
t0.5 46.5t1 37.5zM1368 -375q0 27 16 43t46 10q17 0 25.5 -10t9.5 -19.5t1 -29.5h-22q0 28 -2 33q-6 12 -20 12.5t-21 -8.5q-3 -5 -5 -15t-2 -18t0.5 -20.5t0.5 -14.5l-1 -12q0 -12 0.5 -19t2.5 -16.5t6 -15.5q6 -9 19.5 -7.5t19.5 13.5q2 5 2 33h22q0 -68 -43 -68
q-16 0 -27.5 7t-17 15.5t-8.5 25t-3 26.5t0.5 30t0.5 25zM1405 -80l119 557h69l-125 -557h-63zM1487 -408q0 19 0.5 29t3 24.5t7.5 20.5t15 10t25 2q15 0 25 -5.5t15 -12t8 -20t3 -21.5v-24v-7v-7q0 -19 -1 -29.5t-5 -26t-15.5 -22.5t-29.5 -7q-12 0 -21.5 3t-14.5 10
t-8.5 12.5t-5 17.5t-2 17t0 19.5t0.5 16.5zM1491 1178v356h76q68 0 88 -39q19 -31 14.5 -72.5t-33.5 -62.5q-6 -6 -14 -10t-14 -6.5t-18.5 -3.5t-17 -1h-18.5h-16v-161h-47zM1493 903v221h45v-239q0 -70 31 -86q36 -11 51.5 15t15.5 65v114v131h50v-161q0 -8 1 -34
t0.5 -40.5t-3 -37.5t-9 -37.5t-19 -28t-30.5 -19.5q-32 -16 -71 -1.5t-52 50.5q-10 25 -10 88zM1509 -395q0 -1 -0.5 -14t0 -21.5t1.5 -20t4.5 -19t9.5 -9.5q7 -4 13 -5t10 1t7 5t4.5 9.5t2.5 11t1.5 13t0.5 12v11.5v3q0 71 -15 76q-17 8 -28 -1t-11 -26v-26zM1538 1376
q40 0 55 4q29 7 29 54q0 55 -29 61q-10 3 -19.5 3.5t-20.5 -0.5t-15 -1v-121zM1554 -272v182h72v-19h-43v-63h35v-16h-35v-84h-29zM1610 131l69 2q0 -51 15 -78q4 -22 26 -16q17 4 17 37q0 17 -8.5 35t-15 26.5t-25.5 27.5l-21 21q-6 10 -19.5 24.5t-15.5 20.5
q-30 37 -22 105q3 49 48.5 74t90.5 4q59 -26 59 -142l-71 -4v5q0 75 -27 81q-21 1 -27.5 -21t0.5 -36q7 -21 37 -51l37 -39q61 -68 53 -148q-2 -32 -22.5 -57.5t-54.5 -34.5q-33 -3 -64 11t-45 45q-14 33 -14 108zM1614 -502v180h26l37 -143l27 143h25l4 -180h-19v133
l-28 -133h-21l-31 133v-133h-20zM1640 -176q0 17 0.5 26.5t3.5 23.5t9 21.5t17.5 13t27.5 5.5q16 -3 26 -12t14 -24.5t4.5 -25.5t0.5 -29v-7q0 -20 -1 -31t-5 -26.5t-15 -23t-28 -7.5q-16 0 -27.5 7t-16.5 14t-7.5 24.5t-2.5 23.5v27zM1667 -172q0 -1 -1 -17.5t-1 -27.5
t5 -23.5t16 -15.5q12 -3 19 2t9.5 18.5t3 21.5t0.5 24q0 2 0.5 13.5t0.5 20t-1 19t-4.5 17.5t-9.5 9q-13 9 -25 -2t-12 -30v-29zM1704 1178v356h135v-37h-86v-121h72v-37h-72v-131h90v-30h-139zM1724 864l52 15q5 -55 14 -64q12 -12 28 -14t27 10q16 11 16 33t-12 37
q-2 2 -9 12.5t-14 17.5t-16 11q-1 1 -30 26t-39 41q-22 33 -11 77.5t52 57.5q43 10 86 -14q33 -24 33 -76l-41 -16q-4 58 -37 63q-18 7 -30.5 -1t-14.5 -23q-6 -8 -3 -18.5t4.5 -16t9.5 -14.5t13 -13.5t15 -13t14 -12.5q2 -2 16 -13t17.5 -14.5l13.5 -13.5t14 -17t8 -18
t5 -23q8 -43 -15.5 -75.5t-66.5 -32.5t-69.5 29t-29.5 73zM1763 -502v180h27l33 -143l28 143h23l8 -180h-18l-4 133l-29 -133h-21l-24 133l-4 -133h-19zM1769 -272v182q4 0 16 0.5t18.5 0.5t16.5 -2t17 -5q21 -11 22 -45t-22 -43l27 -88h-27l-27 84h-20v-84h-21zM1786 492
v188q4 0 16 0.5t19.5 0.5t17.5 -2t17 -7t12 -13q12 -46 -4 -69q-15 -12 -54 -12v-86h-24zM1790 -172q23 0 35 6.5t12 26.5t-11 25t-36 5v-63zM1810 594q21 0 27 4q12 8 12 37q0 23 -8 28t-31 5v-74zM1849 -27v445h76v-445h-76zM1882 1178v356q6 0 34.5 0.5t40 0t31 -4
t33.5 -10.5q40 -22 41 -86.5t-41 -79.5l43 -176h-43l-49 163h-37v-163h-53zM1901 492v188h16v-168h51v-20h-67zM1911 -502v180h71v-16h-43v-57h35v-19h-35v-71h43v-17h-71zM1925 -109v19h92v-19h-35v-163h-26v163h-31zM1935 1376q34 0 52 4q33 14 26 66q0 38 -26 47
q-8 4 -16.5 5t-21.5 0t-14 -1v-121zM1950 766v358h135v-43h-88v-112h71v-37h-71v-133h88v-33h-135zM1964 -27l8 445h70l51 -279l51 279h78l4 -445h-67l-2 185l-37 -185h-52l-34 183v-183h-70zM1987 492v188h67v-12h-45v-70h39v-20h-39v-66h45v-20h-67zM2001 -502v180
q9 0 25 1.5t26.5 1t18.5 -4.5q19 -14 19 -46.5t-22 -41.5l27 -90h-24l-21 88h-20v-88h-29zM2030 -395q15 0 21 0.5t11.5 6.5t5.5 19q0 19 -9.5 25t-28.5 6v-57zM2030 -272v182h22v-82h49v82h25v-182h-25v84h-49v-84h-22zM2064 492l39 188h31l35 -188h-27l-8 51h-39l-6 -51
h-25zM2095 557h39l-18 92zM2095 1276l49 12q3 -42 21 -63q14 -12 31.5 -13t29.5 9q13 12 12 31.5t-12 35.5q-23 28 -41 41q-5 5 -21 18.5t-28 24.5t-20 21q-25 41 -14 84.5t55 52.5q20 8 45.5 5t42.5 -15q25 -16 30 -72l-37 -14q-2 5 -5.5 18.5t-6.5 21t-10 16t-16 11.5
q-18 0 -34 -8.5t-20 -22.5q-7 -45 64 -94q2 -2 16.5 -16t19 -19t14 -16.5t14 -21.5t7.5 -21q8 -44 -15 -76t-66 -32q-48 0 -75 28.5t-30 73.5zM2116 -375q0 27 15.5 43t45.5 10q22 0 28.5 -15.5t6.5 -43.5h-25q0 2 1.5 9t1 13.5t-4.5 10.5q-1 12 -16.5 12.5t-22.5 -8.5
q-5 -6 -6.5 -18t-0.5 -31l1 -19q0 -2 -0.5 -12t-1 -18t1.5 -17.5t6 -15.5q7 -9 22.5 -7.5t16.5 13.5q4 4 4.5 10t-1 13t-1.5 10h25q0 -19 -2 -31.5t-13 -24.5t-32 -12q-19 0 -30.5 8t-15.5 25t-5 29.5t0.5 36t1.5 30.5zM2152 -272v182h74v-19h-43v-63h35v-16h-35v-70h43v-14
h-74zM2183 543l27 10q0 -35 12 -41q29 0 29 20q0 11 -7 22t-19 22.5t-15 15.5q-21 15 -26 38t16 42q22 18 49 6q24 -12 24 -47l-22 -4q-9 39 -27 38q-12 -1 -14 -16q-6 -25 20 -51q2 -1 6 -4t6.5 -4.5t6.5 -4t6 -4.5l5 -5t5 -5.5t4 -5.5t3 -6t1 -6q8 -25 -4.5 -43t-38.5 -18
q-19 0 -32 15.5t-15 35.5zM2222 911q0 13 -0.5 38.5t-0.5 41t1 37t4 37.5q20 59 86 59q76 0 92 -51q9 -19 11 -43.5t0 -62t-2 -45.5q0 -9 0.5 -23.5t0.5 -22.5t-1 -19.5t-5 -20.5q-3 -36 -26.5 -55t-59.5 -19q-40 0 -66.5 19.5t-29.5 56.5q-4 25 -4 73zM2241 -502v180h24
v-180h-24zM2263 -27v445h109q39 0 68.5 -40.5t29.5 -109.5q0 -129 -82 -149q-16 -6 -53 -6v-140h-72zM2273 879v-6q0 -59 21 -70q26 -7 43 0q26 17 30 47q1 5 1 12.5t-0.5 15.5t-0.5 11v129q0 43 -14 55l-6 3l-6 3t-5.5 2.5t-5.5 2t-5 1t-5.5 0.5t-5 -1t-4.5 -3
q-25 0 -37 -26q-3 -16 -3 -35.5t1.5 -43t1.5 -34.5v-63zM2284 -502l38 180h25l41 -180h-23l-10 47h-37l-8 -47h-26zM2294 492v188h73v-12h-45v-70h33v-20h-33v-66h48v-20h-76zM2304 -272v182h68v-19h-50v-63h33v-16h-33v-84h-18zM2322 -442h31l-16 90zM2335 180h39
q13 5 19 48t-1.5 84.5t-28.5 41.5h-28v-174zM2367 1284v-4q0 -55 25 -66q9 -4 22.5 -4t20.5 4q27 11 27 48v163q0 45 -19 60q-12 20 -39 12q-26 -3 -34 -37q-6 -12 -7 -31t1.5 -45t2.5 -36v-64zM2388 -229v41v98h20v-82q0 -3 -1 -17t-0.5 -23.5t2.5 -21.5t8 -18t16 -6
q7 0 12.5 3.5t8.5 10t5 13t2.5 16.5t0.5 16v15.5v11.5v82h22v-84v-11.5v-13t-0.5 -12.5t-1.5 -13.5t-2 -11.5t-4 -11.5t-6 -10t-8 -9t-11 -5.5q-57 -12 -63 43zM2404 -502v180h27v-163h49v-17h-76zM2431 680h29l24 -137l29 137h22l-38 -188h-25zM2468 766v358h35l100 -239
v239h43v-358h-35l-104 244v-244h-39zM2509 -27v445h76v-369h92v-76h-168zM2513 -272v182h27v-168h40v-14h-67zM2542 -322h20l27 -133l30 133h21l-41 -180h-19zM2554 492v188h26v-188h-26zM2562 1178v356h29l102 -242v242h45v-356h-35l-100 239v-239h-41zM2599 -272v182h24
v-168h46v-14h-70zM2603 543l25 10q0 -32 18 -41q23 0 23 20q1 6 -0.5 12t-4 10.5t-8 11t-8.5 9t-10.5 9.5t-9.5 8q-18 17 -23.5 38.5t14.5 41.5q30 17 47 6q23 -12 27 -47l-24 -4q-2 24 -9.5 32.5t-16 4.5t-13.5 -15q-1 -8 -1.5 -13t3.5 -11.5t7 -10t8 -9t7 -7.5
q37 -25 39 -45q7 -25 -5.5 -43t-35.5 -18q-41 0 -49 51zM2660 -502v180h76v-16h-49v-57h39v-19h-39v-71h49v-17h-76zM2703 766v358h50v-325h83v-33h-133zM2716 -27v445h172v-76h-101v-96h82v-80h-82v-117h101v-76h-172zM2716 492v188h30v-188h-30zM2736 -272l33 182h29
l38 -182h-26l-6 45h-35l-12 -45h-21zM2755 -502v180q7 0 22.5 1.5t26.5 1t20 -4.5q21 -13 19.5 -47t-25.5 -41l27 -90h-25l-22 88h-19v-88h-24zM2761 668v12h84v-12h-29v-176h-20v176h-35zM2769 -211h29l-15 84zM2773 1178l78 356h47l78 -356h-49l-17 84h-74l-18 -84h-45z
M2779 -395q16 0 22 0.5t11.5 6.5t5.5 19q0 19 -9 25t-30 6v-57zM2845 1298h57l-27 162zM2855 -272v182h16l49 -121v121h25v-182h-18l-48 122v-122h-24zM2855 1124h43l53 -172l55 172h50q-5 -20 -50 -151l-24 -70q-3 -8 -3.5 -17t0.5 -20t1 -14v-86h-53v74v53q-10 49 -25 70z
M2865 -449l25 5q0 -30 12 -35q13 -6 23 0.5t10 17.5q0 16 -45 53q-20 18 -23.5 42t15.5 36q12 10 26 12t21 -4q22 -9 22 -40l-16 -11q-2 4 -4.5 13.5t-5.5 14.5t-7 7q-15 8 -26 -10q-2 -4 -2.5 -8t1 -8t2.5 -6.5t5 -6.5l6 -6t7 -6t7 -6q3 -5 12.5 -13.5t15 -17.5t5.5 -20
q9 -22 -1 -40t-34 -18q-25 0 -38 15t-13 40zM2925 156v75h94v-75h-94zM2976 -272v182q1 0 12.5 0.5t17.5 0t16 -1.5t18.5 -4.5t15.5 -8.5q6 -5 9 -15.5t3 -19.5t-1 -24.5t-1 -20.5t0.5 -17t0.5 -19t-1.5 -16t-6 -15.5t-12.5 -10.5q-5 -4 -12.5 -6.5t-16 -3t-15 -1t-16 0
t-11.5 0.5zM2980 -502v180h22v-180h-22zM3000 -258q13 0 19 1t13 7.5t11 20.5v90q-1 15 -7.5 21.5t-13 7.5t-22.5 1v-149zM3011 1178v356h53v-326h88v-30h-141zM3013 342v76h200v-76h-61v-369h-78v369h-61zM3029 -408q0 19 0.5 29t3.5 24.5t8.5 20.5t16.5 10t28 2
q8 0 15 -1.5t11.5 -5.5t8 -7.5t5.5 -10.5t3 -11.5t1.5 -13t0.5 -13v-14.5v-13q0 -22 -0.5 -31.5t-4.5 -27t-15 -25.5t-29 -8q-15 0 -26 6.5t-16 14t-8 22t-3 22.5v24v7zM3062 -395q0 -3 -3 -26t-1.5 -38.5t10.5 -19.5q7 -4 13.5 -5t10.5 1.5t7 6t5 10t3 12t1.5 13.5t0.5 12
v11q0 1 0.5 13.5t0 20t-1.5 18t-3.5 16.5t-7.5 8q-35 14 -35 -27v-26zM3082 766v49h49v-49h-49zM3082 1124h49l-18 -282h-16zM3158 -502v180h14l58 -120v120h20v-180h-18l-60 127v-127h-14zM3250 -27v445h78v-178h68v178h69v-445h-69v187h-68v-187h-78zM3504 -27v445h129
q29 0 54.5 -30.5t25.5 -86.5q0 -86 -53 -121l49 -207h-74l-39 193h-20v-193h-72zM3576 229h41q12 6 16.5 37t-4.5 59.5t-29 28.5h-24v-125zM3752 -27v445h172v-76h-100v-96h82v-80h-82v-117h100v-76h-172zM3932 -27l82 445h70l75 -445h-73l-15 107h-47l-16 -107h-76z
M4035 143h24l-12 88zM4168 -27v445h71q66 0 95.5 -34t29.5 -105v-166q0 -72 -27 -106t-87 -34h-82zM4239 43h25q22 11 22 25q3 30 3 65v119q0 36 -3 63q0 8 -7 17.5t-15 9.5h-25v-299z" />
    <glyph glyph-name="uni0030" unicode="4" horiz-adv-x="4741" 
d="M2408 1174q-78 0 -90 75q-4 23 -4 64q0 8 -0.5 39.5t0 46t2.5 37t6 37.5q11 59 82 63q81 0 99 -51q6 -16 9 -38t3 -39t-1 -44t-1 -37q0 -59 -6 -82q-14 -71 -99 -71zM264 -23l6 443h72l53 -279l51 279h76l2 -443h-63l-6 183l-31 -183h-53l-37 181l-4 -181h-66zM582 -23
v443h55l76 -213v213h69v-443h-53l-78 216v-216h-69zM834 -23v80h75v-80h-75zM936 133l70 2q0 -53 16 -78q13 -21 29 -14q18 6 18 37q0 20 -10 38t-33.5 43.5t-26.5 28.5q-5 6 -15 15t-16.5 16.5t-9.5 14.5q-27 50 -16 102q1 49 46 74.5t91 3.5q58 -28 58 -142l-68 -4
q-1 6 -3 32.5t-7.5 39t-18.5 14.5q-23 1 -30.5 -21.5t0.5 -33.5q4 -12 10 -20.5t18.5 -19.5t14.5 -13l34 -41q61 -61 52 -146q-2 -31 -22.5 -56t-55.5 -34q-33 -5 -63.5 9.5t-43.5 44.5q-18 49 -18 108zM1174 199q0 11 -1 40t-0.5 50t3.5 39q11 71 63 92q60 15 100 -10
q22 -13 33 -39.5t12.5 -45.5t1.5 -51v-10h-71q0 55 -4.5 70.5t-18.5 21.5q-41 5 -41 -59v-162q0 -3 -1 -17t-0.5 -23.5t2.5 -21.5t8 -20t16 -10q16 -6 26.5 1t14 27.5t4 31.5t0.5 31v7h-45v66h115v-230h-58l-4 15q-20 -20 -52.5 -21t-55.5 15q-36 16 -45 90q-3 19 -3.5 39
t0.5 46.5t1 37.5zM1368 -375q0 27 16 43t46 10q17 0 25.5 -10t9.5 -19.5t1 -29.5h-22q0 28 -2 33q-6 12 -20 12.5t-21 -8.5q-3 -5 -5 -15t-2 -18t0.5 -20.5t0.5 -14.5l-1 -12q0 -12 0.5 -19t2.5 -16.5t6 -15.5q6 -9 19.5 -7.5t19.5 13.5q2 5 2 33h22q0 -68 -43 -68
q-16 0 -27.5 7t-17 15.5t-8.5 25t-3 26.5t0.5 30t0.5 25zM1405 -80l119 557h69l-125 -557h-63zM1487 -408q0 19 0.5 29t3 24.5t7.5 20.5t15 10t25 2q15 0 25 -5.5t15 -12t8 -20t3 -21.5v-24v-7v-7q0 -19 -1 -29.5t-5 -26t-15.5 -22.5t-29.5 -7q-12 0 -21.5 3t-14.5 10
t-8.5 12.5t-5 17.5t-2 17t0 19.5t0.5 16.5zM1491 1178v356h76q68 0 88 -39q19 -31 14.5 -72.5t-33.5 -62.5q-6 -6 -14 -10t-14 -6.5t-18.5 -3.5t-17 -1h-18.5h-16v-161h-47zM1493 903v221h45v-239q0 -70 31 -86q36 -11 51.5 15t15.5 65v114v131h50v-161q0 -8 1 -34
t0.5 -40.5t-3 -37.5t-9 -37.5t-19 -28t-30.5 -19.5q-32 -16 -71 -1.5t-52 50.5q-10 25 -10 88zM1509 -395q0 -1 -0.5 -14t0 -21.5t1.5 -20t4.5 -19t9.5 -9.5q7 -4 13 -5t10 1t7 5t4.5 9.5t2.5 11t1.5 13t0.5 12v11.5v3q0 71 -15 76q-17 8 -28 -1t-11 -26v-26zM1538 1376
q40 0 55 4q29 7 29 54q0 55 -29 61q-10 3 -19.5 3.5t-20.5 -0.5t-15 -1v-121zM1554 -272v182h72v-19h-43v-63h35v-16h-35v-84h-29zM1610 131l69 2q0 -51 15 -78q4 -22 26 -16q17 4 17 37q0 17 -8.5 35t-15 26.5t-25.5 27.5l-21 21q-6 10 -19.5 24.5t-15.5 20.5
q-30 37 -22 105q3 49 48.5 74t90.5 4q59 -26 59 -142l-71 -4v5q0 75 -27 81q-21 1 -27.5 -21t0.5 -36q7 -21 37 -51l37 -39q61 -68 53 -148q-2 -32 -22.5 -57.5t-54.5 -34.5q-33 -3 -64 11t-45 45q-14 33 -14 108zM1614 -502v180h26l37 -143l27 143h25l4 -180h-19v133
l-28 -133h-21l-31 133v-133h-20zM1640 -176q0 17 0.5 26.5t3.5 23.5t9 21.5t17.5 13t27.5 5.5q16 -3 26 -12t14 -24.5t4.5 -25.5t0.5 -29v-7q0 -20 -1 -31t-5 -26.5t-15 -23t-28 -7.5q-16 0 -27.5 7t-16.5 14t-7.5 24.5t-2.5 23.5v27zM1667 -172q0 -1 -1 -17.5t-1 -27.5
t5 -23.5t16 -15.5q12 -3 19 2t9.5 18.5t3 21.5t0.5 24q0 2 0.5 13.5t0.5 20t-1 19t-4.5 17.5t-9.5 9q-13 9 -25 -2t-12 -30v-29zM1704 1178v356h135v-37h-86v-121h72v-37h-72v-131h90v-30h-139zM1724 864l52 15q5 -55 14 -64q12 -12 28 -14t27 10q16 11 16 33t-12 37
q-2 2 -9 12.5t-14 17.5t-16 11q-1 1 -30 26t-39 41q-22 33 -11 77.5t52 57.5q43 10 86 -14q33 -24 33 -76l-41 -16q-4 58 -37 63q-18 7 -30.5 -1t-14.5 -23q-6 -8 -3 -18.5t4.5 -16t9.5 -14.5t13 -13.5t15 -13t14 -12.5q2 -2 16 -13t17.5 -14.5l13.5 -13.5t14 -17t8 -18
t5 -23q8 -43 -15.5 -75.5t-66.5 -32.5t-69.5 29t-29.5 73zM1763 -502v180h27l33 -143l28 143h23l8 -180h-18l-4 133l-29 -133h-21l-24 133l-4 -133h-19zM1769 -272v182q4 0 16 0.5t18.5 0.5t16.5 -2t17 -5q21 -11 22 -45t-22 -43l27 -88h-27l-27 84h-20v-84h-21zM1786 492
v188q4 0 16 0.5t19.5 0.5t17.5 -2t17 -7t12 -13q12 -46 -4 -69q-15 -12 -54 -12v-86h-24zM1790 -172q23 0 35 6.5t12 26.5t-11 25t-36 5v-63zM1810 594q21 0 27 4q12 8 12 37q0 23 -8 28t-31 5v-74zM1849 -27v445h76v-445h-76zM1882 1178v356q6 0 34.5 0.5t40 0t31 -4
t33.5 -10.5q40 -22 41 -86.5t-41 -79.5l43 -176h-43l-49 163h-37v-163h-53zM1901 492v188h16v-168h51v-20h-67zM1911 -502v180h71v-16h-43v-57h35v-19h-35v-71h43v-17h-71zM1925 -109v19h92v-19h-35v-163h-26v163h-31zM1935 1376q34 0 52 4q33 14 26 66q0 38 -26 47
q-8 4 -16.5 5t-21.5 0t-14 -1v-121zM1950 766v358h135v-43h-88v-112h71v-37h-71v-133h88v-33h-135zM1964 -27l8 445h70l51 -279l51 279h78l4 -445h-67l-2 185l-37 -185h-52l-34 183v-183h-70zM1987 492v188h67v-12h-45v-70h39v-20h-39v-66h45v-20h-67zM2001 -502v180
q9 0 25 1.5t26.5 1t18.5 -4.5q19 -14 19 -46.5t-22 -41.5l27 -90h-24l-21 88h-20v-88h-29zM2030 -395q15 0 21 0.5t11.5 6.5t5.5 19q0 19 -9.5 25t-28.5 6v-57zM2030 -272v182h22v-82h49v82h25v-182h-25v84h-49v-84h-22zM2064 492l39 188h31l35 -188h-27l-8 51h-39l-6 -51
h-25zM2095 557h39l-18 92zM2095 1276l49 12q3 -42 21 -63q14 -12 31.5 -13t29.5 9q13 12 12 31.5t-12 35.5q-23 28 -41 41q-5 5 -21 18.5t-28 24.5t-20 21q-25 41 -14 84.5t55 52.5q20 8 45.5 5t42.5 -15q25 -16 30 -72l-37 -14q-2 5 -5.5 18.5t-6.5 21t-10 16t-16 11.5
q-18 0 -34 -8.5t-20 -22.5q-7 -45 64 -94q2 -2 16.5 -16t19 -19t14 -16.5t14 -21.5t7.5 -21q8 -44 -15 -76t-66 -32q-48 0 -75 28.5t-30 73.5zM2116 -375q0 27 15.5 43t45.5 10q22 0 28.5 -15.5t6.5 -43.5h-25q0 2 1.5 9t1 13.5t-4.5 10.5q-1 12 -16.5 12.5t-22.5 -8.5
q-5 -6 -6.5 -18t-0.5 -31l1 -19q0 -2 -0.5 -12t-1 -18t1.5 -17.5t6 -15.5q7 -9 22.5 -7.5t16.5 13.5q4 4 4.5 10t-1 13t-1.5 10h25q0 -19 -2 -31.5t-13 -24.5t-32 -12q-19 0 -30.5 8t-15.5 25t-5 29.5t0.5 36t1.5 30.5zM2152 -272v182h74v-19h-43v-63h35v-16h-35v-70h43v-14
h-74zM2183 543l27 10q0 -35 12 -41q29 0 29 20q0 11 -7 22t-19 22.5t-15 15.5q-21 15 -26 38t16 42q22 18 49 6q24 -12 24 -47l-22 -4q-9 39 -27 38q-12 -1 -14 -16q-6 -25 20 -51q2 -1 6 -4t6.5 -4.5t6.5 -4t6 -4.5l5 -5t5 -5.5t4 -5.5t3 -6t1 -6q8 -25 -4.5 -43t-38.5 -18
q-19 0 -32 15.5t-15 35.5zM2222 911q0 13 -0.5 38.5t-0.5 41t1 37t4 37.5q20 59 86 59q76 0 92 -51q9 -19 11 -43.5t0 -62t-2 -45.5q0 -9 0.5 -23.5t0.5 -22.5t-1 -19.5t-5 -20.5q-3 -36 -26.5 -55t-59.5 -19q-40 0 -66.5 19.5t-29.5 56.5q-4 25 -4 73zM2241 -502v180h24
v-180h-24zM2263 -27v445h109q39 0 68.5 -40.5t29.5 -109.5q0 -129 -82 -149q-16 -6 -53 -6v-140h-72zM2273 879v-6q0 -59 21 -70q26 -7 43 0q26 17 30 47q1 5 1 12.5t-0.5 15.5t-0.5 11v129q0 43 -14 55l-6 3l-6 3t-5.5 2.5t-5.5 2t-5 1t-5.5 0.5t-5 -1t-4.5 -3
q-25 0 -37 -26q-3 -16 -3 -35.5t1.5 -43t1.5 -34.5v-63zM2284 -502l38 180h25l41 -180h-23l-10 47h-37l-8 -47h-26zM2294 492v188h73v-12h-45v-70h33v-20h-33v-66h48v-20h-76zM2304 -272v182h68v-19h-50v-63h33v-16h-33v-84h-18zM2322 -442h31l-16 90zM2335 180h39
q13 5 19 48t-1.5 84.5t-28.5 41.5h-28v-174zM2367 1284v-4q0 -55 25 -66q9 -4 22.5 -4t20.5 4q27 11 27 48v163q0 45 -19 60q-12 20 -39 12q-26 -3 -34 -37q-6 -12 -7 -31t1.5 -45t2.5 -36v-64zM2388 -229v41v98h20v-82q0 -3 -1 -17t-0.5 -23.5t2.5 -21.5t8 -18t16 -6
q7 0 12.5 3.5t8.5 10t5 13t2.5 16.5t0.5 16v15.5v11.5v82h22v-84v-11.5v-13t-0.5 -12.5t-1.5 -13.5t-2 -11.5t-4 -11.5t-6 -10t-8 -9t-11 -5.5q-57 -12 -63 43zM2404 -502v180h27v-163h49v-17h-76zM2431 680h29l24 -137l29 137h22l-38 -188h-25zM2468 766v358h35l100 -239
v239h43v-358h-35l-104 244v-244h-39zM2509 -27v445h76v-369h92v-76h-168zM2513 -272v182h27v-168h40v-14h-67zM2542 -322h20l27 -133l30 133h21l-41 -180h-19zM2554 492v188h26v-188h-26zM2562 1178v356h29l102 -242v242h45v-356h-35l-100 239v-239h-41zM2599 -272v182h24
v-168h46v-14h-70zM2603 543l25 10q0 -32 18 -41q23 0 23 20q1 6 -0.5 12t-4 10.5t-8 11t-8.5 9t-10.5 9.5t-9.5 8q-18 17 -23.5 38.5t14.5 41.5q30 17 47 6q23 -12 27 -47l-24 -4q-2 24 -9.5 32.5t-16 4.5t-13.5 -15q-1 -8 -1.5 -13t3.5 -11.5t7 -10t8 -9t7 -7.5
q37 -25 39 -45q7 -25 -5.5 -43t-35.5 -18q-41 0 -49 51zM2660 -502v180h76v-16h-49v-57h39v-19h-39v-71h49v-17h-76zM2703 766v358h50v-325h83v-33h-133zM2716 -27v445h172v-76h-101v-96h82v-80h-82v-117h101v-76h-172zM2716 492v188h30v-188h-30zM2736 -272l33 182h29
l38 -182h-26l-6 45h-35l-12 -45h-21zM2755 -502v180q7 0 22.5 1.5t26.5 1t20 -4.5q21 -13 19.5 -47t-25.5 -41l27 -90h-25l-22 88h-19v-88h-24zM2761 668v12h84v-12h-29v-176h-20v176h-35zM2769 -211h29l-15 84zM2773 1178l78 356h47l78 -356h-49l-17 84h-74l-18 -84h-45z
M2779 -395q16 0 22 0.5t11.5 6.5t5.5 19q0 19 -9 25t-30 6v-57zM2845 1298h57l-27 162zM2855 -272v182h16l49 -121v121h25v-182h-18l-48 122v-122h-24zM2855 1124h43l53 -172l55 172h50q-5 -20 -50 -151l-24 -70q-3 -8 -3.5 -17t0.5 -20t1 -14v-86h-53v74v53q-10 49 -25 70z
M2865 -449l25 5q0 -30 12 -35q13 -6 23 0.5t10 17.5q0 16 -45 53q-20 18 -23.5 42t15.5 36q12 10 26 12t21 -4q22 -9 22 -40l-16 -11q-2 4 -4.5 13.5t-5.5 14.5t-7 7q-15 8 -26 -10q-2 -4 -2.5 -8t1 -8t2.5 -6.5t5 -6.5l6 -6t7 -6t7 -6q3 -5 12.5 -13.5t15 -17.5t5.5 -20
q9 -22 -1 -40t-34 -18q-25 0 -38 15t-13 40zM2925 156v75h94v-75h-94zM2976 -272v182q1 0 12.5 0.5t17.5 0t16 -1.5t18.5 -4.5t15.5 -8.5q6 -5 9 -15.5t3 -19.5t-1 -24.5t-1 -20.5t0.5 -17t0.5 -19t-1.5 -16t-6 -15.5t-12.5 -10.5q-5 -4 -12.5 -6.5t-16 -3t-15 -1t-16 0
t-11.5 0.5zM2980 -502v180h22v-180h-22zM3000 -258q13 0 19 1t13 7.5t11 20.5v90q-1 15 -7.5 21.5t-13 7.5t-22.5 1v-149zM3011 1178v356h53v-326h88v-30h-141zM3013 342v76h200v-76h-61v-369h-78v369h-61zM3029 -408q0 19 0.5 29t3.5 24.5t8.5 20.5t16.5 10t28 2
q8 0 15 -1.5t11.5 -5.5t8 -7.5t5.5 -10.5t3 -11.5t1.5 -13t0.5 -13v-14.5v-13q0 -22 -0.5 -31.5t-4.5 -27t-15 -25.5t-29 -8q-15 0 -26 6.5t-16 14t-8 22t-3 22.5v24v7zM3062 -395q0 -3 -3 -26t-1.5 -38.5t10.5 -19.5q7 -4 13.5 -5t10.5 1.5t7 6t5 10t3 12t1.5 13.5t0.5 12
v11q0 1 0.5 13.5t0 20t-1.5 18t-3.5 16.5t-7.5 8q-35 14 -35 -27v-26zM3082 766v49h49v-49h-49zM3082 1124h49l-18 -282h-16zM3158 -502v180h14l58 -120v120h20v-180h-18l-60 127v-127h-14zM3250 -27v445h78v-178h68v178h69v-445h-69v187h-68v-187h-78zM3504 -27v445h129
q29 0 54.5 -30.5t25.5 -86.5q0 -86 -53 -121l49 -207h-74l-39 193h-20v-193h-72zM3576 229h41q12 6 16.5 37t-4.5 59.5t-29 28.5h-24v-125zM3752 -27v445h172v-76h-100v-96h82v-80h-82v-117h100v-76h-172zM3932 -27l82 445h70l75 -445h-73l-15 107h-47l-16 -107h-76z
M4035 143h24l-12 88zM4168 -27v445h71q66 0 95.5 -34t29.5 -105v-166q0 -72 -27 -106t-87 -34h-82zM4239 43h25q22 11 22 25q3 30 3 65v119q0 36 -3 63q0 8 -7 17.5t-15 9.5h-25v-299z" />
    <glyph glyph-name="uni0030" unicode="3" horiz-adv-x="4741" 
d="M2408 1174q-78 0 -90 75q-4 23 -4 64q0 8 -0.5 39.5t0 46t2.5 37t6 37.5q11 59 82 63q81 0 99 -51q6 -16 9 -38t3 -39t-1 -44t-1 -37q0 -59 -6 -82q-14 -71 -99 -71zM264 -23l6 443h72l53 -279l51 279h76l2 -443h-63l-6 183l-31 -183h-53l-37 181l-4 -181h-66zM582 -23
v443h55l76 -213v213h69v-443h-53l-78 216v-216h-69zM834 -23v80h75v-80h-75zM936 133l70 2q0 -53 16 -78q13 -21 29 -14q18 6 18 37q0 20 -10 38t-33.5 43.5t-26.5 28.5q-5 6 -15 15t-16.5 16.5t-9.5 14.5q-27 50 -16 102q1 49 46 74.5t91 3.5q58 -28 58 -142l-68 -4
q-1 6 -3 32.5t-7.5 39t-18.5 14.5q-23 1 -30.5 -21.5t0.5 -33.5q4 -12 10 -20.5t18.5 -19.5t14.5 -13l34 -41q61 -61 52 -146q-2 -31 -22.5 -56t-55.5 -34q-33 -5 -63.5 9.5t-43.5 44.5q-18 49 -18 108zM1174 199q0 11 -1 40t-0.5 50t3.5 39q11 71 63 92q60 15 100 -10
q22 -13 33 -39.5t12.5 -45.5t1.5 -51v-10h-71q0 55 -4.5 70.5t-18.5 21.5q-41 5 -41 -59v-162q0 -3 -1 -17t-0.5 -23.5t2.5 -21.5t8 -20t16 -10q16 -6 26.5 1t14 27.5t4 31.5t0.5 31v7h-45v66h115v-230h-58l-4 15q-20 -20 -52.5 -21t-55.5 15q-36 16 -45 90q-3 19 -3.5 39
t0.5 46.5t1 37.5zM1368 -375q0 27 16 43t46 10q17 0 25.5 -10t9.5 -19.5t1 -29.5h-22q0 28 -2 33q-6 12 -20 12.5t-21 -8.5q-3 -5 -5 -15t-2 -18t0.5 -20.5t0.5 -14.5l-1 -12q0 -12 0.5 -19t2.5 -16.5t6 -15.5q6 -9 19.5 -7.5t19.5 13.5q2 5 2 33h22q0 -68 -43 -68
q-16 0 -27.5 7t-17 15.5t-8.5 25t-3 26.5t0.5 30t0.5 25zM1405 -80l119 557h69l-125 -557h-63zM1487 -408q0 19 0.5 29t3 24.5t7.5 20.5t15 10t25 2q15 0 25 -5.5t15 -12t8 -20t3 -21.5v-24v-7v-7q0 -19 -1 -29.5t-5 -26t-15.5 -22.5t-29.5 -7q-12 0 -21.5 3t-14.5 10
t-8.5 12.5t-5 17.5t-2 17t0 19.5t0.5 16.5zM1491 1178v356h76q68 0 88 -39q19 -31 14.5 -72.5t-33.5 -62.5q-6 -6 -14 -10t-14 -6.5t-18.5 -3.5t-17 -1h-18.5h-16v-161h-47zM1493 903v221h45v-239q0 -70 31 -86q36 -11 51.5 15t15.5 65v114v131h50v-161q0 -8 1 -34
t0.5 -40.5t-3 -37.5t-9 -37.5t-19 -28t-30.5 -19.5q-32 -16 -71 -1.5t-52 50.5q-10 25 -10 88zM1509 -395q0 -1 -0.5 -14t0 -21.5t1.5 -20t4.5 -19t9.5 -9.5q7 -4 13 -5t10 1t7 5t4.5 9.5t2.5 11t1.5 13t0.5 12v11.5v3q0 71 -15 76q-17 8 -28 -1t-11 -26v-26zM1538 1376
q40 0 55 4q29 7 29 54q0 55 -29 61q-10 3 -19.5 3.5t-20.5 -0.5t-15 -1v-121zM1554 -272v182h72v-19h-43v-63h35v-16h-35v-84h-29zM1610 131l69 2q0 -51 15 -78q4 -22 26 -16q17 4 17 37q0 17 -8.5 35t-15 26.5t-25.5 27.5l-21 21q-6 10 -19.5 24.5t-15.5 20.5
q-30 37 -22 105q3 49 48.5 74t90.5 4q59 -26 59 -142l-71 -4v5q0 75 -27 81q-21 1 -27.5 -21t0.5 -36q7 -21 37 -51l37 -39q61 -68 53 -148q-2 -32 -22.5 -57.5t-54.5 -34.5q-33 -3 -64 11t-45 45q-14 33 -14 108zM1614 -502v180h26l37 -143l27 143h25l4 -180h-19v133
l-28 -133h-21l-31 133v-133h-20zM1640 -176q0 17 0.5 26.5t3.5 23.5t9 21.5t17.5 13t27.5 5.5q16 -3 26 -12t14 -24.5t4.5 -25.5t0.5 -29v-7q0 -20 -1 -31t-5 -26.5t-15 -23t-28 -7.5q-16 0 -27.5 7t-16.5 14t-7.5 24.5t-2.5 23.5v27zM1667 -172q0 -1 -1 -17.5t-1 -27.5
t5 -23.5t16 -15.5q12 -3 19 2t9.5 18.5t3 21.5t0.5 24q0 2 0.5 13.5t0.5 20t-1 19t-4.5 17.5t-9.5 9q-13 9 -25 -2t-12 -30v-29zM1704 1178v356h135v-37h-86v-121h72v-37h-72v-131h90v-30h-139zM1724 864l52 15q5 -55 14 -64q12 -12 28 -14t27 10q16 11 16 33t-12 37
q-2 2 -9 12.5t-14 17.5t-16 11q-1 1 -30 26t-39 41q-22 33 -11 77.5t52 57.5q43 10 86 -14q33 -24 33 -76l-41 -16q-4 58 -37 63q-18 7 -30.5 -1t-14.5 -23q-6 -8 -3 -18.5t4.5 -16t9.5 -14.5t13 -13.5t15 -13t14 -12.5q2 -2 16 -13t17.5 -14.5l13.5 -13.5t14 -17t8 -18
t5 -23q8 -43 -15.5 -75.5t-66.5 -32.5t-69.5 29t-29.5 73zM1763 -502v180h27l33 -143l28 143h23l8 -180h-18l-4 133l-29 -133h-21l-24 133l-4 -133h-19zM1769 -272v182q4 0 16 0.5t18.5 0.5t16.5 -2t17 -5q21 -11 22 -45t-22 -43l27 -88h-27l-27 84h-20v-84h-21zM1786 492
v188q4 0 16 0.5t19.5 0.5t17.5 -2t17 -7t12 -13q12 -46 -4 -69q-15 -12 -54 -12v-86h-24zM1790 -172q23 0 35 6.5t12 26.5t-11 25t-36 5v-63zM1810 594q21 0 27 4q12 8 12 37q0 23 -8 28t-31 5v-74zM1849 -27v445h76v-445h-76zM1882 1178v356q6 0 34.5 0.5t40 0t31 -4
t33.5 -10.5q40 -22 41 -86.5t-41 -79.5l43 -176h-43l-49 163h-37v-163h-53zM1901 492v188h16v-168h51v-20h-67zM1911 -502v180h71v-16h-43v-57h35v-19h-35v-71h43v-17h-71zM1925 -109v19h92v-19h-35v-163h-26v163h-31zM1935 1376q34 0 52 4q33 14 26 66q0 38 -26 47
q-8 4 -16.5 5t-21.5 0t-14 -1v-121zM1950 766v358h135v-43h-88v-112h71v-37h-71v-133h88v-33h-135zM1964 -27l8 445h70l51 -279l51 279h78l4 -445h-67l-2 185l-37 -185h-52l-34 183v-183h-70zM1987 492v188h67v-12h-45v-70h39v-20h-39v-66h45v-20h-67zM2001 -502v180
q9 0 25 1.5t26.5 1t18.5 -4.5q19 -14 19 -46.5t-22 -41.5l27 -90h-24l-21 88h-20v-88h-29zM2030 -395q15 0 21 0.5t11.5 6.5t5.5 19q0 19 -9.5 25t-28.5 6v-57zM2030 -272v182h22v-82h49v82h25v-182h-25v84h-49v-84h-22zM2064 492l39 188h31l35 -188h-27l-8 51h-39l-6 -51
h-25zM2095 557h39l-18 92zM2095 1276l49 12q3 -42 21 -63q14 -12 31.5 -13t29.5 9q13 12 12 31.5t-12 35.5q-23 28 -41 41q-5 5 -21 18.5t-28 24.5t-20 21q-25 41 -14 84.5t55 52.5q20 8 45.5 5t42.5 -15q25 -16 30 -72l-37 -14q-2 5 -5.5 18.5t-6.5 21t-10 16t-16 11.5
q-18 0 -34 -8.5t-20 -22.5q-7 -45 64 -94q2 -2 16.5 -16t19 -19t14 -16.5t14 -21.5t7.5 -21q8 -44 -15 -76t-66 -32q-48 0 -75 28.5t-30 73.5zM2116 -375q0 27 15.5 43t45.5 10q22 0 28.5 -15.5t6.5 -43.5h-25q0 2 1.5 9t1 13.5t-4.5 10.5q-1 12 -16.5 12.5t-22.5 -8.5
q-5 -6 -6.5 -18t-0.5 -31l1 -19q0 -2 -0.5 -12t-1 -18t1.5 -17.5t6 -15.5q7 -9 22.5 -7.5t16.5 13.5q4 4 4.5 10t-1 13t-1.5 10h25q0 -19 -2 -31.5t-13 -24.5t-32 -12q-19 0 -30.5 8t-15.5 25t-5 29.5t0.5 36t1.5 30.5zM2152 -272v182h74v-19h-43v-63h35v-16h-35v-70h43v-14
h-74zM2183 543l27 10q0 -35 12 -41q29 0 29 20q0 11 -7 22t-19 22.5t-15 15.5q-21 15 -26 38t16 42q22 18 49 6q24 -12 24 -47l-22 -4q-9 39 -27 38q-12 -1 -14 -16q-6 -25 20 -51q2 -1 6 -4t6.5 -4.5t6.5 -4t6 -4.5l5 -5t5 -5.5t4 -5.5t3 -6t1 -6q8 -25 -4.5 -43t-38.5 -18
q-19 0 -32 15.5t-15 35.5zM2222 911q0 13 -0.5 38.5t-0.5 41t1 37t4 37.5q20 59 86 59q76 0 92 -51q9 -19 11 -43.5t0 -62t-2 -45.5q0 -9 0.5 -23.5t0.5 -22.5t-1 -19.5t-5 -20.5q-3 -36 -26.5 -55t-59.5 -19q-40 0 -66.5 19.5t-29.5 56.5q-4 25 -4 73zM2241 -502v180h24
v-180h-24zM2263 -27v445h109q39 0 68.5 -40.5t29.5 -109.5q0 -129 -82 -149q-16 -6 -53 -6v-140h-72zM2273 879v-6q0 -59 21 -70q26 -7 43 0q26 17 30 47q1 5 1 12.5t-0.5 15.5t-0.5 11v129q0 43 -14 55l-6 3l-6 3t-5.5 2.5t-5.5 2t-5 1t-5.5 0.5t-5 -1t-4.5 -3
q-25 0 -37 -26q-3 -16 -3 -35.5t1.5 -43t1.5 -34.5v-63zM2284 -502l38 180h25l41 -180h-23l-10 47h-37l-8 -47h-26zM2294 492v188h73v-12h-45v-70h33v-20h-33v-66h48v-20h-76zM2304 -272v182h68v-19h-50v-63h33v-16h-33v-84h-18zM2322 -442h31l-16 90zM2335 180h39
q13 5 19 48t-1.5 84.5t-28.5 41.5h-28v-174zM2367 1284v-4q0 -55 25 -66q9 -4 22.5 -4t20.5 4q27 11 27 48v163q0 45 -19 60q-12 20 -39 12q-26 -3 -34 -37q-6 -12 -7 -31t1.5 -45t2.5 -36v-64zM2388 -229v41v98h20v-82q0 -3 -1 -17t-0.5 -23.5t2.5 -21.5t8 -18t16 -6
q7 0 12.5 3.5t8.5 10t5 13t2.5 16.5t0.5 16v15.5v11.5v82h22v-84v-11.5v-13t-0.5 -12.5t-1.5 -13.5t-2 -11.5t-4 -11.5t-6 -10t-8 -9t-11 -5.5q-57 -12 -63 43zM2404 -502v180h27v-163h49v-17h-76zM2431 680h29l24 -137l29 137h22l-38 -188h-25zM2468 766v358h35l100 -239
v239h43v-358h-35l-104 244v-244h-39zM2509 -27v445h76v-369h92v-76h-168zM2513 -272v182h27v-168h40v-14h-67zM2542 -322h20l27 -133l30 133h21l-41 -180h-19zM2554 492v188h26v-188h-26zM2562 1178v356h29l102 -242v242h45v-356h-35l-100 239v-239h-41zM2599 -272v182h24
v-168h46v-14h-70zM2603 543l25 10q0 -32 18 -41q23 0 23 20q1 6 -0.5 12t-4 10.5t-8 11t-8.5 9t-10.5 9.5t-9.5 8q-18 17 -23.5 38.5t14.5 41.5q30 17 47 6q23 -12 27 -47l-24 -4q-2 24 -9.5 32.5t-16 4.5t-13.5 -15q-1 -8 -1.5 -13t3.5 -11.5t7 -10t8 -9t7 -7.5
q37 -25 39 -45q7 -25 -5.5 -43t-35.5 -18q-41 0 -49 51zM2660 -502v180h76v-16h-49v-57h39v-19h-39v-71h49v-17h-76zM2703 766v358h50v-325h83v-33h-133zM2716 -27v445h172v-76h-101v-96h82v-80h-82v-117h101v-76h-172zM2716 492v188h30v-188h-30zM2736 -272l33 182h29
l38 -182h-26l-6 45h-35l-12 -45h-21zM2755 -502v180q7 0 22.5 1.5t26.5 1t20 -4.5q21 -13 19.5 -47t-25.5 -41l27 -90h-25l-22 88h-19v-88h-24zM2761 668v12h84v-12h-29v-176h-20v176h-35zM2769 -211h29l-15 84zM2773 1178l78 356h47l78 -356h-49l-17 84h-74l-18 -84h-45z
M2779 -395q16 0 22 0.5t11.5 6.5t5.5 19q0 19 -9 25t-30 6v-57zM2845 1298h57l-27 162zM2855 -272v182h16l49 -121v121h25v-182h-18l-48 122v-122h-24zM2855 1124h43l53 -172l55 172h50q-5 -20 -50 -151l-24 -70q-3 -8 -3.5 -17t0.5 -20t1 -14v-86h-53v74v53q-10 49 -25 70z
M2865 -449l25 5q0 -30 12 -35q13 -6 23 0.5t10 17.5q0 16 -45 53q-20 18 -23.5 42t15.5 36q12 10 26 12t21 -4q22 -9 22 -40l-16 -11q-2 4 -4.5 13.5t-5.5 14.5t-7 7q-15 8 -26 -10q-2 -4 -2.5 -8t1 -8t2.5 -6.5t5 -6.5l6 -6t7 -6t7 -6q3 -5 12.5 -13.5t15 -17.5t5.5 -20
q9 -22 -1 -40t-34 -18q-25 0 -38 15t-13 40zM2925 156v75h94v-75h-94zM2976 -272v182q1 0 12.5 0.5t17.5 0t16 -1.5t18.5 -4.5t15.5 -8.5q6 -5 9 -15.5t3 -19.5t-1 -24.5t-1 -20.5t0.5 -17t0.5 -19t-1.5 -16t-6 -15.5t-12.5 -10.5q-5 -4 -12.5 -6.5t-16 -3t-15 -1t-16 0
t-11.5 0.5zM2980 -502v180h22v-180h-22zM3000 -258q13 0 19 1t13 7.5t11 20.5v90q-1 15 -7.5 21.5t-13 7.5t-22.5 1v-149zM3011 1178v356h53v-326h88v-30h-141zM3013 342v76h200v-76h-61v-369h-78v369h-61zM3029 -408q0 19 0.5 29t3.5 24.5t8.5 20.5t16.5 10t28 2
q8 0 15 -1.5t11.5 -5.5t8 -7.5t5.5 -10.5t3 -11.5t1.5 -13t0.5 -13v-14.5v-13q0 -22 -0.5 -31.5t-4.5 -27t-15 -25.5t-29 -8q-15 0 -26 6.5t-16 14t-8 22t-3 22.5v24v7zM3062 -395q0 -3 -3 -26t-1.5 -38.5t10.5 -19.5q7 -4 13.5 -5t10.5 1.5t7 6t5 10t3 12t1.5 13.5t0.5 12
v11q0 1 0.5 13.5t0 20t-1.5 18t-3.5 16.5t-7.5 8q-35 14 -35 -27v-26zM3082 766v49h49v-49h-49zM3082 1124h49l-18 -282h-16zM3158 -502v180h14l58 -120v120h20v-180h-18l-60 127v-127h-14zM3250 -27v445h78v-178h68v178h69v-445h-69v187h-68v-187h-78zM3504 -27v445h129
q29 0 54.5 -30.5t25.5 -86.5q0 -86 -53 -121l49 -207h-74l-39 193h-20v-193h-72zM3576 229h41q12 6 16.5 37t-4.5 59.5t-29 28.5h-24v-125zM3752 -27v445h172v-76h-100v-96h82v-80h-82v-117h100v-76h-172zM3932 -27l82 445h70l75 -445h-73l-15 107h-47l-16 -107h-76z
M4035 143h24l-12 88zM4168 -27v445h71q66 0 95.5 -34t29.5 -105v-166q0 -72 -27 -106t-87 -34h-82zM4239 43h25q22 11 22 25q3 30 3 65v119q0 36 -3 63q0 8 -7 17.5t-15 9.5h-25v-299z" />
    <glyph glyph-name="uni0030" unicode="2" horiz-adv-x="4741" 
d="M2408 1174q-78 0 -90 75q-4 23 -4 64q0 8 -0.5 39.5t0 46t2.5 37t6 37.5q11 59 82 63q81 0 99 -51q6 -16 9 -38t3 -39t-1 -44t-1 -37q0 -59 -6 -82q-14 -71 -99 -71zM264 -23l6 443h72l53 -279l51 279h76l2 -443h-63l-6 183l-31 -183h-53l-37 181l-4 -181h-66zM582 -23
v443h55l76 -213v213h69v-443h-53l-78 216v-216h-69zM834 -23v80h75v-80h-75zM936 133l70 2q0 -53 16 -78q13 -21 29 -14q18 6 18 37q0 20 -10 38t-33.5 43.5t-26.5 28.5q-5 6 -15 15t-16.5 16.5t-9.5 14.5q-27 50 -16 102q1 49 46 74.5t91 3.5q58 -28 58 -142l-68 -4
q-1 6 -3 32.5t-7.5 39t-18.5 14.5q-23 1 -30.5 -21.5t0.5 -33.5q4 -12 10 -20.5t18.5 -19.5t14.5 -13l34 -41q61 -61 52 -146q-2 -31 -22.5 -56t-55.5 -34q-33 -5 -63.5 9.5t-43.5 44.5q-18 49 -18 108zM1174 199q0 11 -1 40t-0.5 50t3.5 39q11 71 63 92q60 15 100 -10
q22 -13 33 -39.5t12.5 -45.5t1.5 -51v-10h-71q0 55 -4.5 70.5t-18.5 21.5q-41 5 -41 -59v-162q0 -3 -1 -17t-0.5 -23.5t2.5 -21.5t8 -20t16 -10q16 -6 26.5 1t14 27.5t4 31.5t0.5 31v7h-45v66h115v-230h-58l-4 15q-20 -20 -52.5 -21t-55.5 15q-36 16 -45 90q-3 19 -3.5 39
t0.5 46.5t1 37.5zM1368 -375q0 27 16 43t46 10q17 0 25.5 -10t9.5 -19.5t1 -29.5h-22q0 28 -2 33q-6 12 -20 12.5t-21 -8.5q-3 -5 -5 -15t-2 -18t0.5 -20.5t0.5 -14.5l-1 -12q0 -12 0.5 -19t2.5 -16.5t6 -15.5q6 -9 19.5 -7.5t19.5 13.5q2 5 2 33h22q0 -68 -43 -68
q-16 0 -27.5 7t-17 15.5t-8.5 25t-3 26.5t0.5 30t0.5 25zM1405 -80l119 557h69l-125 -557h-63zM1487 -408q0 19 0.5 29t3 24.5t7.5 20.5t15 10t25 2q15 0 25 -5.5t15 -12t8 -20t3 -21.5v-24v-7v-7q0 -19 -1 -29.5t-5 -26t-15.5 -22.5t-29.5 -7q-12 0 -21.5 3t-14.5 10
t-8.5 12.5t-5 17.5t-2 17t0 19.5t0.5 16.5zM1491 1178v356h76q68 0 88 -39q19 -31 14.5 -72.5t-33.5 -62.5q-6 -6 -14 -10t-14 -6.5t-18.5 -3.5t-17 -1h-18.5h-16v-161h-47zM1493 903v221h45v-239q0 -70 31 -86q36 -11 51.5 15t15.5 65v114v131h50v-161q0 -8 1 -34
t0.5 -40.5t-3 -37.5t-9 -37.5t-19 -28t-30.5 -19.5q-32 -16 -71 -1.5t-52 50.5q-10 25 -10 88zM1509 -395q0 -1 -0.5 -14t0 -21.5t1.5 -20t4.5 -19t9.5 -9.5q7 -4 13 -5t10 1t7 5t4.5 9.5t2.5 11t1.5 13t0.5 12v11.5v3q0 71 -15 76q-17 8 -28 -1t-11 -26v-26zM1538 1376
q40 0 55 4q29 7 29 54q0 55 -29 61q-10 3 -19.5 3.5t-20.5 -0.5t-15 -1v-121zM1554 -272v182h72v-19h-43v-63h35v-16h-35v-84h-29zM1610 131l69 2q0 -51 15 -78q4 -22 26 -16q17 4 17 37q0 17 -8.5 35t-15 26.5t-25.5 27.5l-21 21q-6 10 -19.5 24.5t-15.5 20.5
q-30 37 -22 105q3 49 48.5 74t90.5 4q59 -26 59 -142l-71 -4v5q0 75 -27 81q-21 1 -27.5 -21t0.5 -36q7 -21 37 -51l37 -39q61 -68 53 -148q-2 -32 -22.5 -57.5t-54.5 -34.5q-33 -3 -64 11t-45 45q-14 33 -14 108zM1614 -502v180h26l37 -143l27 143h25l4 -180h-19v133
l-28 -133h-21l-31 133v-133h-20zM1640 -176q0 17 0.5 26.5t3.5 23.5t9 21.5t17.5 13t27.5 5.5q16 -3 26 -12t14 -24.5t4.5 -25.5t0.5 -29v-7q0 -20 -1 -31t-5 -26.5t-15 -23t-28 -7.5q-16 0 -27.5 7t-16.5 14t-7.5 24.5t-2.5 23.5v27zM1667 -172q0 -1 -1 -17.5t-1 -27.5
t5 -23.5t16 -15.5q12 -3 19 2t9.5 18.5t3 21.5t0.5 24q0 2 0.5 13.5t0.5 20t-1 19t-4.5 17.5t-9.5 9q-13 9 -25 -2t-12 -30v-29zM1704 1178v356h135v-37h-86v-121h72v-37h-72v-131h90v-30h-139zM1724 864l52 15q5 -55 14 -64q12 -12 28 -14t27 10q16 11 16 33t-12 37
q-2 2 -9 12.5t-14 17.5t-16 11q-1 1 -30 26t-39 41q-22 33 -11 77.5t52 57.5q43 10 86 -14q33 -24 33 -76l-41 -16q-4 58 -37 63q-18 7 -30.5 -1t-14.5 -23q-6 -8 -3 -18.5t4.5 -16t9.5 -14.5t13 -13.5t15 -13t14 -12.5q2 -2 16 -13t17.5 -14.5l13.5 -13.5t14 -17t8 -18
t5 -23q8 -43 -15.5 -75.5t-66.5 -32.5t-69.5 29t-29.5 73zM1763 -502v180h27l33 -143l28 143h23l8 -180h-18l-4 133l-29 -133h-21l-24 133l-4 -133h-19zM1769 -272v182q4 0 16 0.5t18.5 0.5t16.5 -2t17 -5q21 -11 22 -45t-22 -43l27 -88h-27l-27 84h-20v-84h-21zM1786 492
v188q4 0 16 0.5t19.5 0.5t17.5 -2t17 -7t12 -13q12 -46 -4 -69q-15 -12 -54 -12v-86h-24zM1790 -172q23 0 35 6.5t12 26.5t-11 25t-36 5v-63zM1810 594q21 0 27 4q12 8 12 37q0 23 -8 28t-31 5v-74zM1849 -27v445h76v-445h-76zM1882 1178v356q6 0 34.5 0.5t40 0t31 -4
t33.5 -10.5q40 -22 41 -86.5t-41 -79.5l43 -176h-43l-49 163h-37v-163h-53zM1901 492v188h16v-168h51v-20h-67zM1911 -502v180h71v-16h-43v-57h35v-19h-35v-71h43v-17h-71zM1925 -109v19h92v-19h-35v-163h-26v163h-31zM1935 1376q34 0 52 4q33 14 26 66q0 38 -26 47
q-8 4 -16.5 5t-21.5 0t-14 -1v-121zM1950 766v358h135v-43h-88v-112h71v-37h-71v-133h88v-33h-135zM1964 -27l8 445h70l51 -279l51 279h78l4 -445h-67l-2 185l-37 -185h-52l-34 183v-183h-70zM1987 492v188h67v-12h-45v-70h39v-20h-39v-66h45v-20h-67zM2001 -502v180
q9 0 25 1.5t26.5 1t18.5 -4.5q19 -14 19 -46.5t-22 -41.5l27 -90h-24l-21 88h-20v-88h-29zM2030 -395q15 0 21 0.5t11.5 6.5t5.5 19q0 19 -9.5 25t-28.5 6v-57zM2030 -272v182h22v-82h49v82h25v-182h-25v84h-49v-84h-22zM2064 492l39 188h31l35 -188h-27l-8 51h-39l-6 -51
h-25zM2095 557h39l-18 92zM2095 1276l49 12q3 -42 21 -63q14 -12 31.5 -13t29.5 9q13 12 12 31.5t-12 35.5q-23 28 -41 41q-5 5 -21 18.5t-28 24.5t-20 21q-25 41 -14 84.5t55 52.5q20 8 45.5 5t42.5 -15q25 -16 30 -72l-37 -14q-2 5 -5.5 18.5t-6.5 21t-10 16t-16 11.5
q-18 0 -34 -8.5t-20 -22.5q-7 -45 64 -94q2 -2 16.5 -16t19 -19t14 -16.5t14 -21.5t7.5 -21q8 -44 -15 -76t-66 -32q-48 0 -75 28.5t-30 73.5zM2116 -375q0 27 15.5 43t45.5 10q22 0 28.5 -15.5t6.5 -43.5h-25q0 2 1.5 9t1 13.5t-4.5 10.5q-1 12 -16.5 12.5t-22.5 -8.5
q-5 -6 -6.5 -18t-0.5 -31l1 -19q0 -2 -0.5 -12t-1 -18t1.5 -17.5t6 -15.5q7 -9 22.5 -7.5t16.5 13.5q4 4 4.5 10t-1 13t-1.5 10h25q0 -19 -2 -31.5t-13 -24.5t-32 -12q-19 0 -30.5 8t-15.5 25t-5 29.5t0.5 36t1.5 30.5zM2152 -272v182h74v-19h-43v-63h35v-16h-35v-70h43v-14
h-74zM2183 543l27 10q0 -35 12 -41q29 0 29 20q0 11 -7 22t-19 22.5t-15 15.5q-21 15 -26 38t16 42q22 18 49 6q24 -12 24 -47l-22 -4q-9 39 -27 38q-12 -1 -14 -16q-6 -25 20 -51q2 -1 6 -4t6.5 -4.5t6.5 -4t6 -4.5l5 -5t5 -5.5t4 -5.5t3 -6t1 -6q8 -25 -4.5 -43t-38.5 -18
q-19 0 -32 15.5t-15 35.5zM2222 911q0 13 -0.5 38.5t-0.5 41t1 37t4 37.5q20 59 86 59q76 0 92 -51q9 -19 11 -43.5t0 -62t-2 -45.5q0 -9 0.5 -23.5t0.5 -22.5t-1 -19.5t-5 -20.5q-3 -36 -26.5 -55t-59.5 -19q-40 0 -66.5 19.5t-29.5 56.5q-4 25 -4 73zM2241 -502v180h24
v-180h-24zM2263 -27v445h109q39 0 68.5 -40.5t29.5 -109.5q0 -129 -82 -149q-16 -6 -53 -6v-140h-72zM2273 879v-6q0 -59 21 -70q26 -7 43 0q26 17 30 47q1 5 1 12.5t-0.5 15.5t-0.5 11v129q0 43 -14 55l-6 3l-6 3t-5.5 2.5t-5.5 2t-5 1t-5.5 0.5t-5 -1t-4.5 -3
q-25 0 -37 -26q-3 -16 -3 -35.5t1.5 -43t1.5 -34.5v-63zM2284 -502l38 180h25l41 -180h-23l-10 47h-37l-8 -47h-26zM2294 492v188h73v-12h-45v-70h33v-20h-33v-66h48v-20h-76zM2304 -272v182h68v-19h-50v-63h33v-16h-33v-84h-18zM2322 -442h31l-16 90zM2335 180h39
q13 5 19 48t-1.5 84.5t-28.5 41.5h-28v-174zM2367 1284v-4q0 -55 25 -66q9 -4 22.5 -4t20.5 4q27 11 27 48v163q0 45 -19 60q-12 20 -39 12q-26 -3 -34 -37q-6 -12 -7 -31t1.5 -45t2.5 -36v-64zM2388 -229v41v98h20v-82q0 -3 -1 -17t-0.5 -23.5t2.5 -21.5t8 -18t16 -6
q7 0 12.5 3.5t8.5 10t5 13t2.5 16.5t0.5 16v15.5v11.5v82h22v-84v-11.5v-13t-0.5 -12.5t-1.5 -13.5t-2 -11.5t-4 -11.5t-6 -10t-8 -9t-11 -5.5q-57 -12 -63 43zM2404 -502v180h27v-163h49v-17h-76zM2431 680h29l24 -137l29 137h22l-38 -188h-25zM2468 766v358h35l100 -239
v239h43v-358h-35l-104 244v-244h-39zM2509 -27v445h76v-369h92v-76h-168zM2513 -272v182h27v-168h40v-14h-67zM2542 -322h20l27 -133l30 133h21l-41 -180h-19zM2554 492v188h26v-188h-26zM2562 1178v356h29l102 -242v242h45v-356h-35l-100 239v-239h-41zM2599 -272v182h24
v-168h46v-14h-70zM2603 543l25 10q0 -32 18 -41q23 0 23 20q1 6 -0.5 12t-4 10.5t-8 11t-8.5 9t-10.5 9.5t-9.5 8q-18 17 -23.5 38.5t14.5 41.5q30 17 47 6q23 -12 27 -47l-24 -4q-2 24 -9.5 32.5t-16 4.5t-13.5 -15q-1 -8 -1.5 -13t3.5 -11.5t7 -10t8 -9t7 -7.5
q37 -25 39 -45q7 -25 -5.5 -43t-35.5 -18q-41 0 -49 51zM2660 -502v180h76v-16h-49v-57h39v-19h-39v-71h49v-17h-76zM2703 766v358h50v-325h83v-33h-133zM2716 -27v445h172v-76h-101v-96h82v-80h-82v-117h101v-76h-172zM2716 492v188h30v-188h-30zM2736 -272l33 182h29
l38 -182h-26l-6 45h-35l-12 -45h-21zM2755 -502v180q7 0 22.5 1.5t26.5 1t20 -4.5q21 -13 19.5 -47t-25.5 -41l27 -90h-25l-22 88h-19v-88h-24zM2761 668v12h84v-12h-29v-176h-20v176h-35zM2769 -211h29l-15 84zM2773 1178l78 356h47l78 -356h-49l-17 84h-74l-18 -84h-45z
M2779 -395q16 0 22 0.5t11.5 6.5t5.5 19q0 19 -9 25t-30 6v-57zM2845 1298h57l-27 162zM2855 -272v182h16l49 -121v121h25v-182h-18l-48 122v-122h-24zM2855 1124h43l53 -172l55 172h50q-5 -20 -50 -151l-24 -70q-3 -8 -3.5 -17t0.5 -20t1 -14v-86h-53v74v53q-10 49 -25 70z
M2865 -449l25 5q0 -30 12 -35q13 -6 23 0.5t10 17.5q0 16 -45 53q-20 18 -23.5 42t15.5 36q12 10 26 12t21 -4q22 -9 22 -40l-16 -11q-2 4 -4.5 13.5t-5.5 14.5t-7 7q-15 8 -26 -10q-2 -4 -2.5 -8t1 -8t2.5 -6.5t5 -6.5l6 -6t7 -6t7 -6q3 -5 12.5 -13.5t15 -17.5t5.5 -20
q9 -22 -1 -40t-34 -18q-25 0 -38 15t-13 40zM2925 156v75h94v-75h-94zM2976 -272v182q1 0 12.5 0.5t17.5 0t16 -1.5t18.5 -4.5t15.5 -8.5q6 -5 9 -15.5t3 -19.5t-1 -24.5t-1 -20.5t0.5 -17t0.5 -19t-1.5 -16t-6 -15.5t-12.5 -10.5q-5 -4 -12.5 -6.5t-16 -3t-15 -1t-16 0
t-11.5 0.5zM2980 -502v180h22v-180h-22zM3000 -258q13 0 19 1t13 7.5t11 20.5v90q-1 15 -7.5 21.5t-13 7.5t-22.5 1v-149zM3011 1178v356h53v-326h88v-30h-141zM3013 342v76h200v-76h-61v-369h-78v369h-61zM3029 -408q0 19 0.5 29t3.5 24.5t8.5 20.5t16.5 10t28 2
q8 0 15 -1.5t11.5 -5.5t8 -7.5t5.5 -10.5t3 -11.5t1.5 -13t0.5 -13v-14.5v-13q0 -22 -0.5 -31.5t-4.5 -27t-15 -25.5t-29 -8q-15 0 -26 6.5t-16 14t-8 22t-3 22.5v24v7zM3062 -395q0 -3 -3 -26t-1.5 -38.5t10.5 -19.5q7 -4 13.5 -5t10.5 1.5t7 6t5 10t3 12t1.5 13.5t0.5 12
v11q0 1 0.5 13.5t0 20t-1.5 18t-3.5 16.5t-7.5 8q-35 14 -35 -27v-26zM3082 766v49h49v-49h-49zM3082 1124h49l-18 -282h-16zM3158 -502v180h14l58 -120v120h20v-180h-18l-60 127v-127h-14zM3250 -27v445h78v-178h68v178h69v-445h-69v187h-68v-187h-78zM3504 -27v445h129
q29 0 54.5 -30.5t25.5 -86.5q0 -86 -53 -121l49 -207h-74l-39 193h-20v-193h-72zM3576 229h41q12 6 16.5 37t-4.5 59.5t-29 28.5h-24v-125zM3752 -27v445h172v-76h-100v-96h82v-80h-82v-117h100v-76h-172zM3932 -27l82 445h70l75 -445h-73l-15 107h-47l-16 -107h-76z
M4035 143h24l-12 88zM4168 -27v445h71q66 0 95.5 -34t29.5 -105v-166q0 -72 -27 -106t-87 -34h-82zM4239 43h25q22 11 22 25q3 30 3 65v119q0 36 -3 63q0 8 -7 17.5t-15 9.5h-25v-299z" />
    <glyph glyph-name="uni0030" unicode="1" horiz-adv-x="4741" 
d="M2408 1174q-78 0 -90 75q-4 23 -4 64q0 8 -0.5 39.5t0 46t2.5 37t6 37.5q11 59 82 63q81 0 99 -51q6 -16 9 -38t3 -39t-1 -44t-1 -37q0 -59 -6 -82q-14 -71 -99 -71zM264 -23l6 443h72l53 -279l51 279h76l2 -443h-63l-6 183l-31 -183h-53l-37 181l-4 -181h-66zM582 -23
v443h55l76 -213v213h69v-443h-53l-78 216v-216h-69zM834 -23v80h75v-80h-75zM936 133l70 2q0 -53 16 -78q13 -21 29 -14q18 6 18 37q0 20 -10 38t-33.5 43.5t-26.5 28.5q-5 6 -15 15t-16.5 16.5t-9.5 14.5q-27 50 -16 102q1 49 46 74.5t91 3.5q58 -28 58 -142l-68 -4
q-1 6 -3 32.5t-7.5 39t-18.5 14.5q-23 1 -30.5 -21.5t0.5 -33.5q4 -12 10 -20.5t18.5 -19.5t14.5 -13l34 -41q61 -61 52 -146q-2 -31 -22.5 -56t-55.5 -34q-33 -5 -63.5 9.5t-43.5 44.5q-18 49 -18 108zM1174 199q0 11 -1 40t-0.5 50t3.5 39q11 71 63 92q60 15 100 -10
q22 -13 33 -39.5t12.5 -45.5t1.5 -51v-10h-71q0 55 -4.5 70.5t-18.5 21.5q-41 5 -41 -59v-162q0 -3 -1 -17t-0.5 -23.5t2.5 -21.5t8 -20t16 -10q16 -6 26.5 1t14 27.5t4 31.5t0.5 31v7h-45v66h115v-230h-58l-4 15q-20 -20 -52.5 -21t-55.5 15q-36 16 -45 90q-3 19 -3.5 39
t0.5 46.5t1 37.5zM1368 -375q0 27 16 43t46 10q17 0 25.5 -10t9.5 -19.5t1 -29.5h-22q0 28 -2 33q-6 12 -20 12.5t-21 -8.5q-3 -5 -5 -15t-2 -18t0.5 -20.5t0.5 -14.5l-1 -12q0 -12 0.5 -19t2.5 -16.5t6 -15.5q6 -9 19.5 -7.5t19.5 13.5q2 5 2 33h22q0 -68 -43 -68
q-16 0 -27.5 7t-17 15.5t-8.5 25t-3 26.5t0.5 30t0.5 25zM1405 -80l119 557h69l-125 -557h-63zM1487 -408q0 19 0.5 29t3 24.5t7.5 20.5t15 10t25 2q15 0 25 -5.5t15 -12t8 -20t3 -21.5v-24v-7v-7q0 -19 -1 -29.5t-5 -26t-15.5 -22.5t-29.5 -7q-12 0 -21.5 3t-14.5 10
t-8.5 12.5t-5 17.5t-2 17t0 19.5t0.5 16.5zM1491 1178v356h76q68 0 88 -39q19 -31 14.5 -72.5t-33.5 -62.5q-6 -6 -14 -10t-14 -6.5t-18.5 -3.5t-17 -1h-18.5h-16v-161h-47zM1493 903v221h45v-239q0 -70 31 -86q36 -11 51.5 15t15.5 65v114v131h50v-161q0 -8 1 -34
t0.5 -40.5t-3 -37.5t-9 -37.5t-19 -28t-30.5 -19.5q-32 -16 -71 -1.5t-52 50.5q-10 25 -10 88zM1509 -395q0 -1 -0.5 -14t0 -21.5t1.5 -20t4.5 -19t9.5 -9.5q7 -4 13 -5t10 1t7 5t4.5 9.5t2.5 11t1.5 13t0.5 12v11.5v3q0 71 -15 76q-17 8 -28 -1t-11 -26v-26zM1538 1376
q40 0 55 4q29 7 29 54q0 55 -29 61q-10 3 -19.5 3.5t-20.5 -0.5t-15 -1v-121zM1554 -272v182h72v-19h-43v-63h35v-16h-35v-84h-29zM1610 131l69 2q0 -51 15 -78q4 -22 26 -16q17 4 17 37q0 17 -8.5 35t-15 26.5t-25.5 27.5l-21 21q-6 10 -19.5 24.5t-15.5 20.5
q-30 37 -22 105q3 49 48.5 74t90.5 4q59 -26 59 -142l-71 -4v5q0 75 -27 81q-21 1 -27.5 -21t0.5 -36q7 -21 37 -51l37 -39q61 -68 53 -148q-2 -32 -22.5 -57.5t-54.5 -34.5q-33 -3 -64 11t-45 45q-14 33 -14 108zM1614 -502v180h26l37 -143l27 143h25l4 -180h-19v133
l-28 -133h-21l-31 133v-133h-20zM1640 -176q0 17 0.5 26.5t3.5 23.5t9 21.5t17.5 13t27.5 5.5q16 -3 26 -12t14 -24.5t4.5 -25.5t0.5 -29v-7q0 -20 -1 -31t-5 -26.5t-15 -23t-28 -7.5q-16 0 -27.5 7t-16.5 14t-7.5 24.5t-2.5 23.5v27zM1667 -172q0 -1 -1 -17.5t-1 -27.5
t5 -23.5t16 -15.5q12 -3 19 2t9.5 18.5t3 21.5t0.5 24q0 2 0.5 13.5t0.5 20t-1 19t-4.5 17.5t-9.5 9q-13 9 -25 -2t-12 -30v-29zM1704 1178v356h135v-37h-86v-121h72v-37h-72v-131h90v-30h-139zM1724 864l52 15q5 -55 14 -64q12 -12 28 -14t27 10q16 11 16 33t-12 37
q-2 2 -9 12.5t-14 17.5t-16 11q-1 1 -30 26t-39 41q-22 33 -11 77.5t52 57.5q43 10 86 -14q33 -24 33 -76l-41 -16q-4 58 -37 63q-18 7 -30.5 -1t-14.5 -23q-6 -8 -3 -18.5t4.5 -16t9.5 -14.5t13 -13.5t15 -13t14 -12.5q2 -2 16 -13t17.5 -14.5l13.5 -13.5t14 -17t8 -18
t5 -23q8 -43 -15.5 -75.5t-66.5 -32.5t-69.5 29t-29.5 73zM1763 -502v180h27l33 -143l28 143h23l8 -180h-18l-4 133l-29 -133h-21l-24 133l-4 -133h-19zM1769 -272v182q4 0 16 0.5t18.5 0.5t16.5 -2t17 -5q21 -11 22 -45t-22 -43l27 -88h-27l-27 84h-20v-84h-21zM1786 492
v188q4 0 16 0.5t19.5 0.5t17.5 -2t17 -7t12 -13q12 -46 -4 -69q-15 -12 -54 -12v-86h-24zM1790 -172q23 0 35 6.5t12 26.5t-11 25t-36 5v-63zM1810 594q21 0 27 4q12 8 12 37q0 23 -8 28t-31 5v-74zM1849 -27v445h76v-445h-76zM1882 1178v356q6 0 34.5 0.5t40 0t31 -4
t33.5 -10.5q40 -22 41 -86.5t-41 -79.5l43 -176h-43l-49 163h-37v-163h-53zM1901 492v188h16v-168h51v-20h-67zM1911 -502v180h71v-16h-43v-57h35v-19h-35v-71h43v-17h-71zM1925 -109v19h92v-19h-35v-163h-26v163h-31zM1935 1376q34 0 52 4q33 14 26 66q0 38 -26 47
q-8 4 -16.5 5t-21.5 0t-14 -1v-121zM1950 766v358h135v-43h-88v-112h71v-37h-71v-133h88v-33h-135zM1964 -27l8 445h70l51 -279l51 279h78l4 -445h-67l-2 185l-37 -185h-52l-34 183v-183h-70zM1987 492v188h67v-12h-45v-70h39v-20h-39v-66h45v-20h-67zM2001 -502v180
q9 0 25 1.5t26.5 1t18.5 -4.5q19 -14 19 -46.5t-22 -41.5l27 -90h-24l-21 88h-20v-88h-29zM2030 -395q15 0 21 0.5t11.5 6.5t5.5 19q0 19 -9.5 25t-28.5 6v-57zM2030 -272v182h22v-82h49v82h25v-182h-25v84h-49v-84h-22zM2064 492l39 188h31l35 -188h-27l-8 51h-39l-6 -51
h-25zM2095 557h39l-18 92zM2095 1276l49 12q3 -42 21 -63q14 -12 31.5 -13t29.5 9q13 12 12 31.5t-12 35.5q-23 28 -41 41q-5 5 -21 18.5t-28 24.5t-20 21q-25 41 -14 84.5t55 52.5q20 8 45.5 5t42.5 -15q25 -16 30 -72l-37 -14q-2 5 -5.5 18.5t-6.5 21t-10 16t-16 11.5
q-18 0 -34 -8.5t-20 -22.5q-7 -45 64 -94q2 -2 16.5 -16t19 -19t14 -16.5t14 -21.5t7.5 -21q8 -44 -15 -76t-66 -32q-48 0 -75 28.5t-30 73.5zM2116 -375q0 27 15.5 43t45.5 10q22 0 28.5 -15.5t6.5 -43.5h-25q0 2 1.5 9t1 13.5t-4.5 10.5q-1 12 -16.5 12.5t-22.5 -8.5
q-5 -6 -6.5 -18t-0.5 -31l1 -19q0 -2 -0.5 -12t-1 -18t1.5 -17.5t6 -15.5q7 -9 22.5 -7.5t16.5 13.5q4 4 4.5 10t-1 13t-1.5 10h25q0 -19 -2 -31.5t-13 -24.5t-32 -12q-19 0 -30.5 8t-15.5 25t-5 29.5t0.5 36t1.5 30.5zM2152 -272v182h74v-19h-43v-63h35v-16h-35v-70h43v-14
h-74zM2183 543l27 10q0 -35 12 -41q29 0 29 20q0 11 -7 22t-19 22.5t-15 15.5q-21 15 -26 38t16 42q22 18 49 6q24 -12 24 -47l-22 -4q-9 39 -27 38q-12 -1 -14 -16q-6 -25 20 -51q2 -1 6 -4t6.5 -4.5t6.5 -4t6 -4.5l5 -5t5 -5.5t4 -5.5t3 -6t1 -6q8 -25 -4.5 -43t-38.5 -18
q-19 0 -32 15.5t-15 35.5zM2222 911q0 13 -0.5 38.5t-0.5 41t1 37t4 37.5q20 59 86 59q76 0 92 -51q9 -19 11 -43.5t0 -62t-2 -45.5q0 -9 0.5 -23.5t0.5 -22.5t-1 -19.5t-5 -20.5q-3 -36 -26.5 -55t-59.5 -19q-40 0 -66.5 19.5t-29.5 56.5q-4 25 -4 73zM2241 -502v180h24
v-180h-24zM2263 -27v445h109q39 0 68.5 -40.5t29.5 -109.5q0 -129 -82 -149q-16 -6 -53 -6v-140h-72zM2273 879v-6q0 -59 21 -70q26 -7 43 0q26 17 30 47q1 5 1 12.5t-0.5 15.5t-0.5 11v129q0 43 -14 55l-6 3l-6 3t-5.5 2.5t-5.5 2t-5 1t-5.5 0.5t-5 -1t-4.5 -3
q-25 0 -37 -26q-3 -16 -3 -35.5t1.5 -43t1.5 -34.5v-63zM2284 -502l38 180h25l41 -180h-23l-10 47h-37l-8 -47h-26zM2294 492v188h73v-12h-45v-70h33v-20h-33v-66h48v-20h-76zM2304 -272v182h68v-19h-50v-63h33v-16h-33v-84h-18zM2322 -442h31l-16 90zM2335 180h39
q13 5 19 48t-1.5 84.5t-28.5 41.5h-28v-174zM2367 1284v-4q0 -55 25 -66q9 -4 22.5 -4t20.5 4q27 11 27 48v163q0 45 -19 60q-12 20 -39 12q-26 -3 -34 -37q-6 -12 -7 -31t1.5 -45t2.5 -36v-64zM2388 -229v41v98h20v-82q0 -3 -1 -17t-0.5 -23.5t2.5 -21.5t8 -18t16 -6
q7 0 12.5 3.5t8.5 10t5 13t2.5 16.5t0.5 16v15.5v11.5v82h22v-84v-11.5v-13t-0.5 -12.5t-1.5 -13.5t-2 -11.5t-4 -11.5t-6 -10t-8 -9t-11 -5.5q-57 -12 -63 43zM2404 -502v180h27v-163h49v-17h-76zM2431 680h29l24 -137l29 137h22l-38 -188h-25zM2468 766v358h35l100 -239
v239h43v-358h-35l-104 244v-244h-39zM2509 -27v445h76v-369h92v-76h-168zM2513 -272v182h27v-168h40v-14h-67zM2542 -322h20l27 -133l30 133h21l-41 -180h-19zM2554 492v188h26v-188h-26zM2562 1178v356h29l102 -242v242h45v-356h-35l-100 239v-239h-41zM2599 -272v182h24
v-168h46v-14h-70zM2603 543l25 10q0 -32 18 -41q23 0 23 20q1 6 -0.5 12t-4 10.5t-8 11t-8.5 9t-10.5 9.5t-9.5 8q-18 17 -23.5 38.5t14.5 41.5q30 17 47 6q23 -12 27 -47l-24 -4q-2 24 -9.5 32.5t-16 4.5t-13.5 -15q-1 -8 -1.5 -13t3.5 -11.5t7 -10t8 -9t7 -7.5
q37 -25 39 -45q7 -25 -5.5 -43t-35.5 -18q-41 0 -49 51zM2660 -502v180h76v-16h-49v-57h39v-19h-39v-71h49v-17h-76zM2703 766v358h50v-325h83v-33h-133zM2716 -27v445h172v-76h-101v-96h82v-80h-82v-117h101v-76h-172zM2716 492v188h30v-188h-30zM2736 -272l33 182h29
l38 -182h-26l-6 45h-35l-12 -45h-21zM2755 -502v180q7 0 22.5 1.5t26.5 1t20 -4.5q21 -13 19.5 -47t-25.5 -41l27 -90h-25l-22 88h-19v-88h-24zM2761 668v12h84v-12h-29v-176h-20v176h-35zM2769 -211h29l-15 84zM2773 1178l78 356h47l78 -356h-49l-17 84h-74l-18 -84h-45z
M2779 -395q16 0 22 0.5t11.5 6.5t5.5 19q0 19 -9 25t-30 6v-57zM2845 1298h57l-27 162zM2855 -272v182h16l49 -121v121h25v-182h-18l-48 122v-122h-24zM2855 1124h43l53 -172l55 172h50q-5 -20 -50 -151l-24 -70q-3 -8 -3.5 -17t0.5 -20t1 -14v-86h-53v74v53q-10 49 -25 70z
M2865 -449l25 5q0 -30 12 -35q13 -6 23 0.5t10 17.5q0 16 -45 53q-20 18 -23.5 42t15.5 36q12 10 26 12t21 -4q22 -9 22 -40l-16 -11q-2 4 -4.5 13.5t-5.5 14.5t-7 7q-15 8 -26 -10q-2 -4 -2.5 -8t1 -8t2.5 -6.5t5 -6.5l6 -6t7 -6t7 -6q3 -5 12.5 -13.5t15 -17.5t5.5 -20
q9 -22 -1 -40t-34 -18q-25 0 -38 15t-13 40zM2925 156v75h94v-75h-94zM2976 -272v182q1 0 12.5 0.5t17.5 0t16 -1.5t18.5 -4.5t15.5 -8.5q6 -5 9 -15.5t3 -19.5t-1 -24.5t-1 -20.5t0.5 -17t0.5 -19t-1.5 -16t-6 -15.5t-12.5 -10.5q-5 -4 -12.5 -6.5t-16 -3t-15 -1t-16 0
t-11.5 0.5zM2980 -502v180h22v-180h-22zM3000 -258q13 0 19 1t13 7.5t11 20.5v90q-1 15 -7.5 21.5t-13 7.5t-22.5 1v-149zM3011 1178v356h53v-326h88v-30h-141zM3013 342v76h200v-76h-61v-369h-78v369h-61zM3029 -408q0 19 0.5 29t3.5 24.5t8.5 20.5t16.5 10t28 2
q8 0 15 -1.5t11.5 -5.5t8 -7.5t5.5 -10.5t3 -11.5t1.5 -13t0.5 -13v-14.5v-13q0 -22 -0.5 -31.5t-4.5 -27t-15 -25.5t-29 -8q-15 0 -26 6.5t-16 14t-8 22t-3 22.5v24v7zM3062 -395q0 -3 -3 -26t-1.5 -38.5t10.5 -19.5q7 -4 13.5 -5t10.5 1.5t7 6t5 10t3 12t1.5 13.5t0.5 12
v11q0 1 0.5 13.5t0 20t-1.5 18t-3.5 16.5t-7.5 8q-35 14 -35 -27v-26zM3082 766v49h49v-49h-49zM3082 1124h49l-18 -282h-16zM3158 -502v180h14l58 -120v120h20v-180h-18l-60 127v-127h-14zM3250 -27v445h78v-178h68v178h69v-445h-69v187h-68v-187h-78zM3504 -27v445h129
q29 0 54.5 -30.5t25.5 -86.5q0 -86 -53 -121l49 -207h-74l-39 193h-20v-193h-72zM3576 229h41q12 6 16.5 37t-4.5 59.5t-29 28.5h-24v-125zM3752 -27v445h172v-76h-100v-96h82v-80h-82v-117h100v-76h-172zM3932 -27l82 445h70l75 -445h-73l-15 107h-47l-16 -107h-76z
M4035 143h24l-12 88zM4168 -27v445h71q66 0 95.5 -34t29.5 -105v-166q0 -72 -27 -106t-87 -34h-82zM4239 43h25q22 11 22 25q3 30 3 65v119q0 36 -3 63q0 8 -7 17.5t-15 9.5h-25v-299z" />
    <glyph glyph-name="colon" unicode=":" horiz-adv-x="661" 
d="M532 893q54 0 92 -37.5t38 -91.5t-38 -91.5t-92 -37.5t-91.5 37.5t-37.5 91.5t37.5 91.5t91.5 37.5zM0 129q0 54 37.5 92.5t91.5 38.5t92.5 -38.5t38.5 -92.5t-38.5 -91.5t-92.5 -37.5t-91.5 37.5t-37.5 91.5z" />
    <glyph glyph-name="semicolon" unicode=";" horiz-adv-x="741" 
d="M612 893q54 0 91.5 -37.5t37.5 -91.5t-37.5 -91.5t-91.5 -37.5t-92.5 37.5t-38.5 91.5t38.5 91.5t92.5 37.5zM0 -86q0 68 38 173t79 146q25 25 63 25q47 0 89 -33t42 -69q0 -21 -14 -35q-200 -184 -252 -236q-6 -6 -16 -6q-11 0 -20 9t-9 26z" />
    <glyph glyph-name="less" unicode="&#x3c;" horiz-adv-x="724" 
d="M12 516q-12 12 -12 31q0 16 147.5 134.5t305.5 230.5t184 112q38 0 63 -33t25 -71q0 -26 -13.5 -43t-39.5 -17q-23 0 -226.5 -113.5t-367.5 -209.5q38 -42 139 -155.5t178.5 -200.5t85.5 -95q11 -11 11 -27q0 -21 -24.5 -40t-51.5 -19q-21 0 -33 12q-17 18 -184 251
t-187 253z" />
    <glyph glyph-name="equal" unicode="=" horiz-adv-x="792" 
d="M766 700q27 0 27 -30t-24 -64.5t-50 -34.5q-41 0 -214.5 3.5t-242.5 3.5q-20 0 -20 34q0 27 12.5 53.5t30.5 26.5q47 0 242 4t239 4zM0 373q0 27 12.5 53.5t30.5 26.5q48 0 242.5 3t238.5 3q27 0 27 -31q0 -30 -24 -63t-50 -33q-41 0 -214.5 3t-242.5 3q-20 0 -20 35z
" />
    <glyph glyph-name="greater" unicode="&#x3e;" horiz-adv-x="724" 
d="M713 508q12 -12 12 -31q0 -16 -147.5 -134.5t-305.5 -230.5t-184 -112q-38 0 -63 33t-25 71q0 26 13.5 43t39.5 17q23 0 244 122.5t350 200.5q-38 42 -139 155.5t-178.5 200.5t-85.5 95q-13 13 -13 25q0 23 25 42t53 19q18 0 33 -12q17 -18 184 -251t187 -253z" />
    <glyph glyph-name="question" unicode="?" horiz-adv-x="892" 
d="M877 1434q111 0 192.5 -85t81.5 -188q0 -67 -84 -152t-203.5 -166t-239.5 -159t-204 -152.5t-84 -125.5q0 -25 -17 -25q-18 0 -38.5 22.5t-20.5 45.5q0 44 40.5 101t105 115.5t142.5 122t156.5 129t143 127.5t105 126t40.5 118q0 55 -63 55q-53 0 -140 -39.5t-166.5 -93
t-137.5 -113t-58 -96.5q0 -26 -18 -26q-28 0 -63.5 50.5t-35.5 111.5q0 80 76 148.5t206.5 108.5t283.5 40zM0 131q0 54 37.5 92.5t91.5 38.5t92.5 -38.5t38.5 -92.5t-38.5 -91.5t-92.5 -37.5t-91.5 37.5t-37.5 91.5z" />
    <glyph glyph-name="at" unicode="@" horiz-adv-x="1593" 
d="M1141 1366q201 0 326.5 -126.5t125.5 -326.5q0 -121 -60.5 -280t-152.5 -299t-213.5 -237t-232.5 -97q-77 0 -124.5 54.5t-47.5 138.5q0 39 26 112q-191 -244 -290 -244q-90 0 -140.5 50.5t-50.5 142.5q0 66 55.5 189t134 242.5t176 208.5t171.5 89q83 0 150.5 -36
t103.5 -87q83 125 101 143q20 21 44 21q45 0 98.5 -35t53.5 -67q0 -10 -9 -19q-46 -46 -148.5 -204t-192 -328.5t-89.5 -229.5q0 -26 21 -26q30 0 91 53.5t132 144t136 195t108 221.5t43 209q0 54 -9 100.5t-32.5 93.5t-60.5 80t-98 53.5t-140 20.5q-113 0 -237 -57
t-233.5 -150t-210.5 -214t-173 -246t-115 -248.5t-43 -220.5q0 -109 58.5 -171.5t179.5 -62.5q22 0 22 -12q0 -14 -33.5 -36t-60.5 -22q-125 0 -213 82t-88 226q0 105 42.5 236.5t116.5 266t182.5 262.5t231 227t272 159.5t296.5 60.5zM539 227q0 -30 20 -30q47 0 218.5 211
t242.5 331q-4 43 -22.5 79t-49.5 36q-58 0 -158.5 -130t-175.5 -281.5t-75 -215.5z" />
    <glyph glyph-name="A" unicode="A" horiz-adv-x="1298" 
d="M1556 1415q19 19 46 19q42 0 84.5 -40.5t42.5 -76.5q0 -16 -9 -25q-50 -50 -221 -294.5t-293 -469.5q25 0 25 -22q0 -51 -62 -51q-122 -236 -122 -373q0 -139 143 -139q24 0 24 -13q0 -16 -32.5 -32.5t-79.5 -16.5q-114 0 -185 86.5t-71 225.5q0 82 80 249
q-98 -4 -279 -16q-433 -426 -506 -426q-62 0 -101.5 47t-39.5 90q0 27 18 27q38 0 351 246q-41 -2 -82 -2q-29 0 -29 30t24 63.5t50 33.5h188q200 164 459 384t418 358zM754 532q74 -2 215 -2q143 269 401 639q-349 -370 -616 -637z" />
    <glyph glyph-name="B" unicode="B" horiz-adv-x="1216" 
d="M1442 1079q0 -93 -59 -186t-155.5 -167.5t-216.5 -133t-245 -90.5q116 -25 187 -80.5t71 -136.5q0 -76 -48 -145.5t-125.5 -119t-171.5 -86.5t-188 -55t-174 -18q-65 0 -112 69q-1 -4 -2.5 -16t-3 -15t-5.5 -9t-11.5 -7.5t-20.5 -1.5q-50 0 -106 34t-56 83
q0 51 81.5 213.5t203.5 367.5t235.5 386.5t206.5 322.5q-98 -34 -191.5 -84t-170 -107.5t-123.5 -122t-47 -122.5q0 -38 34 -72q7 -7 7 -10q0 -10 -17.5 -17.5t-42.5 -7.5q-28 0 -56 9.5t-55 30t-44 59.5t-17 90q0 115 116 221.5t303.5 177.5t401.5 92q12 9 29 9q9 0 29 -4
q66 4 98 4q201 0 331 -99t130 -256zM240 29q127 7 262.5 47t231 104t95.5 129q0 63 -84 111.5t-215 48.5q-27 0 -55 14q-172 -303 -235 -454zM561 631q117 21 235.5 67t220.5 109t166 147.5t64 171.5q0 86 -72 151.5t-167 68.5q2 -4 2 -15q0 -12 -9 -18
q-37 -37 -168.5 -240.5t-271.5 -441.5z" />
    <glyph glyph-name="C" unicode="C" horiz-adv-x="1208" 
d="M1313 489q5 5 10 5q12 0 28.5 -14.5t16.5 -24.5q0 -7 -2 -9q-8 -8 -65 -71t-108 -115.5t-140 -126t-174.5 -124.5t-198.5 -87.5t-223 -36.5q-196 0 -326.5 110t-130.5 288q0 104 52 233t137 255t198.5 247t232.5 212.5t244 147.5t228 56q132 0 231.5 -75.5t99.5 -174.5
q0 -68 -65 -188.5t-156 -234t-196 -198t-177 -84.5q-42 0 -78 36t-36 63q0 18 18 18q49 0 141 76.5t178.5 180t151 216t64.5 176.5q0 70 -76 70q-71 0 -174 -56.5t-209 -147t-212.5 -209t-189.5 -238t-134.5 -239t-51.5 -206.5q0 -199 256 -199q109 0 224 38t199.5 87.5
t173.5 121.5t132.5 114t90.5 91q11 12 16 17z" />
    <glyph glyph-name="D" unicode="D" horiz-adv-x="1380" 
d="M981 1434q237 0 379.5 -106.5t142.5 -268.5q0 -130 -61.5 -272.5t-161.5 -267.5t-230 -240t-265.5 -197.5t-269.5 -131t-239 -48.5q-37 0 -71 24q-1 -4 -2.5 -13t-2.5 -11.5t-3.5 -8.5t-6.5 -7.5t-11 -3t-17 -1.5q-50 0 -106 34t-56 83q0 51 81.5 213.5t203.5 367.5
t235.5 386.5t206.5 322.5q-98 -34 -191.5 -84t-170 -107.5t-123.5 -122t-47 -122.5q0 -38 34 -72q7 -7 7 -10q0 -10 -17.5 -17.5t-42.5 -7.5q-28 0 -56 9.5t-55 30t-44 59.5t-17 90q0 115 115.5 221.5t303 176.5t402.5 93q88 9 156 9zM254 61q104 20 223.5 75t234.5 133
t221.5 177.5t186.5 204.5t128 219t48 215q0 103 -80 180.5t-208 80.5q2 -4 2 -15q0 -12 -9 -18q-69 -69 -350 -532.5t-397 -719.5z" />
    <glyph glyph-name="E" unicode="E" horiz-adv-x="1083" 
d="M1192 489q5 5 10 5q12 0 28.5 -13.5t16.5 -25.5q0 -5 -4 -9q-12 -12 -61.5 -71.5t-97.5 -114.5t-132 -127t-170 -123.5t-205 -88t-243 -36.5q-144 0 -239 69t-95 189q0 86 48.5 166.5t127 138.5t172 99t187.5 57q-93 36 -152 97.5t-59 136.5q0 95 66 202.5t166.5 193.5
t228.5 143t243 57q128 0 209.5 -68t81.5 -162q0 -65 -67 -174t-162.5 -195.5t-163.5 -86.5q-42 0 -78.5 35t-36.5 63q0 16 18 16q32 0 94.5 48.5t122.5 114.5t105 139.5t45 117.5q0 53 -68 53q-104 0 -210 -52t-182.5 -128.5t-124.5 -166t-48 -163.5q0 -76 52 -121t161 -45
q41 0 41 -22q0 -21 -30.5 -43.5t-67.5 -22.5q-90 0 -175.5 -40.5t-143.5 -101t-93 -130t-35 -129.5q0 -59 36.5 -94t109.5 -35q97 0 194.5 29t167.5 66.5t147 98t115.5 98.5t92 95t57.5 61z" />
    <glyph glyph-name="F" unicode="F" horiz-adv-x="1110" 
d="M1196 715q21 0 21 -23q0 -15 -3 -24.5t-12.5 -15.5t-19.5 -9t-32 -4.5t-42 -2t-57 -2t-70 -3.5q-19 -32 -61 -101.5t-63 -104.5t-57.5 -97t-56.5 -97t-47.5 -85t-42.5 -81.5t-30.5 -66t-22 -57.5t-6.5 -39q0 -21 -39 -21q-50 0 -106 34t-56 83q0 29 20.5 78t75 141.5
t86 143t116.5 182.5q29 46 44 69q-261 -18 -317 -18q-27 0 -27 29q0 31 23.5 64.5t50.5 33.5q186 0 336 -2q258 416 258 547q0 75 -78 75q-100 0 -289.5 -84t-345.5 -203t-156 -202q0 -26 20.5 -52t20.5 -30q0 -20 -49 -20q-28 0 -57.5 9.5t-58.5 29t-47.5 57.5t-18.5 88
q0 87 106.5 180t261.5 162t333 113.5t317 44.5q104 0 180 -67.5t76 -152.5q0 -88 -244 -497q72 -2 166 -2z" />
    <glyph glyph-name="G" unicode="G" horiz-adv-x="1402" 
d="M1221 664q12 12 34 12q43 0 98.5 -36.5t55.5 -66.5q0 -10 -8 -18q-81 -81 -219 -322t-138 -325q0 -12 -14.5 -19.5t-36.5 -7.5q-52 0 -100.5 28t-48.5 75q0 37 98 219q-287 -318 -506 -318q-83 0 -160.5 27.5t-139.5 76.5t-99 126t-37 168q0 104 52 233t137 255
t198.5 247t232.5 212.5t244 147.5t228 56q132 0 231.5 -75.5t99.5 -174.5q0 -63 -66 -167t-156.5 -199t-193 -164.5t-169.5 -69.5q-42 0 -78.5 35t-36.5 63q0 16 18 16q67 0 194 106.5t228 241.5t101 209q0 60 -72 60q-78 0 -185.5 -60.5t-215.5 -157t-215.5 -220.5
t-190 -248.5t-133.5 -244.5t-51 -204q0 -160 182 -160q77 0 160 30.5t157 82.5t143.5 113t131 129t108 123.5t85.5 103.5t53 62z" />
    <glyph glyph-name="H" unicode="H" horiz-adv-x="1554" 
d="M1810 1415q19 19 45 19q43 0 86.5 -40.5t43.5 -76.5q0 -14 -11 -25q-47 -50 -203 -270t-276 -432q18 0 25.5 -5t7.5 -18q0 -30 -19 -40.5t-55 -10.5q-151 -288 -151 -434q0 -139 143 -139q22 0 22 -13q0 -16 -32.5 -32.5t-79.5 -16.5q-113 0 -183.5 86.5t-70.5 225.5
q0 104 110 313q-53 -2 -198.5 -10t-222.5 -11q-143 -237 -221 -383t-78 -200q0 -21 -39 -21q-50 0 -106 34t-56 83q0 50 63.5 164t190.5 313q-117 -6 -152 -6q-28 0 -28 31q0 30 23.5 63t49.5 33h183q155 242 245 411.5t90 258.5q0 75 -77 75q-73 0 -192 -52t-228.5 -125.5
t-189 -160.5t-79.5 -151q0 -26 20.5 -51t20.5 -31q0 -10 -17 -17.5t-42 -7.5q-28 0 -56 9.5t-55 30t-44 59.5t-17 90q0 79 91 169.5t225.5 162.5t298 120t300.5 48q104 0 180 -67.5t76 -152.5q0 -59 -81.5 -213t-233.5 -407q69 0 205.5 -1t195.5 -1q128 232 317 504t236 319
z" />
    <glyph glyph-name="I" unicode="I" horiz-adv-x="905" 
d="M915 1434q104 0 180 -67.5t76 -152.5q0 -51 -70 -188.5t-169.5 -304.5t-199.5 -333t-170 -302t-70 -184q0 -21 -39 -21q-50 0 -106 34t-56 83q0 47 68.5 171.5t166.5 277.5t195.5 309.5t166 297.5t68.5 212q0 75 -77 75q-73 0 -192 -52t-228.5 -125.5t-189 -160.5
t-79.5 -151q0 -26 20.5 -51t20.5 -31q0 -10 -17 -17.5t-42 -7.5q-28 0 -56 9.5t-55 30t-44 59.5t-17 90q0 79 91 169.5t225.5 162.5t298 120t300.5 48z" />
    <glyph glyph-name="J" unicode="J" horiz-adv-x="1204" 
d="M1176 637q15 -7 25.5 -23t10.5 -28q0 -7 -5 -11.5t-13 -5.5t-18 -1.5t-20 0t-19 -0.5q-77 -135 -161 -260.5t-179 -243t-186 -204.5t-183.5 -139t-169.5 -52q-122 0 -190 65.5t-68 172.5q0 83 80.5 187t207 199t286.5 177t313 127q144 215 232.5 394.5t88.5 271.5
q0 79 -71 79q-74 0 -183.5 -52t-206.5 -125.5t-167 -160.5t-70 -151q0 -26 20.5 -51t20.5 -31q0 -10 -17 -17.5t-42 -7.5q-29 0 -57.5 9.5t-56 30t-44.5 59.5t-17 90q0 123 135.5 241t334.5 188.5t384 70.5q105 0 171.5 -57t66.5 -142q0 -79 -63.5 -241.5t-169.5 -356.5z
M154 -188q0 -23 24 -23q63 0 235 188t363 455q-155 -91 -304 -223.5t-233.5 -241t-84.5 -155.5z" />
    <glyph glyph-name="K" unicode="K" horiz-adv-x="1433" 
d="M1843 1286q0 -215 -973 -876q99 -163 242 -289.5t236 -126.5q23 0 52 18.5t30 18.5q10 0 10 -21q0 -52 -68 -115t-170 -63q-110 0 -225.5 118t-253.5 372q-12 6 -18 18q-213 -360 -213 -438q0 -21 -39 -21q-50 0 -106 34t-56 83q0 30 23.5 84.5t81 151t95 156
t123.5 194.5q-6 30 -6 55t28 47.5t62 30.5q121 198 189.5 335.5t68.5 213.5q0 75 -77 75q-99 0 -264 -84.5t-295 -203t-130 -201.5q0 -26 20.5 -51t20.5 -31q0 -10 -17 -17.5t-42 -7.5q-28 0 -56 9.5t-55 30t-44 59.5t-17 90q0 79 91 169.5t225.5 162.5t298 120t300.5 48
q103 0 179.5 -68t76.5 -152q0 -34 -27.5 -101t-89.5 -178t-107.5 -188.5t-133.5 -224.5q0 -2 4 -10q22 18 96 77t118 95.5t122.5 101.5t130.5 112t119.5 110t111 113t84.5 102.5t60.5 97.5t19.5 80q0 33 31 33q41 0 87 -45.5t46 -102.5z" />
    <glyph glyph-name="L" unicode="L" horiz-adv-x="1320" 
d="M1055 178q106 0 163.5 -39t57.5 -114q0 -64 -36 -116t-64 -52q-13 0 -13 18q0 111 -229 111q-112 0 -283 -26t-319 -51.5t-203 -25.5q-54 0 -91.5 28.5t-37.5 53.5q0 12 12.5 16.5t53.5 9.5t71 11q26 63 102.5 192t182 289t232 328t247 307t233 227.5t183.5 88.5
q110 0 180 -66t70 -162q0 -69 -47.5 -195.5t-115 -249.5t-150 -214.5t-144.5 -91.5q-42 0 -78.5 35t-36.5 63q0 16 19 16q44 0 142.5 149.5t178.5 324.5t80 243q0 31 -18 31q-48 0 -186 -151t-293 -357t-299.5 -417.5t-212.5 -334.5q433 97 559 114q56 7 90 7z" />
    <glyph glyph-name="M" unicode="M" horiz-adv-x="2197" 
d="M2030 -61q24 0 24 -13q0 -16 -32.5 -32.5t-79.5 -16.5q-101 0 -178.5 88t-77.5 223q0 72 63 208t152.5 281t179 280.5t152.5 232.5t63 113q0 4 -2 4q-37 0 -302 -282t-524.5 -598t-277.5 -394q0 -18 -11 -25.5t-38 -7.5q-51 0 -101.5 28.5t-50.5 71.5q0 56 100.5 247
t221 389.5t221 371t100.5 195.5q0 4 -2 4q-27 0 -201.5 -196t-373 -441t-365 -474t-178.5 -288q0 -27 -39 -27q-50 0 -106 34t-56 83q0 47 66.5 171t161 276t189.5 308t161.5 296.5t66.5 212.5q0 79 -77 79q-73 0 -192 -52t-228.5 -125.5t-189 -160.5t-79.5 -151
q0 -26 20.5 -51t20.5 -31q0 -10 -17 -17.5t-42 -7.5q-28 0 -56 9.5t-55 30t-44 59.5t-17 90q0 79 91 169.5t225.5 162.5t298 120t300.5 48q104 0 180 -67.5t76 -152.5q0 -22 -11.5 -58t-37 -89.5t-50.5 -103t-68 -126.5t-73 -129t-82 -142.5t-79 -137.5q175 229 362.5 454.5
t344.5 388.5t200 163q65 0 125 -50.5t60 -103.5q0 -15 -12 -46t-37.5 -81.5t-51.5 -97.5t-70 -122t-74.5 -126.5t-83.5 -141t-81 -135.5q274 332 550 618t339 286q65 0 124.5 -50.5t59.5 -103.5q0 -28 -63 -136.5t-153.5 -254t-181 -300t-153.5 -302t-63 -232.5
q0 -116 119 -116z" />
    <glyph glyph-name="N" unicode="N" horiz-adv-x="1716" 
d="M1550 -61q23 0 23 -13q0 -16 -33 -32.5t-80 -16.5q-101 0 -177.5 88t-76.5 223q0 72 62.5 208t152 281t179.5 280.5t152.5 232.5t62.5 113q0 4 -3 4q-46 0 -257.5 -201t-442 -451t-415.5 -478t-185 -275q0 -21 -39 -21q-50 0 -106 34t-56 83q0 47 66.5 171t161 276
t189.5 308t161.5 296.5t66.5 212.5q0 79 -77 79q-73 0 -192 -52t-228.5 -125.5t-189 -160.5t-79.5 -151q0 -26 20.5 -51t20.5 -31q0 -10 -17 -17.5t-42 -7.5q-28 0 -56 9.5t-55 30t-44 59.5t-17 90q0 79 91 169.5t225.5 162.5t298 120t300.5 48q104 0 180 -67.5t76 -152.5
q0 -33 -26 -99t-82.5 -171t-102.5 -186.5t-129.5 -224.5t-119.5 -207q140 174 307.5 362.5t334.5 358t306 278.5t201 109q65 0 124.5 -50.5t59.5 -103.5q0 -28 -63 -136.5t-153 -254t-180 -300t-153 -302t-63 -232.5q0 -116 118 -116z" />
    <glyph glyph-name="O" unicode="O" horiz-adv-x="1259" 
d="M1044 1434q92 0 166.5 -30t119.5 -79t69 -107t24 -118q0 -92 -46 -220t-122.5 -262t-180.5 -267t-214 -236t-230 -167.5t-222 -64.5q-72 0 -144 25.5t-131 70.5t-96 115.5t-37 153.5q0 139 95.5 346t241 410t304.5 362q12 12 37 12q54 0 108 -47q137 103 258 103z
M203 131q0 -156 133 -156q88 0 195 66t207.5 171.5t197 239.5t168 267t115 258t43.5 209q0 139 -115 139q-81 0 -173 -51.5t-174.5 -134.5t-159.5 -191t-132.5 -218t-89 -217.5t-33.5 -188.5q0 -9 -20 -9q-32 0 -67.5 18.5t-39.5 49.5q-55 -151 -55 -252z" />
    <glyph glyph-name="P" unicode="P" horiz-adv-x="1236" 
d="M981 1434q201 0 331 -99t130 -256q0 -116 -84.5 -245.5t-211 -231t-283.5 -168.5t-294 -67q-67 0 -118 71q-250 -446 -250 -536q0 -21 -39 -21q-50 0 -106 34t-56 83q0 51 81.5 213.5t203.5 367.5t235.5 386.5t206.5 322.5q-98 -34 -191.5 -84t-170 -107.5t-123.5 -122
t-47 -122.5q0 -38 34 -72q7 -7 7 -10q0 -10 -17.5 -17.5t-42.5 -7.5q-28 0 -56 9.5t-55 30t-44 59.5t-17 90q0 115 116 221.5t303.5 177.5t401.5 92q12 9 29 9q9 0 29 -4q66 4 98 4zM494 514q151 17 330 116.5t303 234t124 241.5q0 96 -73.5 166.5t-169.5 73.5q2 -4 2 -15
q0 -12 -9 -18q-42 -42 -199 -289t-308 -510z" />
    <glyph glyph-name="Q" unicode="Q" horiz-adv-x="1284" 
d="M1489 1100q0 -102 -40.5 -201t-104 -179t-159 -160.5t-185.5 -140t-205.5 -122.5t-197.5 -102.5t-181 -85.5l-33 -15q378 86 483 86q106 0 163.5 -40t57.5 -115q0 -64 -36 -116t-64 -52q-12 0 -12 18q0 111 -174 111q-107 0 -349 -51.5t-307 -51.5q-58 0 -101.5 43.5
t-43.5 79.5q0 14 8 19q6 6 66.5 36t150.5 73.5t205.5 108t233 137t231 162t201 181t141 197t53.5 206.5q0 63 -14 110t-51 78.5t-95 31.5q-80 0 -186 -69.5t-206.5 -181.5t-187.5 -241t-140.5 -261t-53.5 -228q0 -37 35 -72q6 -6 6 -10q0 -10 -17 -17.5t-42 -7.5
q-28 0 -56 9.5t-55 29.5t-44 59t-17 90q0 79 35.5 183.5t96.5 214t149.5 216t188 189.5t219 134t235.5 51q96 0 174 -30t126 -79t73.5 -107t25.5 -118z" />
    <glyph glyph-name="R" unicode="R" horiz-adv-x="1216" 
d="M1442 1079q0 -75 -42 -157.5t-111.5 -156t-160.5 -141.5t-186.5 -118t-192.5 -81.5t-176 -35.5q99 -157 237 -276t228 -119q23 0 51 18.5t29 18.5q12 0 12 -21q0 -22 -17 -52t-46 -58.5t-76 -48t-100 -19.5q-230 0 -481 535q-209 -381 -209 -465q0 -21 -39 -21
q-50 0 -106 34t-56 83q0 99 319 641q0 32 10.5 51t39.5 29q174 291 358 569q-98 -34 -191.5 -84t-170 -107.5t-123.5 -122t-47 -122.5q0 -38 34 -72q7 -7 7 -10q0 -10 -17.5 -17.5t-42.5 -7.5q-28 0 -56 9.5t-55 30t-44 59.5t-17 90q0 115 116 221.5t303.5 177.5t401.5 92
q12 9 29 9q9 0 29 -4q66 4 98 4q201 0 331 -99t130 -256zM508 539q154 25 331 119t301 219.5t124 228.5q0 95 -79.5 166t-176.5 74q2 -4 2 -15q0 -12 -9 -18q-40 -40 -191 -277t-302 -497z" />
    <glyph glyph-name="S" unicode="S" horiz-adv-x="1026" 
d="M682 688q50 0 134 68.5t160 161t131.5 191t55.5 153.5q0 53 -53 53q-63 0 -176.5 -56t-221.5 -135t-188 -174.5t-80 -165.5q0 -47 23 -91t59.5 -79t81 -69t89 -66.5t81 -65.5t59.5 -72.5t23 -80.5q0 -78 -52.5 -149.5t-130.5 -118.5t-163.5 -75t-155.5 -28
q-66 0 -118.5 28.5t-82 71t-44.5 85t-15 76.5q0 45 21 45q4 0 22 -14t43.5 -30.5t76 -30.5t110.5 -14q63 0 129.5 14.5t116 35.5t81 45.5t31.5 44.5q0 17 -38 45.5t-95 60.5t-123 78.5t-123 95t-95 113.5t-38 131q0 112 76.5 234t190 215t250.5 154t253 61q132 0 232 -75.5
t100 -174.5q0 -44 -32.5 -119.5t-89 -159.5t-124 -159t-147 -124t-148.5 -49q-42 0 -78 35.5t-36 63.5q0 16 18 16z" />
    <glyph glyph-name="T" unicode="T" horiz-adv-x="788" 
d="M1546 1391q21 0 21 -27q0 -48 -54.5 -108t-128.5 -60q-34 0 -307 25q-112 -160 -280 -435.5t-309.5 -544.5t-141.5 -339q0 -21 -39 -21q-50 0 -106 34t-56 83q0 64 133 310.5t278 482.5t286 452q-263 21 -316 21q-173 0 -285 -59t-112 -140q0 -14 3 -28t5.5 -24t11 -24
t12 -20t16.5 -20.5t15 -17t18 -18t17 -16.5l4 -8q0 -12 -28 -12q-20 0 -44.5 6.5t-53 23t-51.5 40t-38.5 61.5t-15.5 84q0 65 34.5 125t101.5 109.5t177 78.5t248 29q162 0 406 -11q15 11 32 11q27 0 66 -17q86 -5 203.5 -12t183.5 -10.5t94 -3.5z" />
    <glyph glyph-name="U" unicode="U" horiz-adv-x="1576" 
d="M1815 1421q11 11 30 11q42 0 92 -39t50 -72q0 -14 -9 -23q-76 -75 -268.5 -380t-359 -619t-166.5 -395q0 -21 -39 -21q-50 0 -106 34t-56 83q0 108 356 692q-115 -139 -196 -234t-184 -209.5t-175.5 -183t-141.5 -116t-110 -47.5q-81 0 -150 53.5t-69 126.5
q0 60 66.5 183.5t161 265t189.5 284t161.5 268t66.5 189.5q0 69 -79 69q-73 0 -192 -52t-228.5 -125.5t-189 -160.5t-79.5 -151q0 -26 20.5 -51t20.5 -31q0 -10 -17 -17.5t-42 -7.5q-28 0 -56 9.5t-55 30t-44 59.5t-17 90q0 79 91 169.5t225.5 162.5t298 120t300.5 48
q104 0 180 -67.5t76 -152.5q0 -63 -100 -242.5t-219.5 -363t-219.5 -356.5t-100 -225q0 -25 23 -25q50 0 182.5 129t297 324.5t319.5 388.5t286 360t162 201z" />
    <glyph glyph-name="V" unicode="V" horiz-adv-x="1501" 
d="M1700 1409q0 25 35 25q48 0 101.5 -42t53.5 -102q0 -42 -70 -162.5t-179.5 -274t-250.5 -322t-278 -308t-266.5 -230.5t-210.5 -91q-79 0 -139 53t-60 127q0 58 54.5 177.5t133 256.5t156.5 276t132.5 265.5t54.5 195.5q0 88 -88 88q-73 0 -192 -52t-228.5 -125.5
t-189 -160.5t-79.5 -151q0 -26 20.5 -51t20.5 -31q0 -10 -17 -17.5t-42 -7.5q-28 0 -56 9.5t-55 30t-44 59.5t-17 90q0 79 91 169.5t225.5 162.5t298 120t300.5 48q104 0 180 -67.5t76 -152.5q0 -62 -83.5 -240.5t-183.5 -360.5t-183.5 -356t-83.5 -228q0 -27 20 -27
q46 0 216.5 188t353 427.5t328 474.5t145.5 317z" />
    <glyph glyph-name="W" unicode="W" horiz-adv-x="2086" 
d="M2224 1409q0 25 35 25q49 0 102.5 -42t53.5 -102q0 -55 -58.5 -180.5t-152.5 -279.5t-218.5 -318.5t-249.5 -299.5t-252.5 -222.5t-221.5 -87.5q-82 0 -152 53.5t-70 126.5q0 64 47 178t104 217.5t143 256t128 235.5q-137 -165 -372 -423.5t-410 -446.5t-188 -205
q-10 -13 -37 -13q-52 0 -108 34t-56 83q0 47 68.5 171.5t166.5 277.5t195.5 309.5t166 297.5t68.5 212q0 75 -77 75q-73 0 -192 -52t-228.5 -125.5t-189 -160.5t-79.5 -151q0 -26 20.5 -51t20.5 -31q0 -10 -17 -17.5t-42 -7.5q-28 0 -56 9.5t-55 30t-44 59.5t-17 90
q0 79 91 169.5t225.5 162.5t298 120t300.5 48q104 0 180 -67.5t76 -152.5q0 -64 -108 -261t-270.5 -466.5t-225.5 -392.5q63 70 212.5 232t269.5 294t247.5 276.5t200 242t72.5 127.5q0 24 43 24q50 0 103.5 -29.5t53.5 -70.5q0 -62 -80.5 -234.5t-176.5 -348t-176.5 -345.5
t-80.5 -227q0 -33 27 -33q52 0 166.5 117t244.5 296.5t251 372t200.5 365.5t79.5 256z" />
    <glyph glyph-name="X" unicode="X" horiz-adv-x="1056" 
d="M1636 1434q53 0 85 -37.5t32 -73.5q0 -25 -16 -25q-122 0 -785 -563q-33 -142 -47 -205t-30.5 -166t-16.5 -167q0 -162 96 -162q27 0 27 -19q0 -22 -37.5 -43.5t-95.5 -21.5q-89 0 -148 66t-59 176q0 127 33 299q-104 -92 -255 -235t-235.5 -220.5t-97.5 -77.5
q-27 0 -56.5 30.5t-29.5 59.5q0 15 10 25q13 13 109 100.5t268.5 241.5t335.5 297q8 34 29.5 121t30.5 126t22.5 100.5t18.5 103t5 75.5q0 129 -84 129q-57 0 -145 -63.5t-166 -151t-134 -184.5t-56 -158q0 -26 20.5 -51t20.5 -31q0 -10 -17.5 -17t-42.5 -7q-28 0 -56 9.5
t-55 29.5t-44 59t-17 90q0 80 65 176t164 176t227.5 134.5t244.5 54.5q114 0 192 -82t78 -205q0 -68 -23 -193q559 480 635 480z" />
    <glyph glyph-name="Y" unicode="Y" horiz-adv-x="1538" 
d="M1776 1421q11 11 30 11q42 0 92 -39t50 -74q0 -12 -9 -21q-37 -37 -197.5 -281t-339 -532.5t-320.5 -549.5t-142 -322q0 -23 -39 -23q-50 0 -106 35t-56 84q0 71 186 390t447 722q-103 -111 -185 -195.5t-176.5 -175.5t-167 -149.5t-138.5 -96.5t-109 -38q-81 0 -141 52
t-60 126q0 51 56.5 150.5t137.5 211.5t161.5 224t137 210.5t56.5 147.5q0 53 -65 53q-73 0 -192 -52t-228.5 -125.5t-189 -160.5t-79.5 -151q0 -26 20.5 -51t20.5 -31q0 -10 -17 -17.5t-42 -7.5q-28 0 -56 9.5t-55 30t-44 59.5t-17 90q0 79 91 169.5t225.5 162.5t298 120
t300.5 48q102 0 169 -66.5t67 -153.5q0 -70 -85.5 -219.5t-188 -290.5t-188 -268.5t-85.5 -159.5q0 -12 12 -12q51 0 185.5 115.5t295.5 285.5t308.5 334t258.5 292.5t112 129.5z" />
    <glyph glyph-name="Z" unicode="Z" horiz-adv-x="1036" 
d="M1282 1225q0 -51 -46.5 -109.5t-120.5 -112.5t-163.5 -107.5t-179 -99t-163.5 -82t-120.5 -60.5t-46.5 -31q0 -2 4 -2q14 0 91.5 27.5t173 55t153.5 27.5t106 -46.5t48 -104.5q0 -27 -10 -60q12 -9 22 -24t10 -25q0 -7 -3 -10.5t-10 -5t-12.5 -1.5t-16 0.5t-15.5 0.5
q-45 -98 -134.5 -218t-194.5 -225t-219 -176.5t-197 -71.5q-106 0 -172 63.5t-66 154.5q0 77 79 161t201.5 152.5t260 123t264.5 83.5q55 77 55 108q0 17 -16 17q-10 0 -176 -52.5t-213 -52.5q-59 0 -106.5 47t-47.5 107q0 48 90 114.5t218.5 132t257.5 128t219 118.5t90 88
q0 43 -115 43q-123 0 -315 -44.5t-343 -111.5t-151 -120q0 -26 20.5 -52t20.5 -30q0 -20 -57 -20q-38 0 -76.5 12.5t-69.5 47t-31 83.5q0 65 62 125t160.5 103.5t218 76t237.5 48.5t215 16q144 0 237 -62t93 -147zM131 -92q0 -23 29 -23q62 0 235.5 161t319.5 339
q-109 -47 -219.5 -118.5t-188.5 -140t-127 -129t-49 -89.5z" />
    <glyph glyph-name="bracketleft" unicode="[" horiz-adv-x="526" 
d="M-86 -287q-106 0 -35 272q74 284 290 710q213 422 407 667q152 193 235 194q20 0 39.5 -11.5t35.5 -26t50.5 -26t79.5 -11.5q22 0 22 -25q0 -55 -27 -70.5t-91 -15.5q-30 0 -64.5 16t-58.5 37q-123 -150 -240 -326t-226.5 -377.5t-195 -423.5t-127.5 -429q51 31 77 42
t56 11q20 0 32.5 -10t17 -30t5.5 -32t1 -34q0 -25 -43 -25q-50 0 -90.5 -12t-61.5 -26t-44.5 -26t-43.5 -12z" />
    <glyph glyph-name="backslash" unicode="\" horiz-adv-x="393" 
d="M129 1417q34 -34 111 -651.5t77 -771.5q0 -26 -26 -44t-55 -18q-37 0 -37 27q0 106 -26 416t-73.5 630.5t-91.5 364.5q-8 8 -8 19q0 18 25 31.5t55 13.5q32 0 49 -17z" />
    <glyph glyph-name="bracketright" unicode="]" horiz-adv-x="651" 
d="M715 1556q106 0 35 -272q-74 -284 -290 -710q-213 -422 -407 -667q-152 -194 -235 -194q-20 0 -39.5 12t-35.5 26t-50.5 26t-79.5 12q-10 0 -16.5 7t-6.5 18q0 55 27.5 70.5t91.5 15.5q60 0 123 -54q123 150 240 326.5t226.5 377.5t195 423.5t127.5 429.5
q-50 -31 -77 -42t-57 -11q-16 0 -27.5 8t-16.5 17t-8 27.5t-3 26.5v27q0 25 43 25q50 0 90.5 11.5t61.5 26t44.5 26t43.5 11.5z" />
    <glyph glyph-name="asciicircum" unicode="^" horiz-adv-x="391" 
d="M250 1434q26 0 83.5 -93.5t57.5 -134.5q0 -38 -33 -63t-71 -25q-23 0 -36.5 11t-18.5 31t-6.5 48.5t-0.5 63t0 74.5q-37 -28 -88.5 -68.5t-74.5 -58t-27 -17.5q-13 0 -24 11.5t-11 25.5q0 30 110.5 112.5t139.5 82.5z" />
    <glyph glyph-name="underscore" unicode="_" 
d="M1874 -188q55 -11 35 -91q-20 -77 -84 -147q-72 -78 -127 -59l-6 2q-146 66 -610.5 117.5t-1042 74t-1225.5 8t-1120 -70.5q-34 -4 -38 24q-5 32 33 61q29 23 73 29q351 50 875 78t1038 32t993 -3.5t802.5 -23t403.5 -31.5z" />
    <glyph glyph-name="grave" unicode="`" horiz-adv-x="303" 
d="M162 1513q46 -48 120 -172t74 -174q0 -23 -12.5 -35t-28.5 -12q-14 0 -22 8q-15 15 -162 120.5t-162 119.5q-22 25 -22 51q0 44 47 82.5t100 38.5q41 0 68 -27z" />
    <glyph glyph-name="a" unicode="a" horiz-adv-x="1026" 
d="M1135 487q5 5 10 5q14 0 29.5 -12.5t15.5 -24.5q0 1 -11 -14t-30.5 -41t-45.5 -60t-58.5 -72t-67.5 -76t-73 -72.5t-74.5 -61t-73.5 -42.5t-68 -16q-77 0 -124.5 54.5t-47.5 138.5q0 48 41 145q-255 -338 -367 -338q-90 0 -140 50.5t-50 142.5q0 53 38 154t104 216
t143.5 219t167.5 173t165 69q86 0 155 -38t104 -89q10 14 22 32t18.5 27t14.5 20.5t12.5 17t10.5 12t10 9t9.5 5.5t10.5 3.5t12 0.5q45 0 99.5 -35t54.5 -67q0 -7 -8 -19q-44 -44 -138.5 -200.5t-174.5 -322.5t-80 -222q0 -23 16 -23q26 0 108.5 79t170.5 175t90 98z
M221 178q0 -43 33 -43q23 0 80.5 56.5t142 162.5t138 175.5t132.5 174.5q8 10 12 16t10 14t11 14l4 6l7 12q4 4 4 6q0 43 -19.5 83t-50.5 40q-73 0 -196 -145.5t-215.5 -319t-92.5 -252.5z" />
    <glyph glyph-name="b" unicode="b" horiz-adv-x="954" 
d="M825 1024q90 0 140.5 -50.5t50.5 -142.5q0 -44 -28 -123.5t-73.5 -171.5t-109 -187.5t-130 -173t-140 -126.5t-136.5 -49q-91 0 -163 42t-103 97q-13 -29 -21.5 -61.5t-12 -46t-16 -22.5t-38.5 -9q-51 0 -99 27.5t-48 72.5q0 56 211.5 402.5t426.5 669.5t244 352
q12 12 37 12q45 0 98.5 -35t53.5 -67q0 -11 -8 -19q-68 -68 -250.5 -330.5t-345.5 -527.5q335 467 460 467zM221 256q0 -44 20 -85.5t52 -41.5q55 0 143 90t166 209t135.5 240.5t57.5 179.5q0 41 -31 41q-21 0 -71 -47.5t-124 -137.5t-126.5 -157t-132.5 -173t-89 -118z" />
    <glyph glyph-name="c" unicode="c" horiz-adv-x="806" 
d="M915 489q5 5 11 5q14 0 29.5 -13.5t15.5 -25.5q0 3 -11 -10.5t-31.5 -39.5t-48.5 -59.5t-64.5 -72t-77.5 -76.5t-88.5 -73.5t-96 -62.5t-102.5 -43t-105 -16q-146 0 -220.5 81t-74.5 198q0 76 41.5 176.5t111 197.5t151.5 180.5t173 135t166 51.5q88 0 153.5 -55
t65.5 -117q0 -63 -46.5 -138t-109.5 -125t-110 -50q-27 0 -44 14t-17 29q0 18 22 18q24 0 65 51t72 116t31 103q0 33 -24 33q-78 0 -195 -120t-204 -281t-87 -267q0 -118 121 -118q40 0 89 18.5t97.5 51t94 67.5t89.5 77t73.5 71.5t56.5 58.5t28 30z" />
    <glyph glyph-name="d" unicode="d" horiz-adv-x="1034" 
d="M1286 1524q12 12 35 12q45 0 99.5 -35t54.5 -67q0 -10 -9 -19q-71 -71 -242.5 -337.5t-321.5 -547.5t-150 -364q0 -31 22 -31q20 0 79 52t115 111t113.5 122t61.5 67q5 5 10 5q14 0 29.5 -12.5t15.5 -24.5q0 1 -11 -14t-30.5 -41t-45.5 -60t-58.5 -72t-67.5 -76
t-73 -72.5t-74.5 -61t-73.5 -42.5t-68 -16q-77 0 -124.5 54.5t-47.5 138.5q0 49 58 178q-278 -371 -392 -371q-90 0 -140 50.5t-50 142.5q0 53 38 154t104 216t143.5 219t167.5 173t165 69q83 0 151.5 -37t104.5 -88q128 213 258.5 408t153.5 217zM221 178q0 -43 33 -43
q21 0 70.5 47.5t122.5 137.5t126.5 157.5t132.5 172.5t89 118q0 45 -19 86t-51 41q-73 0 -196 -145.5t-215.5 -319t-92.5 -252.5z" />
    <glyph glyph-name="e" unicode="e" horiz-adv-x="806" 
d="M915 489q5 5 11 5q14 0 29.5 -13.5t15.5 -25.5q0 3 -11 -10.5t-31.5 -39.5t-48.5 -59.5t-64.5 -72t-77.5 -76.5t-88.5 -73.5t-96 -62.5t-102.5 -43t-105 -16q-146 0 -220.5 81t-74.5 198q0 76 41.5 176.5t111 197.5t151.5 180.5t173 135t166 51.5q95 0 157 -59t62 -134
q0 -85 -63.5 -179.5t-154 -165.5t-191.5 -118t-174 -47q-30 0 -51 9q-15 -50 -15 -92q0 -121 123 -121q40 0 89 18.5t97.5 51t94 67.5t89.5 77t73.5 71.5t56.5 58.5t28 30zM322 442q6 -2 16 -2q75 0 184 85.5t186.5 188t77.5 154.5q0 33 -34 33q-86 0 -219 -145.5
t-211 -313.5z" />
    <glyph glyph-name="f" unicode="f" horiz-adv-x="649" 
d="M707 1421q13 13 36 13q45 0 98.5 -35.5t53.5 -67.5q0 -10 -8 -18q-66 -67 -189.5 -245t-263.5 -406q47 -10 74 -52t27 -104q0 -86 -39 -211q57 21 109.5 57t83 66.5l53 53t28.5 22.5q13 0 27 -12.5t14 -24.5q0 -2 -17 -23t-50 -56t-74 -71t-98.5 -70t-114.5 -51
q-67 -166 -167.5 -324.5t-215 -266t-201.5 -107.5q-83 0 -131.5 55t-48.5 138q0 81 144 354.5t325 566t343 536t202 283.5zM-86 -352q0 -25 16 -25q34 0 157 176.5t224 370.5q-87 8 -125 70q-272 -481 -272 -592zM276 358q0 -81 84 -86q74 165 74 234q0 55 -45 55
q-25 0 -69 -82t-44 -121z" />
    <glyph glyph-name="g" unicode="g" horiz-adv-x="960" 
d="M956 1012q12 12 35 12q45 0 99.5 -35t54.5 -67q0 -11 -8 -19q-45 -45 -101 -135.5t-109 -196.5t-118.5 -230.5t-130 -243.5t-143.5 -230.5t-159 -194.5t-177 -133.5t-197 -50.5q-107 0 -182.5 68t-75.5 145q0 43 15 64.5t32 21.5q19 0 19 -16q0 -42 49 -95t106 -53
q47 0 98 28.5t104 85t102.5 120.5t106.5 156.5t102 171t102 184.5q-280 -369 -390 -369q-91 0 -141.5 50.5t-50.5 142.5q0 53 38.5 154t104.5 216t143.5 219t167 173t164.5 69q84 0 151.5 -36.5t104.5 -86.5q52 79 84 111zM221 176q0 -41 31 -41q16 0 46.5 25t76 76
t85.5 98.5t98.5 122.5t90.5 117t85.5 113.5t60.5 80.5q0 44 -20 85.5t-52 41.5q-55 0 -143 -90t-166 -209t-135.5 -240.5t-57.5 -179.5z" />
    <glyph glyph-name="h" unicode="h" horiz-adv-x="1026" 
d="M1137 489q5 5 10 5q12 0 27.5 -14t15.5 -25q0 -7 -2 -9q-3 -3 -66 -82.5t-128.5 -155t-153 -142t-150.5 -66.5q-78 0 -125 51.5t-47 141.5q0 66 56 182.5t123.5 219t123.5 191t56 105.5q0 6 -5 6q-28 0 -153.5 -118t-263 -267.5t-247.5 -294t-110 -190.5q3 -27 -51 -27
q-52 0 -100.5 27.5t-48.5 72.5q0 56 211.5 402.5t426.5 669.5t244 352q12 12 37 12q45 0 98.5 -35t53.5 -67q0 -11 -8 -19q-76 -76 -285.5 -380.5t-370.5 -577.5q185 218 369.5 392.5t245.5 174.5q65 0 124.5 -50.5t59.5 -103.5q0 -38 -55 -145t-121 -216t-121 -213.5
t-55 -139.5q0 -21 16 -21q20 0 78.5 52t114.5 112t114 123t62 67z" />
    <glyph glyph-name="i" unicode="i" horiz-adv-x="499" 
d="M680 1417q17 17 47 17q48 0 100 -37.5t52 -75.5q0 -16 -15 -31q-12 -14 -63 -77t-89.5 -107.5t-47.5 -44.5q-37 0 -82 39.5t-45 81.5q0 37 52.5 117t90.5 118zM-10 193q0 62 62 195t142 264t149.5 235t90.5 125q12 12 35 12q45 0 99.5 -35t54.5 -67q0 -10 -9 -19
q-44 -44 -138 -200t-173.5 -321.5t-79.5 -221.5q0 -25 17 -25t57 32.5t90.5 84.5t93 98t83 91.5t42.5 47.5q5 5 10 5q13 0 29.5 -14t16.5 -25l-10 -14q-253 -348 -418 -423q-41 -18 -74 -18q-76 0 -123 54.5t-47 138.5z" />
    <glyph glyph-name="j" unicode="j" horiz-adv-x="417" 
d="M649 1417q17 17 45 17q50 0 102 -37.5t52 -75.5q0 -17 -14 -31q-18 -18 -66.5 -78t-87.5 -105.5t-49 -45.5q-36 0 -80.5 39.5t-44.5 81.5q0 37 52.5 117t90.5 118zM-799 -299q0 43 15 64.5t32 21.5q19 0 19 -16q0 -42 49 -95t106 -53q80 0 176 88.5t184 223.5t183 303
t172 318.5t153 279t124 176.5q12 12 35 12q43 0 98 -36t55 -66q0 -11 -8 -19q-45 -45 -101 -135.5t-109 -196.5t-118.5 -230.5t-130 -243.5t-143.5 -230.5t-159 -194.5t-177 -133.5t-197 -50.5q-107 0 -182.5 68t-75.5 145z" />
    <glyph glyph-name="k" unicode="k" horiz-adv-x="993" 
d="M1102 487q5 5 12 5q13 0 28 -13t15 -24q0 -7 -2 -9q-5 -5 -48.5 -59t-98 -114.5t-120 -124.5t-133.5 -106t-120 -42q-49 0 -97.5 36t-85.5 93.5t-65 121.5t-43 126q-235 -268 -246 -346q0 -33 -51 -33q-52 0 -100.5 27.5t-48.5 74.5q0 56 211.5 402.5t426.5 669.5
t244 352q12 12 37 12q45 0 98.5 -35t53.5 -67q0 -11 -8 -19q-76 -76 -283.5 -377t-368.5 -573q5 5 16 21.5t19 19.5q180 207 347 362.5t222 155.5q71 0 118.5 -55t47.5 -119q0 -76 -85.5 -186.5t-208 -198.5t-220.5 -107q15 -55 34 -103t46 -84t53 -36q30 0 96.5 52.5
t125.5 111.5t119 122.5t63 65.5zM463 510q70 7 152 57.5t143 113t102 120.5t41 84q0 12 -12 12q-29 0 -155.5 -115.5t-270.5 -271.5z" />
    <glyph glyph-name="l" unicode="l" horiz-adv-x="489" 
d="M739 1524q12 12 37 12q45 0 99.5 -35t54.5 -67q0 -7 -8 -19q-71 -71 -243 -337t-322 -547t-150 -365q0 -31 22 -31q17 0 57 32t91 84t93 97t83.5 91.5t42.5 47.5q5 5 12 5q13 0 28 -13t15 -24l-10 -14q-252 -348 -417 -423q-41 -18 -74 -18q-76 0 -123 54.5t-47 138.5
q0 75 111 291t250.5 439t258 401.5t139.5 199.5z" />
    <glyph glyph-name="m" unicode="m" horiz-adv-x="1486" 
d="M1595 487q5 5 13 5q13 0 28 -13t15 -24q0 -7 -2 -9q-6 -6 -46.5 -59t-92.5 -114t-114 -125t-128.5 -106t-118.5 -42q-77 0 -123.5 51t-46.5 142q0 66 56 182.5t123 219.5t123 191.5t56 104.5q0 6 -4 6q-36 0 -200.5 -170.5t-329 -377t-197.5 -294.5q-1 -5 -2 -14.5
t-2 -13t-3 -9.5t-5 -8t-8.5 -5t-13.5 -4t-19 -1q-51 0 -101.5 28.5t-50.5 71.5q0 37 68 161t149.5 252.5t149.5 243t68 134.5q0 6 -5 6q-36 0 -203.5 -173.5t-333 -382.5t-192.5 -292q-6 -34 -13 -41q-11 -10 -42 -10q-52 0 -100.5 27.5t-48.5 74.5q0 46 127.5 269
t256.5 424.5t146 218.5q12 12 37 12q45 0 98 -35t53 -67q-102 -140 -231 -351q164 191 302.5 322t189.5 131q66 0 126 -51t60 -103q0 -45 -96 -206q139 156 253 258t158 102q66 0 126.5 -51t60.5 -103q0 -38 -55.5 -145t-122 -215.5t-122 -213.5t-55.5 -140q0 -21 19 -21
t77 52t114 111t113.5 122t61.5 67z" />
    <glyph glyph-name="n" unicode="n" horiz-adv-x="1026" 
d="M1135 487q5 5 12 5q13 0 28 -13t15 -24q0 -7 -2 -9q-6 -6 -46.5 -59t-92.5 -114t-114 -125t-128.5 -106t-118.5 -42q-77 0 -123.5 51t-46.5 142q0 66 56 182.5t123.5 219.5t123.5 191.5t56 104.5q0 6 -5 6q-28 0 -147 -110.5t-251 -253.5t-244.5 -288t-129.5 -204
q-1 -4 -3 -11.5t-2.5 -10t-3 -7.5t-5.5 -6.5t-8.5 -4t-13 -3t-17.5 -0.5q-52 0 -100.5 27.5t-48.5 74.5q0 46 127.5 269t256.5 424.5t146 218.5q12 12 37 12q45 0 98 -35t53 -67q0 3 -36 -48.5t-104 -156.5t-134 -217q183 210 351.5 367t224.5 157q66 0 126 -51t60 -103
q0 -38 -55.5 -145t-121.5 -215.5t-121.5 -213.5t-55.5 -140q0 -21 18 -21q19 0 77 52t114 111t114 122t62 67z" />
    <glyph glyph-name="o" unicode="o" horiz-adv-x="876" 
d="M985 489q7 7 14 7q13 0 27 -13t14 -24q0 -6 -4 -10q-1 -1 -18 -21t-33 -36.5t-43 -42.5t-57.5 -46.5t-67 -41t-80 -33.5t-88.5 -17q-186 -209 -348 -209q-94 0 -172 76t-78 184q0 88 56.5 220t130 244t145 193.5t102.5 81.5q41 0 86 -30q75 55 140 55q112 0 177.5 -76.5
t65.5 -173.5q0 -70 -66.5 -208.5t-166.5 -270.5q24 7 48 18t48 27t41.5 29t40.5 34t33 30.5t30.5 30.5t22.5 23zM240 170q0 -74 57 -74q63 0 190 144q-127 65 -145 237q-102 -209 -102 -307zM471 526q0 -150 84 -207q113 146 197 304t84 241q0 66 -58 66q-54 0 -126.5 -64.5
t-126.5 -161.5t-54 -178z" />
    <glyph glyph-name="p" unicode="p" horiz-adv-x="940" 
d="M811 1022q89 0 139.5 -50t50.5 -141q0 -54 -38 -155t-104 -216.5t-143.5 -219.5t-167.5 -173t-165 -69q-88 0 -160.5 42t-103.5 95q-287 -513 -287 -622q0 -12 -14.5 -19.5t-36.5 -7.5q-52 0 -101 27.5t-49 74.5q0 57 190.5 402.5t387 670t223.5 351.5q12 12 37 12
q45 0 98.5 -35t53.5 -67q0 -5 -16.5 -27t-49 -63.5t-57.5 -77.5q217 268 313 268zM207 256q0 -46 18 -87.5t51 -41.5q55 0 143 90t166 209t135.5 240.5t57.5 179.5q0 43 -30 43q-21 0 -70 -47t-124.5 -139.5t-125.5 -156t-133 -174t-88 -116.5z" />
    <glyph glyph-name="q" unicode="q" horiz-adv-x="960" 
d="M967 1012q12 12 34 12q45 0 99.5 -35t54.5 -67q0 -11 -8 -19q-76 -77 -265 -380.5t-352 -616t-163 -393.5q0 -12 -15 -19.5t-37 -7.5q-52 0 -100.5 27.5t-48.5 74.5q0 43 108 249t267 478q-243 -317 -351 -317q-89 0 -139.5 50.5t-50.5 141.5q0 45 27.5 124.5t73.5 171.5
t109.5 187.5t130 173t140.5 126.5t137 49q90 0 162 -41t103 -96q72 115 84 127zM221 176q0 -43 33 -43q21 0 70 47t124.5 139.5t125.5 156t133 174t88 116.5q0 45 -19 87t-51 42q-73 0 -196 -146t-215.5 -320t-92.5 -253z" />
    <glyph glyph-name="r" unicode="r" horiz-adv-x="798" 
d="M907 487q5 5 13 5q13 0 28 -13t15 -24q0 -7 -2 -9q-3 -3 -66 -82.5t-128.5 -155t-153 -142t-150.5 -66.5q-79 0 -124.5 51t-45.5 142q0 53 39 139t94.5 174.5t111.5 171.5t95 146.5t39 82.5q0 11 -10 11q-29 0 -85.5 -3.5t-66.5 -3.5q-75 -109 -160 -224t-140 -184
t-60 -69q-13 0 -30.5 18t-17.5 29q0 -3 49 60t127 170t138 198q-82 0 -128 21.5t-46 77.5q0 54 49.5 125t110.5 119t96 48q60 0 107.5 -36t47.5 -80t-73 -164q70 4 114 4q76 0 130.5 -48.5t54.5 -105.5q0 -42 -55.5 -149.5t-122 -215.5t-122 -211.5t-55.5 -137.5
q0 -21 19 -21q20 0 78.5 52t114 112t111.5 122t60 66zM442 1036q0 -15 43 -18q70 117 70 160q0 8 -6 8q-15 0 -61 -63.5t-46 -86.5z" />
    <glyph glyph-name="s" unicode="s" horiz-adv-x="796" 
d="M733 1024q48 0 76.5 -26.5t28.5 -55.5q0 -12 -8 -20.5t-21 -8.5q-42 0 -71 -52.5t-29 -117.5q0 -243 -23 -376q-64 -367 -301 -367q-67 0 -122.5 41.5t-87.5 101t-54.5 128t-30.5 117.5t-8 75q0 20 17.5 36.5t31.5 16.5h4l445 438q73 70 153 70zM154 438
q21 -64 51.5 -131t70 -121.5t70.5 -54.5q42 0 78 106t55 255t19 290z" />
    <glyph glyph-name="t" unicode="t" horiz-adv-x="483" 
d="M958 1229q27 0 27 -31q0 -30 -24 -64t-50 -34q-23 0 -215 4q-184 -284 -336.5 -567.5t-152.5 -370.5q0 -31 22 -31q17 0 57 32t91 84t93 97t83.5 91.5t42.5 47.5q5 5 12 5q13 0 28 -13t15 -24l-10 -14q-252 -348 -417 -423q-41 -18 -74 -18q-76 0 -123 54.5t-47 138.5
q0 89 140.5 347.5t336.5 565.5q-19 0 -56 -1t-55.5 -0.5t-41 2t-32.5 7.5t-10 16q0 14 4 23.5t14.5 15.5t23 9t35.5 5t45 3t59.5 3t70.5 5q149 227 192 284.5t70 57.5q45 0 99.5 -35t54.5 -67q0 -5 -21.5 -33t-63.5 -82t-75 -102q172 12 188 12z" />
    <glyph glyph-name="u" unicode="u" horiz-adv-x="1015" 
d="M1124 487q5 5 11 5q14 0 29.5 -12.5t15.5 -24.5q0 1 -11 -14t-30.5 -41t-45.5 -60t-58.5 -72t-67.5 -76t-73 -72.5t-74.5 -61t-73.5 -42.5t-68 -16q-77 0 -124.5 54.5t-47.5 138.5q0 41 33 122q-259 -315 -379 -315q-76 0 -123 54.5t-47 138.5q0 62 62 195t142 264
t149.5 235t90.5 125q12 12 35 12q45 0 99.5 -35t54.5 -67q0 -10 -9 -19q-44 -44 -138 -200t-173.5 -321.5t-79.5 -221.5q0 -25 17 -25q21 0 61 35t98 103.5t110.5 134.5t125 165t113.5 156t102 143q71 106 91 129t46 23q45 0 99.5 -35t54.5 -67q0 -7 -8 -19
q-44 -44 -139 -200.5t-175 -322.5t-80 -222q0 -23 17 -23q26 0 108.5 79t170 175t89.5 98z" />
    <glyph glyph-name="v" unicode="v" horiz-adv-x="925" 
d="M868 1014q0 20 23 20q43 0 100.5 -53.5t57.5 -116.5q0 -47 -58 -150t-153.5 -223t-204 -231t-224 -184.5t-198.5 -73.5q-92 0 -151.5 51.5t-59.5 141.5q0 82 85 263.5t185 341.5t154 214q12 12 35 12q43 0 98 -36t55 -66q0 5 -38.5 -52.5t-93.5 -150t-110 -193.5
t-93.5 -197.5t-38.5 -146.5q0 -47 36 -47q50 0 151.5 111.5t198.5 257.5t170.5 294t73.5 214z" />
    <glyph glyph-name="w" unicode="w" horiz-adv-x="1454" 
d="M1397 1012q0 22 26 22q44 0 99 -52.5t55 -119.5q0 -39 -42 -118.5t-110 -175t-157.5 -196.5t-180.5 -183.5t-184.5 -135.5t-163.5 -53q-92 0 -151.5 52t-59.5 141q0 60 41 163q-280 -356 -409 -356q-76 0 -123 54.5t-47 138.5q0 81 102.5 276.5t207 354.5t134.5 188
q12 12 35 12q45 0 99.5 -35t54.5 -67q0 -10 -9 -19q-44 -44 -138 -200t-173.5 -321.5t-79.5 -221.5q0 -25 17 -25q92 0 569 682q8 12 23 35q32 49 48 72t38 51t38.5 38.5t32.5 10.5q45 0 98.5 -35t53.5 -67q0 -11 -8 -19q-43 -43 -130 -184.5t-162 -303t-75 -233.5
q0 -47 37 -47q50 0 151.5 112t198.5 258t170.5 294t73.5 213z" />
    <glyph glyph-name="x" unicode="x" horiz-adv-x="921" 
d="M1096 1102q39 0 65.5 -22.5t26.5 -41.5q0 -12 -12 -12q-30 0 -206 -181t-386 -421q0 -139 11.5 -214t43.5 -75t96.5 52.5t120 111.5t113 123.5t59.5 66.5q5 5 10 5q12 0 27.5 -13.5t15.5 -25.5q0 1 -10.5 -14t-30 -41t-45.5 -60t-58.5 -72t-67 -76t-72.5 -72.5t-74 -61
t-73 -42.5t-68 -16q-145 0 -191 197q-219 -269 -219 -301q0 -17 -20 -17q-23 0 -43.5 17t-20.5 43q0 18 80.5 125.5t204.5 257.5q-6 58 -6 122q0 113 16 289q-236 -313 -252 -313q-13 0 -29 14t-16 25q0 -2 45.5 55t118.5 151.5t143 186.5q4 58 4 76q0 41 54 68.5t110 27.5
q53 0 53 -27q0 -25 -4 -89t-10.5 -158t-9.5 -168q190 221 333.5 370.5t172.5 149.5z" />
    <glyph glyph-name="y" unicode="y" horiz-adv-x="950" 
d="M946 1012q12 12 35 12q45 0 99.5 -35t54.5 -67q0 -10 -9 -19q-41 -41 -89.5 -117.5t-96 -167t-101.5 -198.5t-112 -215.5t-120.5 -212.5t-133 -195.5t-145 -160t-161 -109t-175.5 -39.5q-107 0 -182.5 68t-75.5 145q0 43 15 64.5t32 21.5q18 0 18 -16q0 -42 49.5 -95
t106.5 -53q54 0 115.5 41.5t118 105.5t123.5 163t120 190.5t119 212.5q-270 -338 -395 -338q-76 0 -123 54t-47 138q0 80 102.5 275.5t206.5 354.5t135 190q12 12 35 12q45 0 99 -35t54 -67q0 -11 -8 -19q-44 -44 -138 -200t-173.5 -321.5t-79.5 -221.5q0 -25 17 -25
q20 0 59 33t93.5 97.5t105.5 128.5t120 158.5t111 152.5t102 143q73 120 119 166z" />
    <glyph glyph-name="z" unicode="z" horiz-adv-x="948" 
d="M1112 936q0 -39 -71 -111t-172.5 -149.5t-203 -151t-172.5 -128t-71 -66.5q0 -4 8 -4q19 0 139.5 56t147.5 56q43 0 95 -54.5t52 -98.5q0 -19 -10 -29q-29 -29 -67 -90.5t-76.5 -129.5t-85.5 -146.5t-104.5 -148.5t-123.5 -127.5t-152.5 -91.5t-181.5 -34
q-107 0 -182.5 68t-75.5 145q0 43 15.5 64.5t32.5 21.5q18 0 18 -16q0 -42 49.5 -95t106.5 -53q53 0 107.5 28t105.5 79t97 109t93 134t81 135.5t73 130.5q4 8 6.5 12.5t6.5 11.5t7 13q-37 -27 -62 -43t-61 -30.5t-67 -14.5q-57 0 -108.5 50t-51.5 106q0 35 48.5 92
t121.5 116.5t158.5 123.5t158.5 115.5t121.5 90.5t48.5 50q0 6 -10 6q-22 0 -103 -22t-192 -54.5t-155 -44.5q-118 -157 -215 -278t-105 -121q-12 0 -28.5 13.5t-16.5 23.5q0 1 38.5 49t110.5 139.5t132 169.5q-21 13 -34.5 49t-13.5 74t13.5 63t38.5 25h651
q31 0 60.5 -29.5t29.5 -58.5z" />
    <glyph glyph-name="braceleft" unicode="{" horiz-adv-x="622" 
d="M291 752q56 0 107 44.5t91.5 115t78 156.5t72.5 172t69.5 156.5t75 115t81.5 44.5q20 0 46 -11.5t50 -26t64.5 -26t85.5 -11.5q23 0 23 -41q0 -42 -31 -56t-96 -14q-16 0 -50 6t-65 6q-17 -31 -54.5 -110.5t-73.5 -155.5t-87 -166t-99.5 -156.5t-107.5 -111.5t-113 -45
q98 0 37 -154q-32 -80 -157 -298q-124 -214 -148 -293q-4 -13 -6 -25q12 -1 51.5 5.5t59.5 6.5h28.5t24.5 -2.5t24.5 -8t14 -16t6.5 -26.5q0 -37 -43 -37q-63 0 -120.5 -19t-102.5 -38t-78 -19q-94 0 -44 133q28 76 148 284q127 221 159 310q48 163 -73 168q-45 0 -65.5 15
t-20.5 49q0 48 29.5 71t71.5 23q6 0 61.5 -7t75.5 -7z" />
    <glyph glyph-name="verticalbar" unicode="|" horiz-adv-x="440" 
d="M102 -319v1964h236v-1964h-236z" />
    <glyph glyph-name="braceright" unicode="}" horiz-adv-x="595" 
d="M434 518q-56 0 -107 -44.5t-91.5 -115.5t-78 -156.5t-72.5 -171.5t-69.5 -157t-75 -115.5t-81.5 -44.5q-23 0 -57.5 19t-83 38t-105.5 19q-23 0 -23 41q0 42 31 56t96 14q16 0 50 -6.5t65 -6.5q17 31 54.5 110.5t73.5 156t87 166.5t99.5 156.5t107.5 111.5t113 45
q-98 0 -37 154q32 80 157 298q124 214 148 293q4 13 6 25q-12 1 -51.5 -5.5t-59.5 -6.5h-28.5t-24.5 2.5t-24.5 8t-14 16t-6.5 26.5q0 37 43 37q50 0 97 11.5t77 26t65 26t62 11.5q94 0 44 -134q-28 -75 -148 -282q-127 -220 -158 -309q-58 -163 62 -169h10q45 0 65.5 -15
t20.5 -49q0 -48 -29.5 -71t-71.5 -23q-6 0 -61.5 7t-75.5 7z" />
    <glyph glyph-name="asciitilde" unicode="~" horiz-adv-x="602" 
d="M580 649q2 2 6 2q6 0 11 -5t5 -11q0 -24 -84 -91t-127 -67q-36 0 -127.5 59.5t-134.5 59.5q-33 0 -54.5 -10.5t-47.5 -34.5q-6 -6 -13 -6q-14 0 -14 14q0 13 42 50.5t94 70.5t77 33q45 0 98 -30.5t96 -60.5t64 -30q25 0 57.5 19t51.5 38z" />
    <glyph glyph-name="uni00A0" unicode="&#xa0;" horiz-adv-x="770" 
 />
    <glyph glyph-name="exclamdown" unicode="&#xa1;" horiz-adv-x="581" 
d="M-166 -319q-13 -13 -37 -13q-45 0 -98 35.5t-53 67.5q0 10 8 18q78 78 345 470t267 437q0 25 21 25q19 0 37 -20t18 -48q0 -49 -234 -490.5t-274 -481.5zM342 971q0 54 38.5 91.5t92.5 37.5t91.5 -37.5t37.5 -91.5t-37.5 -92.5t-91.5 -38.5t-92.5 38.5t-38.5 92.5z" />
    <glyph glyph-name="cent" unicode="&#xa2;" horiz-adv-x="806" 
d="M915 489q5 5 11 5q14 0 29.5 -13.5t15.5 -25.5q0 3 -10.5 -10t-30.5 -38t-47.5 -58t-63.5 -71t-75.5 -75.5t-86 -73t-94 -63t-100.5 -45t-103 -19.5q-153 -296 -153 -362q0 -29 -37 -29q-29 0 -55.5 18t-26.5 45q0 64 145 344q-91 28 -136.5 99.5t-45.5 163.5
q0 76 41.5 176.5t111 197.5t151.5 180.5t173 135t166 51.5q45 0 99 -21q204 342 229 367q19 16 47 16q30 0 56 -14t26 -31q0 -10 -8 -18q-44 -44 -258 -393q28 -39 28 -78q0 -61 -44.5 -134t-106 -124t-109.5 -55q-101 -176 -233 -420q40 7 87 29.5t92.5 55t88 67t83 73.5
t67.5 66.5t51 53t26 27.5zM266 233q0 -61 33 -90q164 308 432 756q-81 -17 -192.5 -137.5t-192 -273.5t-80.5 -255z" />
    <glyph glyph-name="sterling" unicode="&#xa3;" horiz-adv-x="1320" 
d="M1055 178q106 0 163.5 -39t57.5 -114q0 -64 -36 -116t-64 -52q-13 0 -13 18q0 111 -229 111q-112 0 -283 -26t-319 -51.5t-203 -25.5q-54 0 -91.5 28.5t-37.5 53.5q0 12 12.5 16.5t53.5 9.5t71 11q49 115 215 375h-69q-21 0 -21 35q0 27 12.5 53.5t30.5 26.5q72 0 123 2
q115 171 232.5 327t241.5 299t234 228.5t181 85.5q110 0 180 -66t70 -162q0 -69 -47.5 -195.5t-115 -249.5t-150 -214.5t-144.5 -91.5q-42 0 -78.5 35t-36.5 63q0 16 19 16q44 0 142.5 149.5t178.5 324.5t80 243q0 31 -18 31q-64 0 -274 -250t-433 -569h96q27 0 27 -31
q0 -30 -24 -63t-50 -33q-78 0 -135 2q-143 -216 -198 -316q433 97 559 114q56 7 90 7z" />
    <glyph glyph-name="currency" unicode="&#xa4;" horiz-adv-x="929" 
d="M143 532q0 124 66 199q-74 163 -92 187q-17 23 20 53q31 24 62 24q22 0 30 -14q19 -26 68 -176q65 35 154 35q135 0 215 -80q161 73 186 92q23 17 53 -21q19 -25 23 -50.5t-13 -41.5q-33 -21 -184 -69q27 -69 27 -138q0 -125 -66 -200q74 -163 92 -187q17 -23 -20 -53
q-31 -24 -62 -24q-22 0 -30 14q-19 26 -68 176q-65 -35 -153 -35q-112 0 -183 53q-164 -75 -190 -94q-23 -17 -53 21q-19 26 -23.5 51t12.5 41q22 16 172 65q-43 75 -43 172zM274 532q0 -80 49 -129t128 -49t127.5 49t48.5 129q0 78 -48.5 127.5t-127.5 49.5t-128 -49.5
t-49 -127.5z" />
    <glyph glyph-name="yen" unicode="&#xa5;" horiz-adv-x="1538" 
d="M1776 1421q11 11 30 11q42 0 92 -39t50 -74q0 -12 -9 -21q-45 -45 -254 -366t-399 -643q41 2 98 2q27 0 27 -31q0 -30 -24 -64t-50 -34q-74 0 -127 2l-41 -74h76q27 0 27 -31q0 -30 -24 -63t-50 -33h-100q-158 -289 -158 -350q0 -23 -39 -23q-50 0 -106 35t-56 84
q0 53 113 258q-41 2 -111 2q-20 0 -20 35q0 27 12.5 53.5t30.5 26.5q88 0 154 2q8 15 24 42.5t23 39.5h-84q-21 0 -21 35q0 27 12.5 53.5t30.5 26.5q76 0 131 2q136 225 338 536q-103 -111 -185 -195.5t-176.5 -175.5t-167 -149.5t-138.5 -96.5t-109 -38q-81 0 -141 52
t-60 126q0 51 56.5 150.5t137.5 211.5t161.5 224t137 210.5t56.5 147.5q0 53 -65 53q-73 0 -192 -52t-228.5 -125.5t-189 -160.5t-79.5 -151q0 -26 20.5 -51t20.5 -31q0 -10 -17 -17.5t-42 -7.5q-28 0 -56 9.5t-55 30t-44 59.5t-17 90q0 79 91 169.5t225.5 162.5t298 120
t300.5 48q102 0 169 -66.5t67 -153.5q0 -70 -85.5 -219.5t-188 -290.5t-188 -268.5t-85.5 -159.5q0 -12 12 -12q51 0 185.5 115.5t295.5 285.5t308.5 334t258.5 292.5t112 129.5z" />
    <glyph glyph-name="brokenbar" unicode="&#xa6;" horiz-adv-x="765" 
d="M813 1614q19 16 47 16q30 0 56 -14t26 -31q0 -10 -8 -18q-51 -51 -156.5 -223t-197 -365.5t-91.5 -273.5q0 -29 -36 -29q-29 0 -55.5 18t-26.5 45q0 80 102 289t206.5 382.5t133.5 203.5zM-162 -326q0 80 102.5 289t207 382.5t133.5 203.5q19 16 47 16q30 0 56 -14
t26 -31q0 -9 -9 -18q-51 -51 -156.5 -223t-196.5 -365.5t-91 -273.5q0 -29 -37 -29q-29 0 -55.5 18t-26.5 45z" />
    </font>
</defs>
</svg>
